<svg xmlns="http://www.w3.org/2000/svg" width="20" height="17" fill="none" viewBox="0 0 20 17">
  <path stroke="#000" stroke-linecap="round" stroke-linejoin="round" stroke-width="2" d="M10 2a5.98 5.98 0 0 1 3.01.808M10 2a5.98 5.98 0 0 0-3.01.808M10 2V1M7 13.197 5 16m8-2.803L15 16M10 4.99V8l1 1M4.808 4.99a2 2 0 1 1 2.183-2.182M4.808 4.991A5.96 5.96 0 0 0 4 8a6 6 0 1 0 11.192-3.01m-10.384 0a6.03 6.03 0 0 1 2.183-2.182m6.018 0a2 2 0 1 1 2.183 2.183m-2.183-2.183a6.03 6.03 0 0 1 2.183 2.183M17.485 13A8.959 8.959 0 0 0 19 8c0-.338-.019-.672-.055-1m-16.43 6A8.958 8.958 0 0 1 1 8c0-.338.019-.672.055-1"/>
</svg>
