<svg xmlns="http://www.w3.org/2000/svg" width="18" height="18" fill="none" viewBox="0 0 18 18">
  <path stroke="#000" stroke-linecap="round" stroke-linejoin="round" stroke-width="2" d="M12.536 5.464 11.12 6.88m0 0L9 8.999m2.121-2.12L9.707 5.464m1.414 1.415 1.415 1.414M9 9l-2.121 2.12M9 9 7.586 7.586M9 9l1.414 1.414m-3.535.707-1.415 1.414m1.415-1.414L5.464 9.707m1.415 1.414 1.414 1.414m5.657 1.415c-4.243 4.242-11.314 2.828-12.021 2.12-.707-.706-2.121-7.777 2.121-12.02C8.293-.193 15.364 1.222 16.071 1.93c.707.707 2.121 7.778-2.121 12.02Z"/>
</svg>
