<svg xmlns="http://www.w3.org/2000/svg" width="24" height="24" fill="none" viewBox="0 0 24 24">
  <path stroke="#000" stroke-linecap="round" stroke-linejoin="round" stroke-width="2" d="M8.938 6.6c0 .955.375 1.87 1.043 2.546A3.544 3.544 0 0 0 12.5 10.2c.945 0 1.851-.38 2.52-1.054A3.62 3.62 0 0 0 16.062 6.6a3.62 3.62 0 0 0-1.044-2.546A3.544 3.544 0 0 0 12.5 3c-.945 0-1.851.38-2.52 1.054A3.62 3.62 0 0 0 8.938 6.6Zm5.937 10.8c0 .955.375 1.87 1.043 2.546A3.544 3.544 0 0 0 18.438 21c.944 0 1.85-.38 2.519-1.054A3.62 3.62 0 0 0 22 17.4a3.62 3.62 0 0 0-1.043-2.546 3.544 3.544 0 0 0-2.52-1.054c-.944 0-1.85.38-2.519 1.054a3.62 3.62 0 0 0-1.043 2.546ZM3 17.4a3.633 3.633 0 0 0 1.043 2.546 3.53 3.53 0 0 0 5.038 0 3.603 3.603 0 0 0 1.044-2.546 3.632 3.632 0 0 0-1.043-2.546 3.53 3.53 0 0 0-5.038 0A3.603 3.603 0 0 0 3 17.4Z"/>
</svg>
