<svg xmlns="http://www.w3.org/2000/svg" width="16" height="20" fill="none" viewBox="0 0 16 20">
  <path fill="#000" d="m3.668 4.986.996.083-.996-.083Zm8.664 0 .997-.083-.997.083Zm1.556 4.768-.8.6.8-.6Zm-1.412-3.04.997-.084-.997.083Zm-8.952 0-.997-.084.997.083Zm-1.412 3.04-.8-.601.8.6Zm1.556-4.768.996.083A3.347 3.347 0 0 1 8 2V0a5.347 5.347 0 0 0-5.329 4.903l.997.083Zm-.144 1.727.996.083.144-1.727-.996-.083-.997-.083-.144 1.727.997.083ZM1 13h1c0-.961.327-1.868.911-2.645l-.8-.601-.798-.601C.49 10.247 0 11.569 0 13h1Zm7 6v-1c-3.464 0-6-2.378-6-5H0c0 4.005 3.732 7 8 7v-1Zm7-6h-1c0 2.622-2.536 5-6 5v2c4.268 0 8-2.995 8-7h-1Zm-1.112-3.246-.8.6c.585.778.912 1.685.912 2.646h2c0-1.43-.49-2.753-1.313-3.847l-.799.6Zm-1.556-4.768-.996.083.144 1.727.996-.083.997-.083-.144-1.727-.997.083ZM8 1v1a3.347 3.347 0 0 1 3.336 3.07l.996-.084.997-.083A5.347 5.347 0 0 0 8 0v1Zm5.888 8.754.8-.601c-.675-.897-1.146-1.695-1.215-2.523l-.997.083-.996.083c.12 1.44.915 2.636 1.609 3.559l.8-.601ZM3.524 6.714l-.997-.084c-.069.828-.54 1.626-1.214 2.523l.799.6.8.602C3.604 9.432 4.4 8.237 4.52 6.796l-.996-.083ZM11 13h-1a2 2 0 0 1-2 2v2a4 4 0 0 0 4-4h-1Zm-3 3v-1a2 2 0 0 1-2-2H4a4 4 0 0 0 4 4v-1Zm-3-3h1a2 2 0 0 1 2-2V9a4 4 0 0 0-4 4h1Zm3-3v1a2 2 0 0 1 2 2h2a4 4 0 0 0-4-4v1Z"/>
</svg>
