<svg xmlns="http://www.w3.org/2000/svg" width="20" height="20" fill="none" viewBox="0 0 20 20">
  <path stroke="#000" stroke-linecap="round" stroke-linejoin="round" stroke-width="2" d="M4 13V7l-1.684.561A1 1 0 0 1 1 6.613V3.618a1 1 0 0 1 .553-.894l1.336-.668A10 10 0 0 1 7.36 1H8M4 13a6 6 0 0 0 3.426 5.421M4 13h.5a3.5 3.5 0 0 1 2.926 5.421M16 13V7l1.684.561A1 1 0 0 0 19 6.613V3.618a1 1 0 0 0-.553-.894l-1.335-.668A10 10 0 0 0 12.639 1H12m4 12a6 6 0 0 1-3.426 5.421M16 13h-.5a3.5 3.5 0 0 0-2.926 5.421m-5.148 0c.78.371 1.653.579 2.574.579.921 0 1.794-.208 2.574-.579M8 1h4M8 1v1a2 2 0 1 0 4 0V1M7.438 9.454a1.479 1.479 0 0 1 0-2.1c.583-.58 1.53-.396 2.114.185l.448.445.448-.445c.584-.58 1.53-.766 2.114-.186.584.58.584 1.52 0 2.1L10.705 11.3a1 1 0 0 1-1.41 0L7.438 9.454Z"/>
</svg>
