<svg xmlns="http://www.w3.org/2000/svg" width="20" height="20" fill="none" viewBox="0 0 20 20">
  <path stroke="#000" stroke-linecap="round" stroke-linejoin="round" stroke-width="2" d="M7.879 10.707a7.778 7.778 0 0 1-1.197-1.58m-1.632 4.41a7.587 7.587 0 0 1-.972-1.213m6.63-4.444a7.768 7.768 0 0 1-1.184-1.556m4.012-1.273a7.559 7.559 0 0 1-.94-1.162m-8.518 8.435c-1.82 2.57-2.615 4.697-1.856 5.455 1.171 1.172 5.604-1.36 9.9-5.657 4.295-4.295 6.828-8.728 5.656-9.9-.731-.73-2.734-.018-5.182 1.667m-8.518 8.435a33.075 33.075 0 0 1 2.604-3.195m0 0a40.235 40.235 0 0 1 2.842-2.805m0 0a31.607 31.607 0 0 1 3.072-2.435"/>
</svg>
