<svg xmlns="http://www.w3.org/2000/svg" width="20" height="20" fill="none" viewBox="0 0 20 20">
  <path stroke="#000" stroke-linecap="round" stroke-linejoin="round" stroke-width="2" d="M1.014 9.5a8.978 8.978 0 0 1 6.865 2.621 8.978 8.978 0 0 1 2.622 6.865M1.014 9.5a8.978 8.978 0 0 0 2.622 6.865 8.977 8.977 0 0 0 6.865 2.622M1.014 9.5a8.966 8.966 0 0 1 2.622-5.863 8.966 8.966 0 0 1 5.863-2.622m1.002 17.972a8.967 8.967 0 0 0 5.863-2.622 8.967 8.967 0 0 0 2.622-5.863m0 0a8.978 8.978 0 0 1-6.865-2.622A8.978 8.978 0 0 1 9.5 1.014m9.487 9.487a8.978 8.978 0 0 0-2.622-6.865A8.978 8.978 0 0 0 9.5 1.014m-5.156 10.4 1.414-2.121m2.829 6.364 2.121-1.414m-4.243-.707 2.122-2.122m2.828-7.07L9.293 5.756m6.364 2.829-1.415 2.121m-.707-4.243-2.12 2.122"/>
</svg>
