<svg xmlns="http://www.w3.org/2000/svg" width="20" height="20" fill="none" viewBox="0 0 20 20">
  <path stroke="#000" stroke-linecap="round" stroke-linejoin="round" stroke-width="2" d="M19 10a8.977 8.977 0 0 1-3 6.708M19 10a8.977 8.977 0 0 0-3-6.708M19 10s-5 1-9 1-9-1-9-1m9 9a8.967 8.967 0 0 1-6-2.292M10 19a8.966 8.966 0 0 0 6-2.292M10 19V1m-9 9a8.978 8.978 0 0 1 3-6.708M1 10a8.977 8.977 0 0 0 3 6.708M10 1a8.966 8.966 0 0 0-6 2.292M10 1c2.305 0 4.408.867 6 2.292m-12 0A8.978 8.978 0 0 1 7 10a8.977 8.977 0 0 1-3 6.708m12 0A8.978 8.978 0 0 1 13 10a8.978 8.978 0 0 1 3-6.708"/>
</svg>
