<svg xmlns="http://www.w3.org/2000/svg" width="24" height="24" fill="none" viewBox="0 0 24 24">
  <path fill="#000" d="M6 19a1 1 0 1 0 0-2v2Zm-4-3H1h1ZM4 6V5v1Zm3.19 1a1 1 0 0 0 0-2v2ZM15 5a1 1 0 1 0 0 2V5Zm2 1V5v1Zm-3.19 11a1 1 0 1 0 0 2v-2ZM21 14a1 1 0 1 0 2 0h-2Zm2-4a1 1 0 1 0-2 0h2ZM8.668 17.445a1 1 0 0 0 1.664 1.11l-1.664-1.11ZM13.5 12l.832.555A1 1 0 0 0 13.5 11v1Zm-6 0-.832-.555A1 1 0 0 0 7.5 13v-1Zm4.832-5.445a1 1 0 0 0-1.664-1.11l1.664 1.11ZM6 18v-1H4v2h2v-1Zm-2 0v-1a1 1 0 0 1-.707-.293l-.707.707-.707.707A3 3 0 0 0 4 19v-1Zm-1.414-.586.707-.707A1 1 0 0 1 3 16H1a3 3 0 0 0 .879 2.121l.707-.707ZM2 16h1V8H1v8h1Zm0-8h1a1 1 0 0 1 .293-.707l-.707-.707-.707-.707A3 3 0 0 0 1 8h1Zm.586-1.414.707.707A1 1 0 0 1 4 7V5a3 3 0 0 0-2.121.879l.707.707ZM4 6v1h3.19V5H4v1Zm11 0v1h2V5h-2v1Zm2 0v1a1 1 0 0 1 .707.293l.707-.707.707-.707A3 3 0 0 0 17 5v1Zm1.414.586-.707.707A1 1 0 0 1 18 8h2a3 3 0 0 0-.879-2.121l-.707.707ZM19 8h-1v8h2V8h-1Zm0 8h-1a1 1 0 0 1-.293.707l.707.707.707.707A3 3 0 0 0 20 16h-1Zm-.586 1.414-.707-.707A1 1 0 0 1 17 17v2a3 3 0 0 0 2.121-.879l-.707-.707ZM17 18v-1h-3.19v2H17v-1Zm5-4h1v-4h-2v4h1ZM9.5 18l.832.555 4-6L13.5 12l-.832-.555-4 6L9.5 18Zm4-6v-1h-6v2h6v-1Zm-6 0 .832.555 4-6L11.5 6l-.832-.555-4 6L7.5 12Z"/>
</svg>
