<svg xmlns="http://www.w3.org/2000/svg" width="24" height="24" fill="none" viewBox="0 0 24 24">
  <path fill="#000" d="M3 17a1 1 0 1 0 0 2v-2Zm18 2a1 1 0 1 0 0-2v2Zm-6.405 2.502a1 1 0 1 0-1.73-1.004l1.73 1.004Zm-3.46-1.004a1 1 0 1 0-1.73 1.004l1.73-1.004ZM3 18v1h18v-2H3v1Zm10.73 3-.866-.502a.999.999 0 0 1-.365.365l.499.867.499.866a3 3 0 0 0 1.098-1.094L13.729 21Zm-.732.73-.5-.867a1 1 0 0 1-.498.134v2a3 3 0 0 0 1.497-.4l-.5-.867Zm-.998.267v-1a1 1 0 0 1-.5-.134l-.499.867-.499.866a3 3 0 0 0 1.497.4v-1Zm-1-.267.5-.867a1 1 0 0 1-.367-.365L10.27 21l-.865.502c.263.454.642.832 1.097 1.094l.5-.866ZM5 9h1a6 6 0 0 1 6-6V1a8 8 0 0 0-8 8h1Zm7-7v1a6 6 0 0 1 6 6h2a8 8 0 0 0-8-8v1ZM5 9H4v9h2V9H5Zm14 0h-1v9h2V9h-1Z"/>
</svg>
