<svg xmlns="http://www.w3.org/2000/svg" width="24" height="24" fill="none" viewBox="0 0 24 24">
  <path stroke="#000" stroke-linecap="round" stroke-linejoin="round" stroke-width="2" d="M14 21a2.186 2.186 0 0 1-.846.732A2.588 2.588 0 0 1 12 22c-.405 0-.803-.092-1.154-.268A2.186 2.186 0 0 1 10 21m7-4H3s3-2.048 3-9.218a6.138 6.138 0 0 1 .203-1.58M19 13a17.796 17.796 0 0 1-.633-4.996 5.974 5.974 0 0 0-.853-3.084 6.012 6.012 0 0 0-2.324-2.21A6.048 6.048 0 0 0 9 3.008M2 2l4.203 4.203M22 22 6.203 6.203"/>
</svg>
