<svg xmlns="http://www.w3.org/2000/svg" width="24" height="24" fill="none" viewBox="0 0 24 24">
  <path fill="#000" d="M5.412 15.191a1 1 0 1 0 1.176 1.618L5.412 15.19ZM11.5 12h1a1 1 0 0 0-1.588-.809L11.5 12Zm0-10 .61-.793A1 1 0 0 0 10.5 2h1ZM18 7l.581.814a1 1 0 0 0 .029-1.607L18 7Zm-7.5-.57a1 1 0 1 0 2 0h-2Zm3.419 2.256a1 1 0 1 0 1.162 1.628L13.92 8.686ZM11.5 22h-1a1 1 0 0 0 1.6.8l-.6-.8ZM2.707 1.293a1 1 0 0 0-1.414 1.414l1.414-1.414Zm18.586 21.414a1 1 0 0 0 1.414-1.414l-1.414 1.414ZM6 16l.588.809 5.5-4L11.5 12l-.588-.809-5.5 4L6 16Zm5.5-14-.61.793 6.5 5L18 7l.61-.793-6.5-5L11.5 2Zm0 4.43h1V2h-2v4.43h1ZM18 7l-.581-.814-3.5 2.5.581.814.581.814 3.5-2.5L18 7Zm-.5 10.5-.6-.8-6 4.5.6.8.6.8 6-4.5-.6-.8Zm-6 4.5h1V12h-2v10h1ZM2 2l-.707.707 20 20L22 22l.707-.707-20-20L2 2Z"/>
</svg>
