<svg xmlns="http://www.w3.org/2000/svg" width="20" height="20" fill="none" viewBox="0 0 20 20">
  <path stroke="#000" stroke-linecap="round" stroke-linejoin="round" stroke-width="2" d="M7 10a3 3 0 0 0 3 3m0 0a3 3 0 0 0 3-3m-3 3v4m0-4V3m0 14a2 2 0 1 1-3.92-.563 2.5 2.5 0 0 1-3.512-3.524M10 17a2 2 0 1 0 3.92-.563 2.5 2.5 0 0 0 3.513-3.524M10 3a2 2 0 0 0-3.947-.46M10 3a2 2 0 0 1 3.947-.46m-7.894 0a2.5 2.5 0 0 0-3.485 3.546m3.485-3.545A2.006 2.006 0 0 0 7 4.732M2.568 6.086A4.49 4.49 0 0 0 1 9.5a4.49 4.49 0 0 0 1.568 3.414m0-6.828A2.495 2.495 0 0 0 4.5 7m-1.932 5.914A2.495 2.495 0 0 1 4.5 12m9.447-9.46a2.5 2.5 0 0 1 3.485 3.546m-3.485-3.545A2.003 2.003 0 0 1 13 4.732m4.432 1.354A4.49 4.49 0 0 1 19 9.5a4.49 4.49 0 0 1-1.568 3.414m0-6.828A2.495 2.495 0 0 1 15.5 7m1.932 5.914A2.495 2.495 0 0 0 15.5 12"/>
</svg>
