<svg xmlns="http://www.w3.org/2000/svg" width="24" height="24" fill="none" viewBox="0 0 24 24">
  <path fill="#000" d="M2.324 11.054a1 1 0 0 0-.648 1.892l.648-1.892Zm19.994 1.894a1 1 0 0 0-.636-1.896l.636 1.896ZM4 7v1h16V6H4v1Zm18 2h-1v10h2V9h-1Zm-2 12v-1H4v2h16v-1ZM2 19h1V9H1v10h1Zm2 2v-1a1 1 0 0 1-1-1H1a3 3 0 0 0 3 3v-1Zm18-2h-1a1 1 0 0 1-1 1v2a3 3 0 0 0 3-3h-1ZM20 7v1a1 1 0 0 1 1 1h2a3 3 0 0 0-3-3v1ZM4 7V6a3 3 0 0 0-3 3h2a1 1 0 0 1 1-1V7Zm6-4v1h4V2h-4v1Zm6 2h-1v2h2V5h-1ZM8 7h1V5H7v2h1Zm6-4v1a1 1 0 0 1 1 1h2a3 3 0 0 0-3-3v1Zm-4 0V2a3 3 0 0 0-3 3h2a1 1 0 0 1 1-1V3Zm-8 9-.324.946c3.957 1.357 7.104 2.053 10.298 2.049 3.192-.005 6.356-.71 10.344-2.047L22 12l-.318-.948c-3.894 1.305-6.826 1.939-9.71 1.943-2.884.004-5.795-.62-9.648-1.941L2 12Z"/>
</svg>
