<svg xmlns="http://www.w3.org/2000/svg" width="24" height="24" fill="none" viewBox="0 0 24 24">
  <path fill="#000" d="M2 15a1 1 0 1 0 0 2v-2Zm20 2a1 1 0 1 0 0-2v2Zm-10-5a1 1 0 1 0 0 2v-2Zm.01 2a1 1 0 1 0 0-2v2ZM2 16v1h20v-2H2v1Zm10-3v1h.01v-2H12v1ZM4 7v1h16V6H4v1Zm18 2h-1v10h2V9h-1Zm-2 12v-1H4v2h16v-1ZM2 19h1V9H1v10h1Zm2 2v-1a1 1 0 0 1-1-1H1a3 3 0 0 0 3 3v-1Zm18-2h-1a1 1 0 0 1-1 1v2a3 3 0 0 0 3-3h-1ZM20 7v1a1 1 0 0 1 1 1h2a3 3 0 0 0-3-3v1ZM4 7V6a3 3 0 0 0-3 3h2a1 1 0 0 1 1-1V7Zm6-4v1h4V2h-4v1Zm6 2h-1v2h2V5h-1ZM8 7h1V5H7v2h1Zm6-4v1a1 1 0 0 1 1 1h2a3 3 0 0 0-3-3v1Zm-4 0V2a3 3 0 0 0-3 3h2a1 1 0 0 1 1-1V3Z"/>
</svg>
