<svg xmlns="http://www.w3.org/2000/svg" width="24" height="24" fill="none" viewBox="0 0 24 24">
  <path fill="#000" d="m2.639 9.884-.707-.707.707.707Zm6.097-6.098L8.03 3.08l.707.707Zm3.084 0-.707.708.707-.708Zm.36.36.707-.707-.707.707Zm3.084 0-.708-.707.708.707Zm1.506-1.507.708.707-.708-.707Zm3.084 0-.707.707.707-.707Zm1.507 1.507.707-.707-.707.707Zm0 3.084.707.707-.707-.707Zm-1.507 1.506-.707-.707.707.707Zm0 3.084-.707.707.707-.707Zm.36.36.707-.707-.707.707Zm0 3.084.707.707-.707-.707Zm-6.098 6.097.707.707-.707-.707Zm-3.084 0 .707-.707-.707.707Zm-8.393-8.393-.707.707.707-.707Zm5.568.24a1 1 0 1 0-1.414-1.415l1.414 1.414Zm4 4a1 1 0 0 0-1.414-1.415l1.414 1.414ZM2.64 9.883l.707.707 6.098-6.097-.708-.708-.707-.707-6.097 6.098.707.707Zm9.181-6.098-.707.708.36.359.707-.707.707-.707-.36-.36-.707.707Zm3.444.36.707.707 1.507-1.507-.708-.707-.707-.707-1.507 1.507.708.707Zm4.59-1.507-.707.707 1.507 1.507.707-.707.707-.707-1.507-1.507-.707.707Zm1.507 4.59-.707-.707-1.507 1.507.707.707.707.708 1.507-1.507-.707-.707Zm-1.507 4.591-.707.707.36.36.707-.707.707-.707-.36-.36-.707.707Zm.36 3.444-.707-.708-6.098 6.098.707.707.707.707 6.098-6.097-.707-.707Zm-9.182 6.097.707-.707-8.393-8.393-.707.707-.707.707 8.393 8.393.707-.707Zm3.084 0-.707-.707a1.18 1.18 0 0 1-1.67 0l-.707.707-.707.707a3.18 3.18 0 0 0 4.498 0l-.707-.707Zm6.098-9.181-.707.707a1.18 1.18 0 0 1 0 1.67l.707.707.707.707a3.18 3.18 0 0 0 0-4.498l-.707.707Zm-.36-3.444-.707-.707a3.18 3.18 0 0 0 0 4.498l.707-.707.707-.707a1.18 1.18 0 0 1 0-1.67l-.707-.707Zm1.507-4.59-.707.707a1.18 1.18 0 0 1 0 1.67l.707.707.707.707a3.18 3.18 0 0 0 0-4.498l-.707.707Zm-4.59-1.507.707.707a1.18 1.18 0 0 1 1.67 0l.706-.707.707-.707a3.18 3.18 0 0 0-4.498 0l.707.707ZM12.18 4.146l-.707.707a3.18 3.18 0 0 0 4.498 0l-.707-.707-.708-.707a1.18 1.18 0 0 1-1.67 0l-.706.707Zm-3.444-.36.708.708a1.18 1.18 0 0 1 1.67 0l.706-.708.707-.707a3.18 3.18 0 0 0-4.498 0l.707.707ZM2.64 9.884l-.707-.707a3.18 3.18 0 0 0 0 4.498l.707-.707.707-.707a1.18 1.18 0 0 1 0-1.67l-.707-.707Zm3.62-3.623-.707.708L17.03 18.446l.708-.707.707-.708L6.969 5.554l-.708.707ZM7.5 12.5l-.707-.707-2.665 2.665.707.707.707.707 2.665-2.665L7.5 12.5Zm4 4-.707-.707-2.665 2.665.707.707.707.707 2.665-2.665-.707-.707Z"/>
</svg>
