<svg xmlns="http://www.w3.org/2000/svg" width="24" height="24" fill="none" viewBox="0 0 24 24">
  <path fill="#000" d="M2 22H1a1 1 0 0 0 1 1v-1Zm0-4H1h1ZM18.668 2.572l.707.707-.707-.707Zm.633-.423.382.923-.382-.923Zm1.494 0-.383.923.383-.923Zm1.056 1.056.924-.383-.924.383Zm-.423 2.127.707.707-.707-.707ZM6.381 13.444a1 1 0 1 0 1.414 1.414l-1.414-1.414Zm2.76 2.76a1 1 0 1 0 1.415 1.414l-1.414-1.414ZM11 10l-.707.707 3 3L14 13l.707-.707-3-3L11 10ZM2 22h1v-4H1v4h1Zm0-4h1a3 3 0 0 1 .506-1.667l-.832-.555-.831-.556A5 5 0 0 0 1 18h1Zm.674-2.222.832.555a3 3 0 0 1 1.346-1.105l-.383-.923-.382-.924a5 5 0 0 0-2.244 1.841l.831.556Zm1.795-1.473.383.923a3 3 0 0 1 1.733-.17l.195-.981.195-.98a5 5 0 0 0-2.888.284l.382.924Zm2.311-.228-.195.98a3 3 0 0 1 1.536.822l.707-.707.708-.708a5 5 0 0 0-2.56-1.368l-.196.98Zm2.048 1.095-.707.707a3 3 0 0 1 .821 1.536l.981-.195.98-.195a5 5 0 0 0-1.367-2.56l-.708.707Zm1.095 2.048-.98.195a3 3 0 0 1-.171 1.733l.924.383.923.382a5 5 0 0 0 .285-2.889l-.98.196Zm-.227 2.31-.924-.382a3 3 0 0 1-1.105 1.346l.555.832.556.831a5 5 0 0 0 1.841-2.244l-.923-.382Zm-1.474 1.796-.555-.832A3 3 0 0 1 6 21v2a5 5 0 0 0 2.778-.843l-.556-.831ZM6 22v-1H2v2h4v-1ZM18.668 2.572l.707.707a.952.952 0 0 1 .308-.207l-.382-.923-.383-.924a2.952 2.952 0 0 0-.958.64l.707.707Zm.633-.423.382.923A.952.952 0 0 1 20.048 3V1a2.94 2.94 0 0 0-1.13.225l.383.924ZM20.048 2v1c.125 0 .249.025.364.072l.383-.923.382-.924A2.952 2.952 0 0 0 20.047 1v1Zm.747.149-.383.923c.116.048.22.118.309.207l.707-.707.707-.707a2.951 2.951 0 0 0-.958-.64l-.382.924Zm.633.423-.707.707a.951.951 0 0 1 .206.309l.924-.383.924-.383a2.951 2.951 0 0 0-.64-.957l-.707.707Zm.423.633-.924.383a.946.946 0 0 1 .073.364h2c0-.388-.077-.772-.225-1.13l-.924.383Zm.149.747h-1a.95.95 0 0 1-.073.364l.924.383.924.383c.148-.358.225-.742.225-1.13h-1Zm-.149.747-.924-.383a.951.951 0 0 1-.206.31l.707.706.707.707c.274-.274.492-.6.64-.957l-.924-.383ZM7.088 14.151l.707.707 11.58-11.58-.707-.706-.708-.707L6.381 13.444l.707.707Zm14.34-8.819-.707-.707-11.58 11.58.708.706.707.707L22.136 6.04l-.708-.707Z"/>
</svg>
