<svg xmlns="http://www.w3.org/2000/svg" width="24" height="24" fill="none" viewBox="0 0 24 24">
  <path fill="#000" d="M19 14a1 1 0 1 0 0 2v-2Zm3 2a1 1 0 1 0 0-2v2Zm-3.341-6a1 1 0 1 0 0 2v-2ZM22 12a1 1 0 1 0 0-2v2Zm-3.803 6a1 1 0 1 0 0 2v-2ZM22 20a1 1 0 1 0 0-2v2ZM2 14a1 1 0 1 0 0 2v-2Zm0-4a1 1 0 1 0 0 2v-2Zm0 8a1 1 0 1 0 0 2v-2Zm11-3a1 1 0 1 0-2 0h2Zm-2-8v1h2V6h-2v1Zm8 6h-1v3h2v-3h-1Zm-6 9v-1h-2v2h2v-1Zm-8-6h1v-3H4v3h1Zm6 6v-1a5 5 0 0 1-5-5H4a7 7 0 0 0 7 7v-1Zm8-6h-1a5 5 0 0 1-5 5v2a7 7 0 0 0 7-7h-1Zm-6-9v1a5 5 0 0 1 5 5h2a7 7 0 0 0-7-7v1Zm-2 0V6a7 7 0 0 0-7 7h2a5 5 0 0 1 5-5V7Zm8 8v1h3v-2h-3v1Zm-.341-4v1H22v-2h-3.341v1Zm-.462 8v1H22v-2h-3.803v1ZM2 15v1h3v-2H2v1Zm0-4v1h3.341v-2H2v1Zm0 8v1h3.803v-2H2v1ZM9 5h1a2 2 0 0 1 2-2V1a4 4 0 0 0-4 4h1Zm3-3v1a2 2 0 0 1 2 2h2a4 4 0 0 0-4-4v1Zm0 20h1v-7h-2v7h1ZM9 5H8v2.341h2V5H9Zm6 0h-1v2.341h2V5h-1Z"/>
</svg>
