<svg xmlns="http://www.w3.org/2000/svg" width="12" height="20" fill="none" viewBox="0 0 12 20">
  <path stroke="#000" stroke-linecap="round" stroke-linejoin="round" stroke-width="2" d="M10.476 3.02A3.999 3.999 0 0 0 7 1H5a4 4 0 0 0-3.666 2.398m9.142-.379A3.99 3.99 0 0 1 11 5v10c0 .72-.19 1.397-.524 1.98m0-13.96A6.999 6.999 0 0 0 5 6.391m5.476 10.589A3.999 3.999 0 0 1 7 19H5a4 4 0 0 1-3.666-2.398m9.142.379A6.999 6.999 0 0 1 5 13.608M1.334 3.398A3.986 3.986 0 0 0 1 5v10c0 .57.119 1.111.334 1.602m0-13.204A7.022 7.022 0 0 1 5 6.392m-3.666 10.21A7.022 7.022 0 0 0 5 13.608m0-7.216A6.967 6.967 0 0 0 4 10c0 1.32.365 2.554 1 3.608M4.29 8H7m-2.71 4H7"/>
</svg>
