<svg xmlns="http://www.w3.org/2000/svg" width="24" height="24" fill="none" viewBox="0 0 24 24">
  <path fill="#000" d="M20 11a1 1 0 1 0 2 0h-2ZM9 2a1 1 0 0 0-2 0h2ZM7 6a1 1 0 0 0 2 0H7Zm10-4a1 1 0 1 0-2 0h2Zm-2 4a1 1 0 1 0 2 0h-2Zm-3 17a1 1 0 1 0 0-2v2Zm5-3v1-1Zm3-3h1-1Zm.293 4.707a1 1 0 0 0 1.414-1.414l-1.414 1.414ZM6 4v1h2V3H6v1Zm2 0v1h8V3H8v1Zm8 0v1h2V3h-2v1Zm5 3h-1v3h2V7h-1Zm0 3h-1v1h2v-1h-1ZM3 19h1v-9H2v9h1Zm0-9h1V7H2v3h1Zm3 12v-1a2 2 0 0 1-2-2H2a4 4 0 0 0 4 4v-1ZM18 4v1a2 2 0 0 1 2 2h2a4 4 0 0 0-4-4v1ZM6 4V3a4 4 0 0 0-4 4h2a2 2 0 0 1 2-2V4Zm-3 6v1h18V9H3v1Zm5-8H7v2h2V2H8Zm0 2H7v2h2V4H8Zm8-2h-1v2h2V2h-1Zm0 2h-1v2h2V4h-1Zm-4 18v-1H6v2h6v-1Zm2-5h-1a4 4 0 0 0 1.172 2.828l.707-.707.707-.707A2 2 0 0 1 15 17h-1Zm.879 2.121-.707.707A4 4 0 0 0 17 21v-2a2 2 0 0 1-1.414-.586l-.707.707ZM17 20v1a4 4 0 0 0 2.828-1.172l-.707-.707-.707-.707A2 2 0 0 1 17 19v1Zm2.121-.879.707.707A4 4 0 0 0 21 17h-2a2 2 0 0 1-.586 1.414l.707.707ZM20 17h1a4 4 0 0 0-1.172-2.828l-.707.707-.707.707A2 2 0 0 1 19 17h1Zm-.879-2.121.707-.707A4 4 0 0 0 17 13v2a2 2 0 0 1 1.414.586l.707-.707ZM17 14v-1a4 4 0 0 0-2.828 1.172l.707.707.707.707A2 2 0 0 1 17 15v-1Zm-2.121.879-.707-.707A4 4 0 0 0 13 17h2a2 2 0 0 1 .586-1.414l-.707-.707Zm4.242 4.242-.707.707 1.88 1.88L21 21l.707-.707-1.879-1.879-.707.707Z"/>
</svg>
