<svg xmlns="http://www.w3.org/2000/svg" width="24" height="24" fill="none" viewBox="0 0 24 24">
  <path fill="#000" d="M20 12a1 1 0 1 0 2 0h-2ZM9 2a1 1 0 0 0-2 0h2ZM7 6a1 1 0 0 0 2 0H7Zm10-4a1 1 0 1 0-2 0h2Zm-2 4a1 1 0 1 0 2 0h-2Zm-4 17a1 1 0 1 0 0-2v2Zm10.707-6.293a1 1 0 0 0-1.414-1.414l1.414 1.414ZM16 21l-.707.707a1 1 0 0 0 1.414 0L16 21Zm-1.293-2.707a1 1 0 0 0-1.414 1.414l1.414-1.414ZM6 4v1h2V3H6v1Zm2 0v1h8V3H8v1Zm8 0v1h2V3h-2v1Zm5 3h-1v3h2V7h-1Zm0 3h-1v2h2v-2h-1ZM3 19h1v-9H2v9h1Zm0-9h1V7H2v3h1Zm3 12v-1a2 2 0 0 1-2-2H2a4 4 0 0 0 4 4v-1ZM18 4v1a2 2 0 0 1 2 2h2a4 4 0 0 0-4-4v1ZM6 4V3a4 4 0 0 0-4 4h2a2 2 0 0 1 2-2V4Zm-3 6v1h18V9H3v1Zm5-8H7v2h2V2H8Zm0 2H7v2h2V4H8Zm8-2h-1v2h2V2h-1Zm0 2h-1v2h2V4h-1Zm-5 18v-1H6v2h5v-1Zm10-6-.707-.707-5 5L16 21l.707.707 5-5L21 16Zm-5 5 .707-.707-2-2L14 19l-.707.707 2 2L16 21Z"/>
</svg>
