<svg xmlns="http://www.w3.org/2000/svg" width="24" height="24" fill="none" viewBox="0 0 24 24">
  <path fill="#000" d="M9 2a1 1 0 0 0-2 0h2ZM7 6a1 1 0 0 0 2 0H7Zm10-4a1 1 0 1 0-2 0h2Zm-2 4a1 1 0 1 0 2 0h-2ZM6 4v1h12V3H6v1Zm15 3h-1v12h2V7h-1Zm-3 15v-1H6v2h12v-1ZM3 19h1V7H2v12h1Zm3 3v-1a2 2 0 0 1-2-2H2a4 4 0 0 0 4 4v-1Zm15-3h-1a2 2 0 0 1-2 2v2a4 4 0 0 0 4-4h-1ZM18 4v1a2 2 0 0 1 2 2h2a4 4 0 0 0-4-4v1ZM6 4V3a4 4 0 0 0-4 4h2a2 2 0 0 1 2-2V4Zm-3 6v1h18V9H3v1Zm5-8H7v4h2V2H8Zm8 0h-1v4h2V2h-1Zm-5 14h-1a2 2 0 0 0 .586 1.414l.707-.707L12 16h-1Zm.293.707-.707.707A2 2 0 0 0 12 18v-2l-.707.707ZM12 17v1a2 2 0 0 0 1.414-.586l-.707-.707L12 16v1Zm.707-.293.707.707A2 2 0 0 0 14 16h-2l.707.707ZM13 16h1a2 2 0 0 0-.586-1.414l-.707.707L12 16h1Zm-.293-.707.707-.707A2 2 0 0 0 12 14v2l.707-.707ZM12 15v-1a2 2 0 0 0-1.414.586l.707.707L12 16v-1Zm-.707.293-.707-.707A2 2 0 0 0 10 16h2l-.707-.707Z"/>
</svg>
