<svg xmlns="http://www.w3.org/2000/svg" width="24" height="24" fill="none" viewBox="0 0 24 24">
  <path stroke="#000" stroke-linecap="round" stroke-linejoin="round" stroke-width="2" d="M22 18V9a2 2 0 0 0-2-2h-1.93a2 2 0 0 1-1.664-.89l-.812-1.22A2 2 0 0 0 13.93 4h-3.86a2 2 0 0 0-1.664.89l-.812 1.22A2 2 0 0 1 5.93 7H4a2 2 0 0 0-2 2v9a2 2 0 0 0 2 2h16a2 2 0 0 0 2-2Z"/>
  <path stroke="#000" stroke-linecap="round" stroke-linejoin="round" stroke-width="2" d="M12 16a3 3 0 1 0 0-6 3 3 0 0 0 0 6Z"/>
</svg>
