<svg xmlns="http://www.w3.org/2000/svg" width="24" height="24" fill="none" viewBox="0 0 24 24">
  <path fill="#000" d="m16.406 6.11.832-.555-.832.554Zm-.812-1.22-.832.555.832-.554ZM9.5 3a1 1 0 0 0 0 2V3ZM20 21a1 1 0 1 0 0-2v2Zm1-4.5a1 1 0 1 0 2 0h-2Zm-6.171-.671a1 1 0 0 0-1.415-1.415l1.415 1.415Zm-4.243-4.243a1 1 0 0 0-1.414-1.414l1.414 1.414ZM2.707 1.293a1 1 0 0 0-1.414 1.414l1.414-1.414Zm18.586 21.414a1 1 0 0 0 1.414-1.414l-1.414 1.414ZM2 18h1V9H1v9h1ZM4 7v1h3V6H4v1Zm14.07 0v1H20V6h-1.93v1Zm-1.664-.89.832-.555-.812-1.22-.832.556-.832.554.812 1.22.832-.556ZM13.93 4V3H9.5v2h4.43V4ZM20 20v-1H4v2h16v-1Zm2-11h-1v7.5h2V9h-1Zm-3.93-2V6a1 1 0 0 1-.832-.445l-.832.554-.832.555A3 3 0 0 0 18.07 8V7ZM2 18H1a3 3 0 0 0 3 3v-2a1 1 0 0 1-1-1H2ZM15.594 4.89l.832-.554A3 3 0 0 0 13.93 3v2a1 1 0 0 1 .832.445l.832-.554ZM20 7v1a1 1 0 0 1 1 1h2a3 3 0 0 0-3-3v1ZM2 9h1a1 1 0 0 1 1-1V6a3 3 0 0 0-3 3h1Zm12.121 6.121-.707-.707a2 2 0 0 1-2.828 0l-.707.707-.707.708a4 4 0 0 0 5.657 0l-.708-.708Zm-4.242 0 .707-.707a2 2 0 0 1 0-2.828l-.707-.707-.707-.707a4 4 0 0 0 0 5.657l.707-.708ZM2 2l-.707.707 20 20L22 22l.707-.707-20-20L2 2Z"/>
</svg>
