<svg xmlns="http://www.w3.org/2000/svg" width="24" height="24" fill="none" viewBox="0 0 24 24">
  <path fill="#000" d="m2 10-.868-.496A1 1 0 0 0 1 10h1Zm20 0h1a1 1 0 0 0-.132-.496L22 10Zm-3.424-5.992.868-.496-.868.496Zm-13.152 0-.868-.496.868.496ZM4 19H3h1Zm1-6a1 1 0 1 0 0 2v-2Zm2 2a1 1 0 1 0 0-2v2Zm10-2a1 1 0 1 0 0 2v-2Zm2 2a1 1 0 1 0 0-2v2ZM2 10v1h20V9H2v1Zm20 0h-1v6h2v-6h-1Zm-2 8v-1H4v2h16v-1ZM2 16h1v-6H1v6h1Zm0-6 .868.496 3.424-5.992-.868-.496-.868-.496-3.424 5.992L2 10Zm5.16-7v1h9.68V2H7.16v1Zm11.416 1.008-.868.496 3.424 5.992L22 10l.868-.496-3.424-5.992-.868.496ZM16.839 3v1a1 1 0 0 1 .869.504l.868-.496.868-.496A3 3 0 0 0 16.84 2v1ZM5.424 4.008l.868.496A1 1 0 0 1 7.161 4V2a3 3 0 0 0-2.605 1.512l.868.496ZM4 18v-1a1 1 0 0 1-1-1H1a3 3 0 0 0 3 3v-1Zm18-2h-1a1 1 0 0 1-1 1v2a3 3 0 0 0 3-3h-1ZM8 18H7v1h2v-1H8Zm-4 1h1v-1H3v1h1Zm2 2v-1a1 1 0 0 1-1-1H3a3 3 0 0 0 3 3v-1Zm2-2H7a1 1 0 0 1-1 1v2a3 3 0 0 0 3-3H8Zm12-1h-1v1h2v-1h-1Zm-4 1h1v-1h-2v1h1Zm2 2v-1a1 1 0 0 1-1-1h-2a3 3 0 0 0 3 3v-1Zm2-2h-1a1 1 0 0 1-1 1v2a3 3 0 0 0 3-3h-1ZM5 14v1h2v-2H5v1Zm12 0v1h2v-2h-2v1Z"/>
</svg>
