<svg xmlns="http://www.w3.org/2000/svg" width="24" height="24" fill="none" viewBox="0 0 24 24">
  <path fill="#000" d="m2 22-.985-.172a1 1 0 0 0 1.158 1.157L2 22Zm.988-5.66.985.172a1 1 0 0 0-.086-.61l-.899.438Zm4.662 4.667.442-.897a1 1 0 0 0-.615-.088l.173.985Zm1.118-6.647a1 1 0 1 0-1.536 1.28l1.536-1.28Zm8 1.28a1 1 0 1 0-1.536-1.28l1.536 1.28ZM22 12h-1a9 9 0 0 1-9 9v2c6.075 0 11-4.925 11-11h-1ZM2 12h1a9 9 0 0 1 9-9V1C5.925 1 1 5.925 1 12h1ZM12 2v1a9 9 0 0 1 9 9h2c0-6.075-4.925-11-11-11v1ZM2 22l.985.172.988-5.66-.985-.172-.985-.172-.988 5.66L2 22Zm0 0 .173.985 5.65-.993-.173-.985-.173-.985-5.65.993L2 22Zm.988-5.66.9-.438A8.784 8.784 0 0 1 3 12H1c0 1.72.378 3.319 1.09 4.778l.898-.438ZM12 22v-1c-1.437 0-2.717-.302-3.908-.89l-.442.897-.443.896C8.681 22.632 10.265 23 12 23v-1Zm-4-7-.768.64C8.516 17.181 10.234 18 12 18s3.484-.819 4.768-2.36L16 15l-.768-.64C14.294 15.485 13.122 16 12 16c-1.123 0-2.294-.515-3.232-1.64L8 15Z"/>
</svg>
