<svg xmlns="http://www.w3.org/2000/svg" width="20" height="20" fill="none" viewBox="0 0 20 20">
  <path stroke="#000" stroke-linecap="round" stroke-linejoin="round" stroke-width="2" d="M3.971 14.633a2.719 2.719 0 0 0 3.387-2.177l1.14-6.935-3.87-1.032-2.496 6.573m1.84 3.57a2.704 2.704 0 0 1-1.84-3.57m1.84 3.57-1.037 3.852m-.803-7.422 5.553-.597M1 17.968 4.87 19m11.159-4.425a2.719 2.719 0 0 1-3.387-2.177l-1.14-6.936 3.87-1.031 2.496 6.573m-1.84 3.57a2.704 2.704 0 0 0 1.84-3.57m-1.84 3.57 1.037 3.852m.803-7.422-5.553-.597M19 17.91l-3.87 1.032M10 1.997V1M4.993 1l1.001.997M15.007 1l-1.001.997"/>
</svg>
