<svg xmlns="http://www.w3.org/2000/svg" width="24" height="24" fill="none" viewBox="0 0 24 24">
  <path fill="#000" d="M13 7a1 1 0 1 0-2 0h2Zm-1 5h-1a1 1 0 0 0 .293.707L12 12Zm2.293 3.707a1 1 0 0 0 1.414-1.414l-1.414 1.414ZM16 18a1 1 0 1 0 0 2v-2Zm6 2a1 1 0 1 0 0-2v2Zm-1.071-6.86a1 1 0 0 0 1.984.25l-1.984-.25Zm-7.517 9.77a1 1 0 1 0-.254-1.984l.254 1.984ZM12 7h-1v5h2V7h-1Zm0 5-.707.707 3 3L15 15l.707-.707-3-3L12 12Zm4 7v1h6v-2h-6v1Zm-4 3v-1a9 9 0 0 1-9-9H1c0 6.075 4.925 11 11 11v-1ZM2 12h1a9 9 0 0 1 9-9V1C5.925 1 1 5.925 1 12h1ZM12 2v1a9 9 0 0 1 9 9h2c0-6.075-4.925-11-11-11v1Zm10 10h-1c0 .386-.024.767-.071 1.14l.992.125.992.125c.057-.456.087-.92.087-1.39h-1Zm-8.715 9.918-.127-.992A9.09 9.09 0 0 1 12 21v2c.478 0 .95-.03 1.412-.09l-.127-.992Z"/>
</svg>
