<svg xmlns="http://www.w3.org/2000/svg" width="24" height="24" fill="none" viewBox="0 0 24 24">
  <path fill="#000" d="M13 7a1 1 0 1 0-2 0h2Zm-1 5h-1a1 1 0 0 0 .293.707L12 12Zm2.293 3.707a1 1 0 0 0 1.414-1.414l-1.414 1.414ZM15 20l-.707-.707A1 1 0 0 0 14 20h1Zm4.581-4.581.707.707-.707-.707Zm2 2-.707-.707.707.707ZM17 21.999v1a1 1 0 0 0 .707-.292L17 22Zm-2 0h-1a1 1 0 0 0 1 1v-1Zm6.581-6.58.707-.707-.707.707ZM12 23a1 1 0 1 0 0-2v2Zm9-11a1 1 0 1 0 2 0h-2Zm-9-5h-1v5h2V7h-1Zm0 5-.707.707 3 3L15 15l.707-.707-3-3L12 12Zm3 8 .707.707 4.581-4.58-.707-.708-.707-.707-4.581 4.58L15 20Zm6.581-2.581-.707-.707-4.581 4.58L17 22l.707.707 4.581-4.58-.707-.708ZM17 21.999v-1h-2v2h2v-1Zm-2 0h1v-2h-2v2h1Zm6.581-6.58-.707.707a.414.414 0 0 1 0 .586l.707.707.707.707a2.414 2.414 0 0 0 0-3.414l-.707.707Zm-2 0 .707.707a.414.414 0 0 1 .586 0l.707-.707.707-.707a2.414 2.414 0 0 0-3.414 0l.707.707ZM12 22v-1a9 9 0 0 1-9-9H1c0 6.075 4.925 11 11 11v-1ZM2 12h1a9 9 0 0 1 9-9V1C5.925 1 1 5.925 1 12h1ZM12 2v1a9 9 0 0 1 9 9h2c0-6.075-4.925-11-11-11v1Z"/>
</svg>
