<svg xmlns="http://www.w3.org/2000/svg" width="20" height="18" fill="none" viewBox="0 0 20 18">
  <path stroke="#000" stroke-linecap="round" stroke-linejoin="round" stroke-width="2" d="M10.83 7.003a3.001 3.001 0 1 0-4.688 3.353m4.688-3.353c-2.074.073-3.785 1.48-4.186 3.331a3.734 3.734 0 0 0-.502.022m4.688-3.353A4.83 4.83 0 0 1 11 7c2.455 0 4.444 1.865 4.444 4.167v.03c.145-.02.294-.03.445-.03 1.718 0 3.111 1.306 3.111 2.916 0 1.47-1.159 2.685-2.667 2.888V17H6.556C4.592 17 3 15.508 3 13.667c0-1.71 1.373-3.12 3.142-3.311M8 2V1M1 8h1m1.05-4.95.707.707m8.486 0 .707-.707"/>
</svg>
