<svg xmlns="http://www.w3.org/2000/svg" width="24" height="24" fill="none" viewBox="0 0 24 24">
  <path fill="#000" d="M2 21.028H1h1Zm0-5.056h1-1ZM15 18v1h.438l.297-.322L15 18Zm-10-.085a1 1 0 0 0 2 0H5Zm16.603-2.266.75.661-.75-.661Zm-5.004 5.672-.75-.661.75.661Zm2.51-7.77.735.678.008-.01-.743-.668ZM13.92 4.752l.977-.212-.977.212ZM11 17a1 1 0 1 0 0 2v-2Zm-8-2v1h2v-2H3v1Zm3 .972H5v5.056h2v-5.056H6ZM5 22v-1H3v2h2v-1Zm-3-.972h1v-5.056H1v5.056h1ZM3 22v-1a.023.023 0 0 1-.01-.001s0-.001 0 0c0 0 .003.002.005.008a.057.057 0 0 1 .005.021H1C1 22.144 1.923 23 3 23v-1Zm3-.972H5a.051.051 0 0 1 .01-.03C5.007 21 5.005 21 5 21v2c1.077 0 2-.856 2-1.972H6ZM5 15v1l.01.001s0 .001 0 0a.03.03 0 0 1-.005-.008.057.057 0 0 1-.005-.021h2C7 14.856 6.077 14 5 14v1Zm-2 0v-1c-1.077 0-2 .856-2 1.972h2a.051.051 0 0 1-.01.03C2.993 16 2.995 16 3 16v-1Zm5 0v1h5v-2H8v1Zm7 1.83h-1V18h2v-1.17h-1Zm-9 1.085h1v-.972H5v.972h1Zm15.603-2.266-.75-.662-5.004 5.673.75.661.75.662 5.004-5.673-.75-.661Zm-2.494-2.098.743.669a.655.655 0 0 1 .736-.175c.26.095.412.298.412.56h2c0-2.457-3.059-3.472-4.634-1.724l.743.67Zm-2.51 7.77-.75-.661c-.187.211-.466.34-.769.34v2c.865 0 1.695-.367 2.269-1.017l-.75-.662Zm5.004-5.672.75.661c.415-.47.647-1.075.647-1.704h-2c0 .135-.05.271-.147.381l.75.662ZM13 15v1c.662 0 1 .412 1 .83h2C16 15.1 14.548 14 13 14v1Zm-5 0v-1c-1.63 0-3 1.29-3 2.943h2C7 16.45 7.42 16 8 16v-1Zm7 3 .735.678 4.109-4.449-.735-.678-.734-.679-4.11 4.45L15 18Zm2-9.5h-1a2.5 2.5 0 0 1-2.5 2.5v2A4.5 4.5 0 0 0 18 8.5h-1ZM13.5 12v-1A2.5 2.5 0 0 1 11 8.5H9a4.5 4.5 0 0 0 4.5 4.5v-1ZM10 8.5h1A2.5 2.5 0 0 1 13.5 6V4A4.5 4.5 0 0 0 9 8.5h1Zm-3-3h1A2.5 2.5 0 0 1 10.5 3V1A4.5 4.5 0 0 0 6 5.5h1ZM10.5 2v1a2.5 2.5 0 0 1 2.443 1.966l.977-.213.977-.212A4.501 4.501 0 0 0 10.5 1v1Zm-.47 6.96.142-.99C8.947 7.795 8 6.745 8 5.5H6c0 2.281 1.72 4.14 3.888 4.45l.142-.99Zm3.89-4.207-.977.213c.014.065.026.13.035.198l.99-.133.992-.133a4.445 4.445 0 0 0-.063-.357l-.977.212ZM13.5 5v1c.114 0 .227.008.336.022l.133-.99.133-.992A4.533 4.533 0 0 0 13.5 4v1Zm.469.031-.133.991A2.5 2.5 0 0 1 16 8.5h2a4.5 4.5 0 0 0-3.898-4.46l-.133.991ZM15.08 22v-1H5v2h10.08v-1ZM15 18v-1h-4v2h4v-1Z"/>
</svg>
