<svg xmlns="http://www.w3.org/2000/svg" width="24" height="24" fill="none" viewBox="0 0 24 24">
  <path stroke="#000" stroke-linecap="round" stroke-linejoin="round" stroke-miterlimit="10" stroke-width="2" d="M14.62 5.044a1.694 1.694 0 0 0-.892-2.863c-3.718-.683-7.692.54-10.067 4.104-2.195 3.29-2.218 7.723-.05 11.031 3.676 5.612 11.282 6.181 15.756 1.708 2.418-2.418 2.973-5.412 2.445-8.545-.213-1.262-1.8-1.73-2.706-.826-1.193 1.194-2.725 1.145-4.095.16-1.744-1.257-1.89-3.27-.435-4.725l.045-.044Z"/>
  <path stroke="#000" stroke-linecap="round" stroke-linejoin="round" stroke-miterlimit="10" stroke-width="2" d="M7.39 11.136a1.694 1.694 0 1 0 0-3.387 1.694 1.694 0 0 0 0 3.388Zm1.198 5.988a1.694 1.694 0 1 0 0-3.387 1.694 1.694 0 0 0 0 3.387Zm5.988 1.198a1.694 1.694 0 1 0 0-3.387 1.694 1.694 0 0 0 0 3.387Z"/>
</svg>
