<svg xmlns="http://www.w3.org/2000/svg" width="24" height="24" fill="none" viewBox="0 0 24 24">
  <path fill="#000" d="m19.107 9.687.707-.707-.707.707ZM17.908 8.49l-.707-.707-.707.707.707.707.707-.707Zm3.596-3.596.707.708-.707-.708Zm0-2.397-.707.708.707-.708Zm-2.397 0 .707.708-.707-.708ZM15.51 6.092l-.707.707.707.707.707-.707-.707-.707Zm-1.198-1.199-.708.708.708-.708ZM11.916 7.29l-.707.708.707-.708Zm4.794 4.794.707-.707-.707.707Zm-2.852-4.266a1 1 0 1 0-1.415 1.414l1.415-1.414Zm.982 3.811a1 1 0 1 0 1.415-1.414L14.84 11.63ZM1.293 21.292a1 1 0 0 0 1.414 1.415l-1.414-1.415ZM4.4 19.618l-.707.707.707-.707Zm0-2.475.707.707-.707-.707Zm9.392-7.977a1 1 0 0 0-1.415-1.414l1.414 1.414Zm2.474 2.475a1 1 0 0 0-1.414-1.414l1.414 1.414Zm2.84-1.954.708-.707-1.199-1.198-.707.707-.707.707 1.198 1.199.708-.708ZM17.909 8.49l.707.707 3.596-3.595-.707-.708-.707-.707L17.2 7.782l.707.707Zm3.596-3.596.707.708a2.695 2.695 0 0 0 0-3.812l-.707.707-.707.708a.695.695 0 0 1 0 .982l.707.707Zm0-2.397.707-.707a2.695 2.695 0 0 0-3.811 0l.707.707.707.708a.695.695 0 0 1 .983 0l.707-.708Zm-2.397 0L18.4 1.79l-3.596 3.596.707.707.707.707 3.596-3.595-.707-.708ZM15.51 6.092l.707-.707-1.198-1.199-.707.707-.708.708 1.199 1.198.707-.707Zm-1.198-1.199.707-.707a2.7 2.7 0 0 0-3.811 0l.707.707.707.708a.7.7 0 0 1 .982 0l.708-.708Zm-2.397 0-.707-.707a2.7 2.7 0 0 0 0 3.812l.707-.708.707-.707a.7.7 0 0 1 0-.982l-.707-.708Zm0 2.397-.707.708 4.794 4.793.707-.707.707-.707-4.794-4.794-.707.707Zm4.794 4.794-.707.707a2.7 2.7 0 0 0 3.81 0l-.706-.707-.707-.707a.7.7 0 0 1-.983 0l-.707.707Zm2.397 0 .707.707a2.7 2.7 0 0 0 0-3.81l-.707.706-.707.708a.7.7 0 0 1 0 .982l.707.707ZM13.15 8.525l-.707.707 2.397 2.397.707-.707.708-.707-2.397-2.397-.708.707ZM4.39 19.61l-.706-.707-2.391 2.39L2 22l.707.707 2.39-2.391-.706-.707Zm2.485.01-.707-.708a.75.75 0 0 1-1.06 0l-.708.707-.707.707a2.75 2.75 0 0 0 3.89 0l-.708-.707Zm-2.475 0 .707-.708a.39.39 0 0 1-.004-.004l-.712.702-.713.701.015.015.707-.707Zm-.01-.01.713-.702a.75.75 0 0 1 .004-1.056l-.707-.708-.707-.707a2.75 2.75 0 0 0-.015 3.875l.713-.702Zm.01-2.466.707.707 8.684-8.684-.707-.707-.707-.707-8.684 8.684.707.707Zm2.475 2.475.707.707 8.684-8.684-.707-.707-.707-.707-8.684 8.684.707.707Z"/>
</svg>
