<svg xmlns="http://www.w3.org/2000/svg" width="24" height="24" fill="none" viewBox="0 0 24 24">
  <path stroke="#000" stroke-linecap="round" stroke-linejoin="round" stroke-miterlimit="10" stroke-width="2" d="m20.62 14.276-9.734-9.734-8.39 8.39a1.695 1.695 0 0 0 0 2.397l5.642 5.641a1.695 1.695 0 0 0 2.397 0l8.39-8.39M14.48 8.139 9.088 2.745A2.542 2.542 0 0 0 5.493 6.34l5.393 5.393m7.983 7.726 1.436-2.544 1.436 2.544c.15.252.259.531.259.846a1.695 1.695 0 0 1-3.39 0c0-.315.11-.594.26-.846Z"/>
</svg>
