<svg xmlns="http://www.w3.org/2000/svg" width="24" height="24" fill="none" viewBox="0 0 24 24">
  <path fill="#000" d="M18 2a4 4 0 0 1 4 4l-.005.198A4 4 0 0 1 18 10h-2v4h2a4 4 0 0 1 4 4l-.005.198a4 4 0 0 1-3.797 3.797L18 22a4 4 0 0 1-4-4v-2h-4v2a4 4 0 0 1-3.802 3.995L6 22a4 4 0 0 1-3.995-3.802L2 18a4 4 0 0 1 4-4h2v-4H6a4 4 0 0 1-3.995-3.802L2 6a4 4 0 0 1 4-4l.198.005A4 4 0 0 1 10 6v2h4V6a4 4 0 0 1 4-4ZM6 16a2 2 0 0 0-2 2l.01.197A2 2 0 0 0 6 20l.197-.01A2 2 0 0 0 8 18v-2H6Zm10 2a2 2 0 0 0 2 2l.197-.01A2 2 0 0 0 20 18l-.01-.197A2 2 0 0 0 18 16h-2v2Zm-6-4h4v-4h-4v4ZM6 4a2 2 0 0 0-2 2l.01.197A2 2 0 0 0 6 8h2V6a2 2 0 0 0-1.803-1.99L6 4Zm12 0a2 2 0 0 0-2 2v2h2a2 2 0 0 0 2-2l-.01-.197A2 2 0 0 0 18 4Z"/>
</svg>
