<svg xmlns="http://www.w3.org/2000/svg" width="24" height="24" fill="none" viewBox="0 0 24 24">
  <path fill="#000" d="M13.333 10.509a1 1 0 1 0 1.334-1.49l-1.334 1.49Zm1.334 4.472a1 1 0 1 0-1.334-1.49l1.334 1.49ZM22 12h-1a9 9 0 0 1-9 9v2c6.075 0 11-4.925 11-11h-1ZM12 22v-1a9 9 0 0 1-9-9H1c0 6.075 4.925 11 11 11v-1ZM2 12h1a9 9 0 0 1 9-9V1C5.925 1 1 5.925 1 12h1ZM12 2v1a9 9 0 0 1 9 9h2c0-6.075-4.925-11-11-11v1Zm0 13v-1a2 2 0 0 1-2-2H8a4 4 0 0 0 4 4v-1Zm-3-3h1a2 2 0 0 1 2-2V8a4 4 0 0 0-4 4h1Zm3-3v1c.513 0 .979.192 1.333.509L14 9.764l.667-.745A3.989 3.989 0 0 0 12 8v1Zm2 5.236-.667-.745c-.354.317-.82.509-1.333.509v2c1.024 0 1.96-.386 2.667-1.019L14 14.236Z"/>
</svg>
