<svg xmlns="http://www.w3.org/2000/svg" width="24" height="24" fill="none" viewBox="0 0 24 24">
  <path fill="#000" d="M16.22 4.306a1 1 0 1 0-1.44 1.388l1.44-1.388ZM20 9.666l.72.695a1 1 0 0 0 0-1.388l-.72.694Zm-5.22 3.973a1 1 0 1 0 1.44 1.389l-1.44-1.389ZM8.5 20a1 1 0 1 0 0-2v2Zm7-15-.72.694 4.5 4.667.72-.694.72-.694-4.5-4.667L15.5 5ZM20 9.667l-.72-.694-4.5 4.666.72.694.72.694 4.5-4.666-.72-.694Zm0 0v-1H8.5v2H20v-1ZM8.5 19v-1C6.601 18 5 16.393 5 14.333H3C3 17.428 5.428 20 8.5 20v-1ZM4 14.333h1c0-2.06 1.601-3.666 3.5-3.666v-2c-3.072 0-5.5 2.571-5.5 5.666h1Z"/>
</svg>
