<svg xmlns="http://www.w3.org/2000/svg" width="20" height="14" fill="none" viewBox="0 0 20 14">
  <path stroke="#000" stroke-linejoin="round" stroke-width="2" d="M6.185 2.79 2.824 4.765a1.982 1.982 0 0 0-.482 3.041l3.535 3.943m1.75 0h-1.75m0 0s-2.578 1.955-4.124.977C-.308 11.423 2.515 8 2.515 8m11.286-5.21 3.393 1.923c1.087.616 1.337 2.007.526 2.929l-3.61 4.107m-1.936 0h1.936m0 0s2.577 1.955 4.123.977c2.061-1.303-.685-4.886-.685-4.886M8.696 13h2.401c.493 0 .914-.348 1-.826l1.588-8.825c.22-1.225-.737-2.349-2-2.349H8.254C7.004 1 6.05 2.102 6.249 3.318l1.444 8.84c.08.486.504.842 1.003.842Z"/>
</svg>
