<svg xmlns="http://www.w3.org/2000/svg" width="24" height="24" fill="none" viewBox="0 0 24 24">
  <path fill="#000" d="M15 9a1 1 0 1 0 0-2v2Zm-6 1H8h1Zm2.042 2v1-1Zm1.916 0v-1 1Zm0 4v1-1ZM9 15a1 1 0 1 0 0 2v-2Zm2-7v1h2V8h-2Zm2-2a1 1 0 1 0-2 0h2Zm0 10v-1h-2v1h2Zm-2 2a1 1 0 1 0 2 0h-2Zm11-6h-1a9 9 0 0 1-9 9v2c6.075 0 11-4.925 11-11h-1ZM12 22v-1a9 9 0 0 1-9-9H1c0 6.075 4.925 11 11 11v-1ZM2 12h1a9 9 0 0 1 9-9V1C5.925 1 1 5.925 1 12h1ZM12 2v1a9 9 0 0 1 9 9h2c0-6.075-4.925-11-11-11v1Zm-.958 6V7c-.8 0-1.572.311-2.144.871l.7.715.7.714c.194-.19.46-.3.744-.3V8Zm-1.444.586-.7-.715A2.98 2.98 0 0 0 8 10h2a.98.98 0 0 1 .298-.7l-.7-.714ZM9 10H8c0 .802.326 1.568.898 2.129l.7-.715.7-.714A.98.98 0 0 1 10 10H9Zm.598 1.414-.7.715c.572.56 1.344.871 2.144.871v-2c-.283 0-.55-.11-.744-.3l-.7.714Zm1.444.586v1h1.916v-2h-1.916v1Zm1.916 0v1c.283 0 .55.11.744.3l.7-.714.7-.715A3.064 3.064 0 0 0 12.958 11v1Zm1.444.586-.7.714A.98.98 0 0 1 14 14h2a2.98 2.98 0 0 0-.898-2.129l-.7.715ZM15 14h-1a.98.98 0 0 1-.298.7l.7.714.7.715A2.98 2.98 0 0 0 16 14h-1Zm-.598 1.414-.7-.714c-.194.19-.46.3-.744.3v2c.8 0 1.572-.311 2.144-.871l-.7-.715ZM12.958 16v-1H9v2h3.958v-1ZM12 8h1V6h-2v2h1Zm0 8h-1v2h2v-2h-1Zm3-8V7h-3.958v2H15V8Z"/>
</svg>
