<svg xmlns="http://www.w3.org/2000/svg" width="24" height="24" fill="none" viewBox="0 0 24 24">
  <path fill="#000" d="M10 9.5H9h1Zm3.646-.98a1 1 0 0 0 1.708-1.04l-1.708 1.04ZM10 17l-.91-.416A1 1 0 0 0 10 18v-1Zm-2-5.412a1 1 0 0 0 0 2v-2Zm5.278 2a1 1 0 1 0 0-2v2ZM16 18a1 1 0 1 0 0-2v2Zm-6-8.5h1c0-.894.674-1.5 1.476-1.5V6C10.619 6 9 7.453 9 9.5h1ZM12.476 7v1c.612 0 .977.203 1.17.52L14.5 8l.854-.52C14.684 6.378 13.532 6 12.476 6v1ZM10 9.5H9c0 .46.094 1.004.186 1.511.099.54.209 1.102.288 1.707l.992-.13.991-.13c-.087-.668-.21-1.297-.303-1.806C11.055 10.111 11 9.747 11 9.5h-1Zm.466 3.088-.992.13c.17 1.307.172 2.651-.384 3.866L10 17l.91.416c.786-1.722.736-3.515.547-4.957l-.992.13Zm-2.466 0v1h2.466v-2H8v1Zm2.466 0v1h2.813v-2h-2.813v1ZM10 17v1h6v-2h-6v1Zm12-5h-1a9 9 0 0 1-9 9v2c6.075 0 11-4.925 11-11h-1ZM12 22v-1a9 9 0 0 1-9-9H1c0 6.075 4.925 11 11 11v-1ZM2 12h1a9 9 0 0 1 9-9V1C5.925 1 1 5.925 1 12h1ZM12 2v1a9 9 0 0 1 9 9h2c0-6.075-4.925-11-11-11v1Z"/>
</svg>
