<svg xmlns="http://www.w3.org/2000/svg" width="24" height="24" fill="none" viewBox="0 0 24 24">
  <path fill="#000" d="M9 11H8v2h1v-2Zm1-5a1 1 0 0 0-2 0h2ZM8 18a1 1 0 1 0 2 0H8Zm-2-1a1 1 0 1 0 0 2v-2ZM6 5a1 1 0 0 0 0 2V5Zm3 1a1 1 0 0 0 2 0H9Zm2-3a1 1 0 1 0-2 0h2Zm2 3a1 1 0 1 0 2 0h-2Zm2-3a1 1 0 1 0-2 0h2Zm-2 18a1 1 0 1 0 2 0h-2Zm2-3a1 1 0 1 0-2 0h2Zm-6 3a1 1 0 1 0 2 0H9Zm2-3a1 1 0 1 0-2 0h2Zm4-6v-1H9v2h6v-1ZM9 6H8v12h2V6H9ZM6 18v1h9v-2H6v1ZM6 6v1h9V5H6v1Zm12 3h-1a2 2 0 0 1-2 2v2a4 4 0 0 0 4-4h-1Zm-3-3v1a2 2 0 0 1 2 2h2a4 4 0 0 0-4-4v1Zm3 9h-1a2 2 0 0 1-2 2v2a4 4 0 0 0 4-4h-1Zm-3-3v1a2 2 0 0 1 2 2h2a4 4 0 0 0-4-4v1Zm-5-6h1V3H9v3h1Zm4 0h1V3h-2v3h1Zm0 15h1v-3h-2v3h1Zm-4 0h1v-3H9v3h1Z"/>
</svg>
