<svg xmlns="http://www.w3.org/2000/svg" width="25" height="24" fill="none" viewBox="0 0 25 24">
  <path stroke="#000" stroke-linecap="round" stroke-linejoin="round" stroke-width="2" d="M2.344 17.351h2.162v.54H2.344v-.54Zm5.406 0h2.702v.54H7.749v-.54Zm8.648.541h-2.703v-.54h2.703v.54Zm5.946 0H19.64v-.54h2.703v.54Zm0-4.324H19.64v.54h2.703v-.54Zm0-3.784H19.64v.54h2.703v-.54Zm0-3.784H19.64v.54h2.703V6Zm-5.946 7.568h-2.703v.54h2.703v-.54Zm-8.648.54h2.702v-.54H7.749v.54Zm0-4.324h2.702v.54H7.749v-.54Z"/>
</svg>
