<svg xmlns="http://www.w3.org/2000/svg" width="24" height="24" fill="none" viewBox="0 0 24 24">
  <path stroke="#000" stroke-linecap="round" stroke-linejoin="round" stroke-width="2" d="M16 17H8m-2 5h12a2 2 0 0 0 2-2V4a2 2 0 0 0-2-2H6a2 2 0 0 0-2 2v16a2 2 0 0 0 2 2Zm6-10 2.512-2.346c.154-.142.277-.313.36-.5a1.47 1.47 0 0 0 .002-1.191 1.529 1.529 0 0 0-.358-.503 1.725 1.725 0 0 0-1.172-.456c-.439 0-.86.161-1.175.452l-.168.157-.167-.157A1.726 1.726 0 0 0 10.662 7c-.438 0-.86.161-1.174.452a1.53 1.53 0 0 0-.36.5 1.469 1.469 0 0 0-.003 1.191c.083.189.205.36.359.503L12 12Z"/>
</svg>
