<svg xmlns="http://www.w3.org/2000/svg" width="20" height="20" fill="none" viewBox="0 0 20 20">
  <path stroke="#000" stroke-linecap="round" stroke-linejoin="round" stroke-width="2" d="M18.324 6.303c-.586.586-2.01.111-3.182-1.06-1.171-1.172-1.646-2.597-1.06-3.182m4.242 4.242c.586-.585.111-2.01-1.06-3.182-1.172-1.171-2.597-1.646-3.183-1.06m4.243 4.242L6.304 18.324c-.587.586-2.011.111-3.183-1.06-1.171-1.172-1.646-2.597-1.06-3.182L14.08 2.06M8.07 8.07l4.243 4.243m-.707.707 2.828 1.414m-3.536-.707 1.415 2.828M5.95 10.192l4.242 4.243"/>
</svg>
