<svg xmlns="http://www.w3.org/2000/svg" width="24" height="24" fill="none" viewBox="0 0 24 24">
  <path fill="#000" d="M8.16 4.011 8.318 5l-.158-.99Zm.906-.375.588.81-.588-.81ZM4.34 6.085l-.988-.157.988.157ZM6.085 4.34l-.157-.988.157.988ZM3.636 9.066l-.809-.588.81.588Zm.375-.905L5 8.317l-.99-.157Zm-1.61 5.073-.81.588.81-.588Zm0-2.468.809.588-.81-.588Zm1.61 5.073L5 15.683l-.988.156Zm-.375-.905.81-.588-.81.588Zm2.449 4.726.156-.988-.156.988ZM4.34 17.915l-.988.157.988-.157Zm4.726 2.449.588-.81-.588.81Zm-.905-.375-.157.988.157-.988Zm5.073 1.61.588.81-.588-.81Zm-2.468 0-.588.81.588-.81Zm5.073-1.61.157.988-.157-.988Zm-.905.375-.588-.81.588.81Zm4.726-2.449-.988-.156.988.156Zm-1.745 1.745-.156-.988.156.988Zm2.449-4.726-.81-.588.81.588Zm-.375.905.988.157-.988-.157Zm1.61-5.073.81-.588-.81.588Zm0 2.468.81.588-.81-.588ZM19.99 8.16l.988-.157-.988.157Zm.375.905-.81.588.81-.588Zm-2.45-4.725.157-.988-.157.988Zm1.745 1.745-.988.156.988-.156Zm-4.726-2.449-.588.81.588-.81Zm.905.375L15.683 5l.156-.988Zm-2.605-1.61.588-.81-.588.81Zm-2.468 0-.588-.81.588.81Zm-1.059 8.892a1 1 0 0 0-1.414 1.414l1.414-1.414ZM11 14l-.707.707a1 1 0 0 0 1.414 0L11 14Zm4.707-3.293a1 1 0 0 0-1.414-1.414l1.414 1.414Zm-2.473-8.306-.588.809 1.7 1.235.588-.809.588-.809-1.7-1.235-.588.809Zm2.605 1.61L15.683 5l2.076.329.156-.988.157-.988-2.076-.328-.157.987Zm3.821 2.074-.988.156.33 2.076.987-.156.988-.157-.33-2.076-.987.157Zm.704 2.981-.81.588 1.236 1.7.81-.588.808-.588-1.235-1.7-.81.588Zm1.235 4.168-.809-.588-1.235 1.7.809.588.809.588 1.235-1.7-.809-.588Zm-1.61 2.605L19 15.683l-.329 2.076.988.156.988.157.329-2.076-.988-.157Zm-2.074 3.821-.156-.988-2.076.33.156.987.157.988 2.075-.33-.156-.987Zm-2.981.704-.588-.81-1.7 1.236.588.81.588.808 1.7-1.235-.588-.81Zm-4.168 1.235.588-.809-1.7-1.235-.588.809-.588.809 1.7 1.235.588-.809Zm-2.605-1.61L8.317 19l-2.076-.329-.156.988-.157.988 2.076.329.157-.988ZM4.34 17.915l.988-.156-.33-2.076-.987.156-.987.157.328 2.075.988-.156Zm-.704-2.981.81-.588-1.236-1.7-.81.588-.808.588 1.235 1.7.81-.588Zm-1.235-4.168.809.588 1.235-1.7-.809-.588-.809-.588-1.235 1.7.809.588Zm1.61-2.605L5 8.317l.329-2.076-.988-.156-.988-.157-.328 2.076.987.157ZM6.085 4.34l.156.988 2.076-.33-.156-.987-.157-.987-2.076.328.157.988Zm2.981-.704.588.81 1.7-1.236-.588-.81-.588-.808-1.7 1.235.588.81Zm-.905.375L8.317 5a3.1 3.1 0 0 0 1.337-.554l-.588-.809-.588-.809a1.1 1.1 0 0 1-.474.197l.157.987ZM4.34 6.085l.988.156a1.1 1.1 0 0 1 .913-.913l-.156-.988-.157-.988a3.1 3.1 0 0 0-2.576 2.576l.988.157Zm-.704 2.981.81.588a3.1 3.1 0 0 0 .553-1.337L4.01 8.16l-.987-.157a1.1 1.1 0 0 1-.197.474l.81.588Zm-1.235 4.168.809-.588a1.1 1.1 0 0 1 0-1.292l-.81-.588-.808-.588a3.099 3.099 0 0 0 0 3.644l.809-.588Zm1.61 2.605L5 15.683a3.1 3.1 0 0 0-.554-1.337l-.809.588-.809.588c.102.14.17.303.197.474l.987-.157Zm2.074 3.821.156-.988a1.1 1.1 0 0 1-.913-.913l-.988.156-.988.157a3.099 3.099 0 0 0 2.576 2.576l.157-.988Zm2.981.704.588-.81a3.099 3.099 0 0 0-1.337-.553l-.156.988-.157.988a1.1 1.1 0 0 1 .474.196l.588-.81Zm4.168 1.235-.588-.809a1.1 1.1 0 0 1-1.292 0l-.588.81-.588.808c1.087.79 2.557.79 3.644 0l-.588-.809Zm2.605-1.61L15.683 19a3.099 3.099 0 0 0-1.337.554l.588.809.588.809a1.1 1.1 0 0 1 .474-.196l-.157-.988Zm3.821-2.074-.988-.156a1.1 1.1 0 0 1-.913.913l.156.988.157.988a3.099 3.099 0 0 0 2.576-2.576l-.988-.157Zm.704-2.981-.81-.588a3.099 3.099 0 0 0-.553 1.337l.988.156.988.157a1.1 1.1 0 0 1 .196-.474l-.81-.588Zm1.235-4.168-.809.588a1.1 1.1 0 0 1 0 1.292l.81.588.808.588a3.099 3.099 0 0 0 0-3.644l-.809.588Zm-1.61-2.605L19 8.317c.077.483.266.941.554 1.337l.809-.588.809-.588a1.1 1.1 0 0 1-.196-.474l-.988.157ZM17.915 4.34l-.156.988c.47.074.839.443.913.913l.988-.156.988-.157a3.099 3.099 0 0 0-2.576-2.576l-.157.988Zm-2.981-.704-.588.81a3.1 3.1 0 0 0 1.337.553l.156-.988.157-.987a1.1 1.1 0 0 1-.474-.197l-.588.81Zm-1.7-1.235.588-.81a3.099 3.099 0 0 0-3.644 0l.588.81.588.809a1.1 1.1 0 0 1 1.292 0l.588-.81ZM9 12l-.707.707 2 2L11 14l.707-.707-2-2L9 12Zm2 2 .707.707 4-4L15 10l-.707-.707-4 4L11 14Z"/>
</svg>
