<svg xmlns="http://www.w3.org/2000/svg" width="20" height="20" fill="none" viewBox="0 0 20 20">
  <path stroke="#000" stroke-linecap="round" stroke-linejoin="round" stroke-width="2" d="M15.055 2.552A11.99 11.99 0 0 1 5 8c-1.266 0-2.486-.196-3.631-.56m13.686-4.888A8.959 8.959 0 0 0 10 1c-1.5 0-2.915.367-4.159 1.017m9.214.535a8.99 8.99 0 0 1 3.937 7.824M1.37 7.441A9 9 0 0 0 1 10a8.99 8.99 0 0 0 3.905 7.42M1.369 7.44a9.024 9.024 0 0 1 4.472-5.423m0 0C10.057 3.877 13 8.095 13 13c0 2.137-.559 4.144-1.538 5.882m0 0A9.058 9.058 0 0 1 10 19a8.959 8.959 0 0 1-5.095-1.58m6.557 1.462a9.003 9.003 0 0 0 7.53-8.506m0 0A12.023 12.023 0 0 0 16 10c-5.005 0-9.295 3.065-11.095 7.42"/>
</svg>
