<svg xmlns="http://www.w3.org/2000/svg" width="24" height="24" fill="none" viewBox="0 0 24 24">
  <path fill="#000" d="m6.178 8.513.728.686.01-.01.008-.01-.746-.666Zm11.644 0-.746.666.009.01.009.01.728-.686ZM12 2l.746-.666a1 1 0 0 0-1.492 0L12 2ZM9 13a1 1 0 1 0 0 2v-2Zm6 2a1 1 0 1 0 0-2v2ZM4 14H3a9 9 0 0 0 9 9v-2a7 7 0 0 1-7-7H4Zm8 8v1a9 9 0 0 0 9-9h-2a7 7 0 0 1-7 7v1ZM6.178 8.513l-.727-.686A8.972 8.972 0 0 0 3 14h2c0-1.86.723-3.547 1.906-4.801l-.728-.686ZM20 14h1c0-2.39-.932-4.563-2.45-6.173l-.728.686-.728.686A6.972 6.972 0 0 1 19 14h1ZM12 2l-.746.666 5.822 6.513.746-.666.745-.667-5.821-6.512L12 2Zm0 0-.746-.666-5.821 6.512.745.667.746.666 5.822-6.513L12 2ZM9 14v1h6v-2H9v1Z"/>
</svg>
