<svg xmlns="http://www.w3.org/2000/svg" width="24" height="24" fill="none" viewBox="0 0 24 24">
  <path stroke="#000" stroke-linecap="round" stroke-miterlimit="10" stroke-width="2" d="M3.61 17.935V22m0-4.065c.89 0 1.61-.728 1.61-1.626v-5.747c0-.346.344-.588.684-.522a4.814 4.814 0 0 0 3.437-.62c.482-.296.71-.855.71-1.42V4.13c0-.565-.228-1.124-.71-1.42A4.773 4.773 0 0 0 6.831 2C4.163 2 2 4.184 2 6.878v9.43c0 .899.72 1.627 1.61 1.627Zm16.78 0V22m0-4.065c-.89 0-1.61-.728-1.61-1.626v-5.747c0-.346-.344-.588-.684-.522a4.814 4.814 0 0 1-3.437-.62c-.482-.296-.71-.855-.71-1.42V4.13c0-.565.228-1.124.71-1.42a4.773 4.773 0 0 1 2.51-.71C19.837 2 22 4.184 22 6.878v9.43c0 .899-.72 1.627-1.61 1.627Z"/>
</svg>
