<svg xmlns="http://www.w3.org/2000/svg" width="24" height="24" fill="none" viewBox="0 0 24 24">
  <path fill="#000" d="m3.968 2 .034-.999h-.033v1Zm-.85 0V1v1Zm-.868.742.986.166-.986-.166Zm.019 6.999.988-.15-.988.15Zm.87.755.156-.988-.078-.012H3.14v1Zm.588.04.01-1-.01 1ZM6.378 8.87v-1H5.72l-.26.606.92.394Zm.402 0h1v-1h-1v1Zm0 7.032h-1 1ZM7.395 22a1 1 0 1 0 2 0h-2Zm2-5.203a1 1 0 0 0-2 0h2ZM16.622 22a1 1 0 1 0 2 0h-2Zm2-5.203a1 1 0 0 0-2 0h2Zm-9.432-.082v1a1.808 1.808 0 0 0 1.804-1.813h-2c0-.092.076-.187.196-.187v1Zm.804-.813h1V8.956h-2v6.946h1Zm0-6.946h1c0-3.745-1.707-5.803-3.502-6.87a8.067 8.067 0 0 0-3.477-1.084h-.011c-.002 0-.002-.001-.036.998l-.034 1H3.93a.326.326 0 0 1 .034.002 5.737 5.737 0 0 1 .73.112 6.069 6.069 0 0 1 1.775.692c1.217.723 2.524 2.142 2.524 5.15h1ZM3.968 2V1h-.85v2h.85V2Zm-.85 0V1c-.926 0-1.703.675-1.854 1.577l.986.165.986.166A.117.117 0 0 1 3.118 3V2Zm-.868.742-.986-.165C1.142 3.306 1 4.49 1 6.065h2c0-1.455.13-2.529.236-3.157l-.986-.166ZM2 6.065H1c0 1.66.157 3.019.28 3.826l.989-.15.988-.15A23.904 23.904 0 0 1 3 6.065H2Zm.269 3.676-.989.15a1.883 1.883 0 0 0 1.859 1.605v-2c.067 0 .111.049.118.095l-.988.15Zm.87.755-.157.988h.002a.104.104 0 0 0 .008.001l.015.002a2.872 2.872 0 0 0 .2.024c.126.012.302.024.511.026l.01-1 .008-1a4.04 4.04 0 0 1-.444-.03s-.001 0 0 0a.145.145 0 0 1 .003.001l-.156.988Zm.588.04-.009 1c.92.009 2.717-.26 3.58-2.272l-.92-.394-.919-.394c-.394.92-1.143 1.066-1.723 1.06l-.009 1ZM6.378 8.87v1h.402v-2h-.402v1Zm.402 0h-1v7.032h2V8.87h-1Zm0 7.032h-1c0 .99.796 1.813 1.804 1.813v-2c.12 0 .196.095.196.187h-1Zm.804.813v1H9.19v-2H7.584v1ZM8.394 22h1v-5.203h-2V22h1Zm7.781-11.707h-1v5.61h2v-5.61h-1Zm0 5.61h-1c0 .99.797 1.812 1.804 1.812v-2c.12 0 .197.095.197.187h-1Zm.804.812v1h1.607v-2h-1.607v1Zm1.607 0v1a1.808 1.808 0 0 0 1.803-1.813h-2c0-.092.077-.187.197-.187v1Zm.803-.813h1V10.13h-2v5.772h1ZM17.622 22h1v-5.203h-2V22h1ZM13.565 6.268h1c0-1.816 1.45-3.268 3.217-3.268V1c-2.893 0-5.217 2.37-5.217 5.268h1ZM17.782 2v1C19.548 3 21 4.452 21 6.268h2C23 3.37 20.675 1 17.782 1v1ZM22 6.268h-1c0 1.817-1.452 3.269-3.218 3.269v2c2.893 0 5.218-2.37 5.218-5.269h-1Zm-4.218 4.269v-1c-1.766 0-3.217-1.452-3.217-3.269h-2c0 2.899 2.324 5.269 5.217 5.269v-1Z"/>
</svg>
