<svg xmlns="http://www.w3.org/2000/svg" width="18" height="21" fill="none" viewBox="0 0 18 21">
  <path stroke="#000" stroke-linecap="round" stroke-linejoin="round" stroke-width="2" d="M9 20c-1.457 0-2.823-.245-4-.762M9 20c1.457 0 2.823-.245 4-.762M9 20v-6m7.213-6S11.843 9 9 9C6.156 9 1.787 8 1.787 8M17 13s-1.846.38-4 .672M9 14c-1.206 0-2.662-.147-4-.328M9 14c1.206 0 2.662-.147 4-.328M1 13s1.846.38 4 .672m0 0v5.566m0 0c-2.391-1.05-4-3.222-4-6.738C1 7.253 4.582 1 9 1s8 6.253 8 11.5c0 3.516-1.609 5.688-4 6.738m0-5.566v5.566M8 5h1m0 0h1M9 5v1m0-1V4"/>
</svg>
