<svg xmlns="http://www.w3.org/2000/svg" width="24" height="24" fill="none" viewBox="0 0 24 24">
  <path fill="#000" d="M11.026 2.994a1 1 0 0 0-.22-1.988l.22 1.988Zm11.968 10.2a1 1 0 1 0-1.988-.22l1.988.22Zm-5.1-10.49.707.708-.707-.708Zm1.7-.704V1v1Zm1.701 4.106-.707-.707.707.707ZM13.413 14v1a1 1 0 0 0 .708-.293L13.412 14ZM10 14H9a1 1 0 0 0 1 1v-1Zm0-3.412-.707-.708a1 1 0 0 0-.293.708h1ZM12.03 22v-1A9.03 9.03 0 0 1 3 11.97H1C1 18.06 5.939 23 12.03 23v-1ZM2 11.97h1a9.032 9.032 0 0 1 8.026-8.976L10.916 2l-.11-.994C5.29 1.616 1 6.291 1 11.969h1Zm20 1.114-.994-.11A9.032 9.032 0 0 1 12.031 21v2c5.678 0 10.353-4.29 10.963-9.806l-.994-.11Zm-4.106-10.38.707.708c.13-.13.286-.234.456-.305l-.383-.924-.382-.924a3.406 3.406 0 0 0-1.105.738l.707.707Zm.78-.52.383.923c.17-.07.353-.107.538-.107V1c-.447 0-.89.088-1.303.26l.382.923Zm.92-.184v1c.185 0 .368.036.539.107l.382-.924.383-.924A3.405 3.405 0 0 0 19.595 1v1Zm.921.183-.382.924c.17.07.325.174.455.305l.707-.708.708-.707a3.406 3.406 0 0 0-1.105-.738l-.383.924Zm.78.521-.707.708c.13.13.234.285.305.455l.924-.382.924-.383a3.405 3.405 0 0 0-.738-1.105l-.707.707Zm.522.78-.924.383c.07.17.107.354.107.538h2c0-.447-.088-.89-.26-1.303l-.923.383Zm.183.921h-1a1.4 1.4 0 0 1-.107.538l.924.383.924.382c.17-.413.259-.856.259-1.303h-1Zm-.183.92-.924-.382a1.4 1.4 0 0 1-.305.456l.707.707.708.707c.316-.316.567-.692.738-1.105l-.924-.382Zm-.521.78-.708-.706-7.883 7.894.707.707.708.707 7.883-7.895-.707-.706ZM13.412 14v-1H10v2h3.412v-1ZM10 14h1v-3.412H9V14h1Zm0-3.412.707.707L18.6 3.412l-.707-.708-.706-.707L9.293 9.88l.707.708Z"/>
</svg>
