<svg xmlns="http://www.w3.org/2000/svg" width="16" height="20" fill="none" viewBox="0 0 16 20">
  <path fill="#000" d="M13 12.111a1 1 0 1 0-2 0h2ZM8 15a1 1 0 1 0 0 2v-2Zm7-3h-1c0 2.265-.706 3.718-1.716 4.617C11.255 17.535 9.771 18 8 18v2c2.095 0 4.111-.55 5.615-1.89C15.139 16.754 16 14.707 16 12h-1Zm-7 7v-1c-1.77 0-3.255-.465-4.284-1.383C2.706 15.717 2 14.265 2 12H0c0 2.706.861 4.753 2.385 6.11C3.889 19.45 5.905 20 8 20v-1Zm-7-7h1c0-2.247.916-4.81 2.215-6.821.645-1 1.36-1.82 2.054-2.381C6.979 2.225 7.574 2 8 2V0C6.926 0 5.896.529 5.013 1.241c-.9.726-1.748 1.723-2.478 2.852C1.084 6.34 0 9.276 0 12h1ZM8 1v1c.426 0 1.02.225 1.731.798.695.56 1.409 1.382 2.054 2.38C13.084 7.19 14 9.754 14 12h2c0-2.724-1.084-5.66-2.535-7.907-.73-1.13-1.578-2.126-2.478-2.852C10.104.53 9.074 0 8 0v1Zm4 11.111h-1c0 1.151-.364 1.823-.826 2.224C9.687 14.757 8.949 15 8 15v2c1.26 0 2.522-.32 3.483-1.153C12.468 14.994 13 13.72 13 12.11h-1Z"/>
</svg>
