<svg xmlns="http://www.w3.org/2000/svg" width="24" height="24" fill="none" viewBox="0 0 24 24">
  <path stroke="#000" stroke-linecap="round" stroke-linejoin="round" stroke-width="2" d="M4 7.556h5.556V2M4 7.556 9.556 2M4 7.556c0 6.666 2.778 8.888 5.556 8.888 1.11 0 1.666-.555 2.222-1.666.555-1.111 1.57-.362 2.778 0 1.16.348 2.233.283 2.777.555 1.111.556 2.223 1.667 2.223 3.334 0 .555 0 3.333-3.334 3.333-3.333 0-3.333-3.333-1.11-3.333M9.555 2h2.222c1.11 0 1.273.718 1.666 1.111.556.556 1.772 1.111 3.89 1.111 1.11 0 3.333.556 3.333 5.556 0 3.92-.556 7.222-1.223 10m-3.222-10h1.111"/>
</svg>
