<svg xmlns="http://www.w3.org/2000/svg" width="18" height="20" fill="none" viewBox="0 0 18 20">
  <path stroke="#000" stroke-linecap="round" stroke-linejoin="round" stroke-width="2" d="M9 16v3m0-3a8.403 8.403 0 0 1-2.593-.407M9 16a7.99 7.99 0 0 0 2.576-.424m3.596-2.484a8.017 8.017 0 0 1-3.595 2.484m3.595-2.484A11.44 11.44 0 0 0 17 10a11.44 11.44 0 0 0-1.828-3.092m0 6.184L17 15m-10.593.593L4 18m2.407-2.407a8.261 8.261 0 0 1-3.63-2.37m0 0L1 15m1.777-1.777A8.36 8.36 0 0 1 1 10a8.36 8.36 0 0 1 1.777-3.223m8.8 8.8L14 18M9 4V1m0 3c-.901 0-1.774.142-2.593.407M9 4a7.99 7.99 0 0 1 2.576.424m3.596 2.484a8.018 8.018 0 0 0-3.595-2.484m3.595 2.484L17 5M6.407 4.407 4 2m2.407 2.407a8.262 8.262 0 0 0-3.63 2.37m0 0L1 5m10.576-.576L14 2m-2 8a3 3 0 1 1-6 0 3 3 0 0 1 6 0Z"/>
</svg>
