<svg xmlns="http://www.w3.org/2000/svg" width="24" height="24" fill="none" viewBox="0 0 24 24">
  <path fill="#000" d="M8 12h1-1Zm0 3h1-1Zm1-4a1 1 0 1 0 2 0H9Zm3-4v1-1Zm2 2h-1 1Zm-1 2a1 1 0 1 0 2 0h-2Zm-5 1h1l-.707-.707-.707-.707A2 2 0 0 0 7 12h1Zm.293-.707L9 12v-2a2 2 0 0 0-1.414.586l.707.707ZM9 11v1h6v-2H9v1Zm6 0v1l.707-.707.707-.707A2 2 0 0 0 15 10v1Zm.707.293L15 12h2a2 2 0 0 0-.586-1.414l-.707.707ZM16 12h-1v3h2v-3h-1Zm0 3h-1l.707.707.707.707A2 2 0 0 0 17 15h-1Zm-.293.707L15 15v2a2 2 0 0 0 1.414-.586l-.707-.707ZM15 16v-1H9v2h6v-1Zm-6 0v-1l-.707.707-.707.707A2 2 0 0 0 9 17v-1Zm-.707-.293L9 15H7a2 2 0 0 0 .586 1.414l.707-.707ZM8 15h1v-3H7v3h1Zm2-4h1V9H9v2h1Zm0-2h1a1 1 0 0 1 .293-.707l-.707-.707-.707-.707A3 3 0 0 0 9 9h1Zm.586-1.414.707.707A1 1 0 0 1 12 8V6a3 3 0 0 0-2.121.879l.707.707ZM12 7v1a1 1 0 0 1 .707.293l.707-.707.707-.707A3 3 0 0 0 12 6v1Zm1.414.586-.707.707A1 1 0 0 1 13 9h2a3 3 0 0 0-.879-2.121l-.707.707ZM14 9h-1v2h2V9h-1ZM6 2v1h12V1H6v1Zm14 2h-1v16h2V4h-1Zm-2 18v-1H6v2h12v-1ZM4 20h1V4H3v16h1Zm2 2v-1a1 1 0 0 1-1-1H3a3 3 0 0 0 3 3v-1Zm14-2h-1a1 1 0 0 1-1 1v2a3 3 0 0 0 3-3h-1ZM18 2v1a1 1 0 0 1 1 1h2a3 3 0 0 0-3-3v1ZM6 2V1a3 3 0 0 0-3 3h2a1 1 0 0 1 1-1V2Z"/>
</svg>
