<svg xmlns="http://www.w3.org/2000/svg" width="24" height="24" fill="none" viewBox="0 0 24 24">
  <path fill="#000" d="M13 7a1 1 0 1 0-2 0h2Zm-1 5h-1a1 1 0 0 0 .445.832L12 12Zm2.445 2.832a1 1 0 0 0 1.11-1.664l-1.11 1.664ZM12 7h-1v5h2V7h-1Zm0 5-.555.832 3 2L15 14l.555-.832-3-2L12 12ZM6 2v1h12V1H6v1Zm14 2h-1v16h2V4h-1Zm-2 18v-1H6v2h12v-1ZM4 20h1V4H3v16h1Zm2 2v-1a1 1 0 0 1-1-1H3a3 3 0 0 0 3 3v-1Zm14-2h-1a1 1 0 0 1-1 1v2a3 3 0 0 0 3-3h-1ZM18 2v1a1 1 0 0 1 1 1h2a3 3 0 0 0-3-3v1ZM6 2V1a3 3 0 0 0-3 3h2a1 1 0 0 1 1-1V2Z"/>
</svg>
