<svg xmlns="http://www.w3.org/2000/svg" width="20" height="20" fill="none" viewBox="0 0 20 20">
  <path stroke="#000" stroke-linecap="round" stroke-linejoin="round" stroke-width="2" d="M4 6.25 10 1l6 5.25m-12 0L2 8m2-1.75v8.712M16 6.25 18 8m-2-1.75v7.787m-4 .154V9H8v5.808m-7-.79c.499-.076 1.001.097 1.5.481.833.643 1.667.643 2.5 0 .833-.642 1.667-.642 2.5 0 .833.643 1.667.643 2.5 0 .833-.642 1.667-.642 2.5 0 .833.643 1.667.643 2.5 0 .833-.642 1.667-.642 2.5 0 .502.387.998.561 1.5.482M1 18.017c.499-.075 1.001.098 1.5.483.833.642 1.667.642 2.5 0 .833-.643 1.667-.643 2.5 0 .833.642 1.667.642 2.5 0 .833-.643 1.667-.643 2.5 0 .833.642 1.667.642 2.5 0 .833-.643 1.667-.643 2.5 0 .502.386.998.56 1.5.481"/>
</svg>
