<svg xmlns="http://www.w3.org/2000/svg" width="24" height="24" fill="none" viewBox="0 0 24 24">
  <path fill="#000" d="M21.707 18.707a1 1 0 0 0-1.414-1.414l1.414 1.414ZM18 21l-.707.707a1 1 0 0 0 1.414 0L18 21Zm-2.293-3.707a1 1 0 0 0-1.414 1.414l1.414-1.414ZM9 5a1 1 0 0 0 0 2V5ZM7 9a1 1 0 0 0-2 0h2Zm14-3h-1a2 2 0 0 1-2 2v2a4 4 0 0 0 4-4h-1Zm-3 3V8a2 2 0 0 1-2-2h-2a4 4 0 0 0 4 4V9Zm-3-3h1a2 2 0 0 1 2-2V2a4 4 0 0 0-4 4h1Zm3-3v1a2 2 0 0 1 2 2h2a4 4 0 0 0-4-4v1ZM9 18H8a2 2 0 0 1-2 2v2a4 4 0 0 0 4-4H9Zm-3 3v-1a2 2 0 0 1-2-2H2a4 4 0 0 0 4 4v-1Zm-3-3h1a2 2 0 0 1 2-2v-2a4 4 0 0 0-4 4h1Zm3-3v1a2 2 0 0 1 2 2h2a4 4 0 0 0-4-4v1Zm15 3-.707-.707-3 3L18 21l.707.707 3-3L21 18Zm-3 3 .707-.707-3-3L15 18l-.707.707 3 3L18 21Zm0 0h1V9h-2v12h1ZM4 3v1h4V2H4v1Zm5 1H8v4h2V4H9ZM8 9V8H4v2h4V9ZM3 8h1V4H2v4h1Zm1 1V8H2a2 2 0 0 0 2 2V9Zm5-1H8v2a2 2 0 0 0 2-2H9ZM8 3v1h2a2 2 0 0 0-2-2v1ZM4 3V2a2 2 0 0 0-2 2h2V3Zm5 3v1h6V5H9v1ZM6 9H5v6h2V9H6Z"/>
</svg>
