<svg xmlns="http://www.w3.org/2000/svg" width="20" height="20" fill="none" viewBox="0 0 20 20">
  <path stroke="#000" stroke-width="2" d="m12.995 9.833 3.369-3.369a2 2 0 0 0-2.829-2.828l-3.368 3.369m-.334 5.99-3.369 3.369a2 2 0 0 1-2.828-2.829l3.369-3.368m2.828-3.162-3.369-3.37a2 2 0 0 0-2.828 2.83l3.369 3.368m5.99.334 3.369 3.368a2 2 0 0 1-2.829 2.829l-3.368-3.369M5.172 8H3a2 2 0 1 0 0 4h2.172m9.657-4h2.17a2 2 0 1 1 0 4h-2.17M8 14.828V17a2 2 0 0 0 4 0v-2.171M8 5.17V3a2 2 0 1 1 4 0v2.172m.121 6.95A3 3 0 1 1 7.88 7.878a3 3 0 0 1 4.242 4.242Z"/>
</svg>
