<svg xmlns="http://www.w3.org/2000/svg" width="20" height="20" fill="none" viewBox="0 0 20 20">
  <path fill="#000" d="m10.122 1 .015-.999-.015 1Zm3.022.642.394-.92-.394.92ZM1 9V8a1 1 0 0 0-1 1h1Zm18 0h1a1 1 0 0 0-1-1v1ZM6 17.064h1a1 1 0 0 0-.555-.895L6 17.064Zm8 0-.445-.895a1 1 0 0 0-.555.895h1ZM14 19v1a1 1 0 0 0 1-1h-1Zm-8 0H5a1 1 0 0 0 1 1v-1ZM2 9h1a7 7 0 0 1 7-7V0a9 9 0 0 0-9 9h1Zm4-1h1a6.998 6.998 0 0 1 3.608-6.125l-.486-.874-.485-.874A8.998 8.998 0 0 0 5 8h1Zm4-7v1h.107l.015-1 .015-.999L10 0v1ZM6 8H5v1h2V8H6Zm4 0H9v1h2V8h-1Zm4 0h-1v1h2V8h-1Zm-4 0h1a6.987 6.987 0 0 1 2.752-5.564l-.608-.794-.607-.795A8.987 8.987 0 0 0 9 8h1Zm.122-7-.015 1a6.97 6.97 0 0 1 2.644.561l.393-.92.394-.919a8.97 8.97 0 0 0-3.4-.721l-.016 1Zm3.022.642-.393.919c.79.338 1.506.818 2.116 1.408l.695-.719.696-.719a9.01 9.01 0 0 0-2.72-1.809l-.394.92Zm2.418 1.608-.695.719A6.976 6.976 0 0 1 17 9h2a8.977 8.977 0 0 0-2.742-6.469l-.696.719ZM14 8h1c0-1.557.508-2.993 1.366-4.156l-.804-.594-.804-.594A8.964 8.964 0 0 0 13 8h1ZM1 9v1h18V8H1v1Zm5 8.064.445-.895A8 8 0 0 1 2 9H0a10 10 0 0 0 5.555 8.96L6 17.064ZM19 9h-1a8 8 0 0 1-4.445 7.169l.445.895.445.896A10 10 0 0 0 20 9h-1Zm-5 8.064h-1V19h2v-1.936h-1ZM14 19v-1H6v2h8v-1Zm-8 0h1v-1.936H5V19h1Z"/>
</svg>
