<svg xmlns="http://www.w3.org/2000/svg" width="24" height="24" fill="none" viewBox="0 0 24 24">
  <path fill="#000" d="M5 9H4h1Zm7 7v-1 1Zm7-7h1-1Zm-8 13a1 1 0 1 0 2 0h-2Zm2-5.89.001-1h-2v1h2ZM8.946 19a1 1 0 1 0 0 2v-2Zm6 2a1 1 0 1 0 0-2v2ZM5 9H4a8 8 0 0 0 2.343 5.657l.707-.707.707-.707A6 6 0 0 1 6 9H5Zm2.05 4.95-.707.707A8 8 0 0 0 12 17v-2a6 6 0 0 1-4.243-1.757l-.707.707ZM12 16v1a8 8 0 0 0 5.657-2.343l-.707-.707-.707-.707A6 6 0 0 1 12 15v1Zm4.95-2.05.707.707A8 8 0 0 0 20 9h-2a6 6 0 0 1-1.757 4.243l.707.707ZM19 9h1a8 8 0 0 0-2.343-5.657l-.707.707-.707.707A6 6 0 0 1 18 9h1Zm-2.05-4.95.707-.707A8 8 0 0 0 12 1v2a6 6 0 0 1 4.243 1.757l.707-.707ZM12 2V1a8 8 0 0 0-5.657 2.343l.707.707.707.707A6 6 0 0 1 12 3V2ZM7.05 4.05l-.707-.707A8 8 0 0 0 4 9h2a6 6 0 0 1 1.757-4.243L7.05 4.05ZM12 22h1v-5.89h-2V22h1Zm-3.055-2v1h6v-2h-6v1Z"/>
</svg>
