<svg xmlns="http://www.w3.org/2000/svg" width="24" height="24" fill="none" viewBox="0 0 24 24">
  <path stroke="#000" stroke-linecap="round" stroke-linejoin="round" stroke-width="2" d="M9.658 19.146C4.902 20.573 4.902 16.77 3 16.293M16.316 22v-3.681a3.206 3.206 0 0 0-.894-2.483c2.987-.332 6.126-1.464 6.126-6.658a5.175 5.175 0 0 0-1.427-3.567 4.822 4.822 0 0 0-.086-3.586s-1.122-.332-3.719 1.408c-2.18-.59-4.478-.59-6.658 0C7.061 1.693 5.94 2.025 5.94 2.025a4.822 4.822 0 0 0-.085 3.586 5.174 5.174 0 0 0-1.427 3.596c0 5.155 3.139 6.287 6.125 6.658a3.204 3.204 0 0 0-.894 2.454V22"/>
</svg>
