<svg xmlns="http://www.w3.org/2000/svg" width="20" height="20" fill="none" viewBox="0 0 20 20">
  <path stroke="#000" stroke-linecap="round" stroke-linejoin="round" stroke-width="2" d="M10 1v7m0-7a8.96 8.96 0 0 1 4 .936M10 1a8.963 8.963 0 0 0-4 .936M1.223 8A9.03 9.03 0 0 0 1 10v9h18v-9c0-.687-.077-1.357-.223-2M1.223 8H6M1.223 8A9.017 9.017 0 0 1 6 1.936M18.777 8H14m4.777 0A9.017 9.017 0 0 0 14 1.936M10 8h4m-4 0H6m8 0V1.936M6 8V1.936M10 19v-2m0 2H8a4 4 0 0 1-4-4v-2h2a4 4 0 0 1 4 4m0 2h2a4 4 0 0 0 4-4v-2h-2a4 4 0 0 0-4 4m0 2v-7"/>
</svg>
