<svg xmlns="http://www.w3.org/2000/svg" width="18" height="19" fill="none" viewBox="0 0 18 19">
  <path stroke="#000" stroke-linecap="round" stroke-linejoin="round" stroke-width="2" d="M10 5.126 13 1H9L8 5.126M6.01 6.342A3.99 3.99 0 0 1 9 5a3.99 3.99 0 0 1 2.99 1.342m-5.98 0A3.985 3.985 0 0 0 5 9v5a3.99 3.99 0 0 0 1.01 2.658m0-10.316A3.5 3.5 0 0 0 1 9.5v4a3.5 3.5 0 0 0 5.01 3.158m0 0A3.99 3.99 0 0 0 9 18a3.99 3.99 0 0 0 2.99-1.342m0-10.316A3.985 3.985 0 0 1 13 9v5a3.99 3.99 0 0 1-1.01 2.658m0-10.316A3.5 3.5 0 0 1 17 9.5v4a3.5 3.5 0 0 1-5.01 3.158"/>
</svg>
