<svg xmlns="http://www.w3.org/2000/svg" width="24" height="24" fill="none" viewBox="0 0 24 24">
  <path stroke="#000" stroke-linecap="round" stroke-linejoin="round" stroke-width="2" d="M14 19.01 12.01 21l-8.33-8.35a5.626 5.626 0 0 1-1.27-1.911 5.682 5.682 0 0 1 .117-4.507 5.615 5.615 0 0 1 1.368-1.84 5.535 5.535 0 0 1 1.983-1.13 5.489 5.489 0 0 1 4.429.478 5.576 5.576 0 0 1 1.702 1.528 5.574 5.574 0 0 1 1.705-1.515 5.506 5.506 0 0 1 4.417-.463 5.534 5.534 0 0 1 1.976 1.128 5.616 5.616 0 0 1 1.364 1.835A5.679 5.679 0 0 1 21.837 10m0 0a5.679 5.679 0 0 1-.24.746l.24-.746ZM18 12l.14.379a4.2 4.2 0 0 0 2.482 2.48L21 15l-.378.14a4.2 4.2 0 0 0-2.482 2.482L18 18l-.14-.378a4.2 4.2 0 0 0-2.481-2.482L15 15l.379-.14a4.2 4.2 0 0 0 2.48-2.481L18 12Z"/>
</svg>
