<svg xmlns="http://www.w3.org/2000/svg" width="24" height="24" fill="none" viewBox="0 0 24 24">
  <path fill="#000" d="m10.849 3.353-.564-.825.564.825Zm2.302 0-.564.826.564-.826Zm7 4.78.564-.827-.564.826Zm-16.302 0-.564-.827.564.826Zm.137 12.354a1 1 0 0 0 1.717 1.026l-1.717-1.026Zm14.31 1.026a1 1 0 0 0 1.718-1.026l-1.717 1.026ZM21 9.719h-1v9.34h2V9.72h-1ZM19 21v-1H5v2h14v-1ZM3 19.06h1V9.719H2v9.34h1Zm.849-10.928.564.826 7-4.779-.564-.826-.564-.825-7 4.778.564.826Zm9.302-4.778-.564.825 7 4.78.564-.827.564-.826-7-4.778-.564.825Zm-2.302 0 .564.825a1.05 1.05 0 0 1 1.174 0l.564-.826.564-.825a3.05 3.05 0 0 0-3.43 0l.564.825ZM5 21v-1c-.581 0-1-.45-1-.94H2C2 20.712 3.372 22 5 22v-1Zm16-1.94h-1c0 .49-.419.94-1 .94v2c1.628 0 3-1.288 3-2.94h-1Zm0-9.341h1c0-.97-.487-1.868-1.285-2.413l-.564.826-.564.826A.924.924 0 0 1 20 9.72h1Zm-18 0h1a.92.92 0 0 1 .413-.76l-.564-.827-.564-.826A2.924 2.924 0 0 0 2 9.72h1ZM15 11h-1a2 2 0 0 1-2 2v2a4 4 0 0 0 4-4h-1Zm-3 3v-1a2 2 0 0 1-2-2H8a4 4 0 0 0 4 4v-1Zm-3-3h1a2 2 0 0 1 2-2V7a4 4 0 0 0-4 4h1Zm3-3v1a2 2 0 0 1 2 2h2a4 4 0 0 0-4-4v1ZM4.845 21l.858.513C6.953 19.42 9.298 18 12 18v-2c-3.413 0-6.407 1.797-8.014 4.487l.859.513ZM12 17v1c2.701 0 5.047 1.42 6.297 3.513l.858-.513.859-.513C18.407 17.797 15.414 16 12 16v1Z"/>
</svg>
