<svg xmlns="http://www.w3.org/2000/svg" width="24" height="24" fill="none" viewBox="0 0 24 24">
  <path stroke="#000" stroke-linecap="round" stroke-linejoin="round" stroke-width="2" d="M11 21H5c-1.105 0-2-.869-2-1.94V9.719c0-.631.317-1.223.849-1.587l7-4.778a2.05 2.05 0 0 1 2.302 0l7 4.778c.532.364.849.956.849 1.587V11m-3.5 10 2.93-2.815a1.804 1.804 0 0 0 .004-2.632 1.983 1.983 0 0 0-1.367-.548 1.983 1.983 0 0 0-1.37.542l-.195.189-.196-.189A1.983 1.983 0 0 0 15.94 15a1.983 1.983 0 0 0-1.37.542c-.18.171-.322.376-.42.601a1.805 1.805 0 0 0 .415 2.032L17.5 21Z"/>
</svg>
