<svg xmlns="http://www.w3.org/2000/svg" width="20" height="20" fill="none" viewBox="0 0 20 20">
  <path stroke="#000" stroke-linecap="round" stroke-linejoin="round" stroke-width="2" d="M6 10h8m0 0-3-3m3 3-3 3m4.311-9.3c.185.448.541.804.989.99l1.57.65a1.829 1.829 0 0 1 .99 2.391l-.65 1.57a1.827 1.827 0 0 0 .001 1.4l.65 1.57a1.83 1.83 0 0 1-.991 2.39l-1.57.65a1.83 1.83 0 0 0-.99.99l-.65 1.57a1.83 1.83 0 0 1-2.39.99l-1.57-.65a1.83 1.83 0 0 0-1.4.002l-1.57.65a1.83 1.83 0 0 1-2.39-.99L4.69 16.3a1.83 1.83 0 0 0-.99-.99l-1.57-.65a1.83 1.83 0 0 1-.99-2.39l.65-1.57a1.83 1.83 0 0 0-.001-1.399l-.65-1.572a1.83 1.83 0 0 1 .99-2.39l1.57-.651a1.83 1.83 0 0 0 .99-.988l.651-1.57a1.83 1.83 0 0 1 2.39-.99l1.57.65a1.83 1.83 0 0 0 1.4-.002l1.57-.648a1.83 1.83 0 0 1 2.39.99l.651 1.571V3.7Z"/>
</svg>
