<svg xmlns="http://www.w3.org/2000/svg" width="24" height="24" fill="none" viewBox="0 0 24 24">
  <path fill="#000" d="m14 7 .938-.347a1 1 0 0 0-1.876 0L14 7Zm3 3 .347.938a1 1 0 0 0 0-1.876L17 10Zm-3 3-.938.347a1 1 0 0 0 1.876 0L14 13Zm-3-3-.347-.938a1 1 0 0 0 0 1.876L11 10Zm.379-.14-.348-.938.348.938Zm2.48-2.481.939.347-.938-.347Zm0 5.242-.937.348.938-.348Zm-2.48-2.48.347-.939-.348.938Zm5.243 0 .346.937-.346-.938Zm-2.482 2.48.938.348-.938-.348Zm0-5.242-.938.347.938-.347Zm2.482 2.48.346-.937-.346.938Zm-1.33 11.848a1 1 0 0 0 1.415-1.414l-1.414 1.414Zm-5.878-7.293.707-.707-.707.707Zm-2.828 0-.707-.707.707.707Zm-4.293 2.88a1 1 0 1 0 1.414 1.413l-1.414-1.414ZM14 7l-.938.347.14.379.938-.347.938-.348-.14-.378L14 7Zm2.622 2.86-.348.938.379.14L17 10l.347-.938-.379-.14-.346.938ZM17 10l-.347-.938-.378.14.347.938.346.938.379-.14L17 10Zm-2.86 2.621-.938-.347-.14.379L14 13l.938.347.14-.378-.938-.348ZM14 13l.938-.347-.14-.379-.938.348-.938.347.14.378L14 13Zm-2.621-2.86.347-.938-.379-.14L11 10l-.347.938.378.14.348-.938ZM11 10l.347.938.379-.14-.348-.938-.347-.938-.378.14L11 10Zm2.86-2.621.938.347.14-.379L14 7l-.938-.347-.14.378.938.348Zm-2.481 2.48.347.939a5.2 5.2 0 0 0 3.072-3.072l-.938-.347-.938-.348a3.2 3.2 0 0 1-1.89 1.891l.347.938Zm2.48 2.762.939-.347a5.2 5.2 0 0 0-3.072-3.072l-.348.938-.347.938a3.2 3.2 0 0 1 1.891 1.89l.938-.347Zm2.763-2.48-.348-.939a5.2 5.2 0 0 0-3.072 3.072l.938.348.938.347a3.2 3.2 0 0 1 1.89-1.891l-.346-.938ZM14.14 7.378l-.938.347a5.2 5.2 0 0 0 3.072 3.072l.348-.938.346-.938a3.2 3.2 0 0 1-1.89-1.89l-.938.347ZM5 3v1h14V2H5v1Zm16 2h-1v14h2V5h-1Zm-2 16v-1H5v2h14v-1ZM3 19h1V5H2v14h1Zm2 2v-1a1 1 0 0 1-1-1H2a3 3 0 0 0 3 3v-1Zm16-2h-1a1 1 0 0 1-1 1v2a3 3 0 0 0 3-3h-1ZM19 3v1a1 1 0 0 1 1 1h2a3 3 0 0 0-3-3v1ZM5 3V2a3 3 0 0 0-3 3h2a1 1 0 0 1 1-1V3Zm11 18 .707-.707-6.586-6.586-.707.707-.707.707 6.586 6.586L16 21Zm-9.414-6.586-.707-.707-3.586 3.586L3 18l.707.707 3.586-3.586-.707-.707Zm2.828 0 .707-.707a3 3 0 0 0-4.242 0l.707.707.707.707a1 1 0 0 1 1.414 0l.707-.707Z"/>
</svg>
