<svg xmlns="http://www.w3.org/2000/svg" width="24" height="24" fill="none" viewBox="0 0 24 24">
  <path stroke="#000" stroke-linecap="round" stroke-linejoin="round" stroke-width="2" d="M21 11.5V5a2 2 0 0 0-2-2H5a2 2 0 0 0-2 2v14a2 2 0 0 0 2 2m7 0H5m0 0 9.586-9.586a2 2 0 0 1 2.828 0l.086.086M18 15l.14.379a4.2 4.2 0 0 0 2.482 2.48L21 18l-.378.14a4.2 4.2 0 0 0-2.482 2.482L18 21l-.14-.378a4.2 4.2 0 0 0-2.481-2.482L15 18l.379-.14a4.2 4.2 0 0 0 2.48-2.481L18 15Zm-8-6.5a1.5 1.5 0 1 1-3 0 1.5 1.5 0 0 1 3 0Z"/>
</svg>
