<svg xmlns="http://www.w3.org/2000/svg" width="24" height="24" fill="none" viewBox="0 0 24 24">
  <path fill="#000" d="M6 10a1 1 0 1 0 2 0H6Zm1-3H6h1Zm5-5V1v1Zm4 8a1 1 0 1 0 2 0h-2Zm-3 4a1 1 0 1 0-2 0h2Zm-2 2a1 1 0 1 0 2 0h-2Zm8-1h-1a6 6 0 0 1-6 6v2a8 8 0 0 0 8-8h-1Zm-7 7v-1a6 6 0 0 1-6-6H4a8 8 0 0 0 8 8v-1Zm-7-7h1a6 6 0 0 1 6-6V7a8 8 0 0 0-8 8h1Zm7-7v1a6 6 0 0 1 6 6h2a8 8 0 0 0-8-8v1Zm-5 2h1V7H6v3h1Zm0-3h1a4 4 0 0 1 1.172-2.828l-.708-.708-.707-.707A6 6 0 0 0 6 7h1Zm1.464-3.536.708.708A4 4 0 0 1 12 3V1a6 6 0 0 0-4.243 1.757l.707.707ZM12 2v1a4 4 0 0 1 2.828 1.172l.708-.708.707-.707A6 6 0 0 0 12 1v1Zm3.536 1.464-.708.708A4 4 0 0 1 16 7h2a6 6 0 0 0-1.757-4.243l-.707.707ZM17 7h-1v3h2V7h-1Zm-5 7h-1v2h2v-2h-1Z"/>
</svg>
