<svg xmlns="http://www.w3.org/2000/svg" width="24" height="24" fill="none" viewBox="0 0 24 24">
  <path fill="#000" d="M21 13a1 1 0 1 0 2 0h-2Zm-9 0-.573.82a1 1 0 0 0 1.146 0L12 13Zm-1 8a1 1 0 1 0 0-2v2Zm9.707-4.293a1 1 0 0 0-1.414-1.414l1.414 1.414ZM16 20l-.707.707a1 1 0 0 0 1.414 0L16 20Zm-1.293-2.707a1 1 0 0 0-1.414 1.414l1.414-1.414ZM4 4v1h16V3H4v1Zm16 0v1c.548 0 1 .452 1 1h2c0-1.652-1.348-3-3-3v1Zm2 2h-1v7h2V6h-1ZM4 20v-1c-.548 0-1-.452-1-1H1c0 1.652 1.348 3 3 3v-1Zm-2-2h1V6H1v12h1ZM2 6h1c0-.548.452-1 1-1V3C2.348 3 1 4.348 1 6h1Zm20 0-.573-.82-10 7L12 13l.573.82 10-7L22 6Zm-10 7 .573-.82-10-7L2 6l-.573.82 10 7L12 13Zm-1 7v-1H4v2h7v-1Zm9-4-.707-.707-4 4L16 20l.707.707 4-4L20 16Zm-4 4 .707-.707-2-2L14 18l-.707.707 2 2L16 20Z"/>
</svg>
