<svg xmlns="http://www.w3.org/2000/svg" width="24" height="24" fill="none" viewBox="0 0 24 24">
  <path fill="#000" d="m6.178 15.487.746-.666-.009-.01-.009-.01-.728.686Zm11.644 0-.728-.686-.01.01-.008.01.746.666ZM12 22l-.746.666a1 1 0 0 0 1.492 0L12 22ZM4 10h1a7 7 0 0 1 7-7V1a9 9 0 0 0-9 9h1Zm8-8v1a7 7 0 0 1 7 7h2a9 9 0 0 0-9-9v1ZM6.178 15.487l.728-.686A6.972 6.972 0 0 1 5 10H3c0 2.39.932 4.563 2.45 6.173l.728-.686ZM20 10h-1c0 1.86-.723 3.547-1.906 4.801l.728.686.727.686A8.972 8.972 0 0 0 21 10h-1Zm-8 12 .746.666 5.821-6.512-.745-.667-.746-.666-5.822 6.513L12 22Zm0 0 .746-.666-5.822-6.513-.746.666-.745.667 5.821 6.512L12 22Zm3-12h-1a2 2 0 0 1-2 2v2a4 4 0 0 0 4-4h-1Zm-3 3v-1a2 2 0 0 1-2-2H8a4 4 0 0 0 4 4v-1Zm-3-3h1a2 2 0 0 1 2-2V6a4 4 0 0 0-4 4h1Zm3-3v1a2 2 0 0 1 2 2h2a4 4 0 0 0-4-4v1Z"/>
</svg>
