<svg xmlns="http://www.w3.org/2000/svg" width="20" height="20" fill="none" viewBox="0 0 20 20">
  <path stroke="#000" stroke-linecap="round" stroke-linejoin="round" stroke-width="2" d="M18.485 9.086c-.976.976-3.35.185-5.303-1.768-1.953-1.953-2.744-4.327-1.768-5.303m7.071 7.07c.977-.976.185-3.35-1.767-5.303-1.953-1.952-4.328-2.744-5.304-1.767m7.071 7.07s-2.398 1.475-3.535 2.83c-.64.762-1.414 2.12-1.414 2.12-.977.977-3.351.185-5.304-1.767m3.182-10.253S9.94 4.413 8.586 5.55c-.763.64-2.122 1.414-2.122 1.414-.976.977-.184 3.351 1.768 5.304m0 0-2.828 2.828m-3.536 3.536L3.99 16.51m0 0 3.182 1.061m-3.182-1.06 1.414-1.415m0 0L3.99 12.268m11.313-7.071 2.829-2.829"/>
</svg>
