<svg xmlns="http://www.w3.org/2000/svg" width="24" height="24" fill="none" viewBox="0 0 24 24">
  <path fill="#000" d="M20 11a1 1 0 1 0-2 0h2ZM6 11a1 1 0 1 0-2 0h2Zm6-9V1v1Zm-1 20a1 1 0 1 0 2 0h-2Zm8-11h-1a6 6 0 0 1-6 6v2a8 8 0 0 0 8-8h-1Zm-7 7v-1a6 6 0 0 1-6-6H4a8 8 0 0 0 8 8v-1ZM9 5h1a2 2 0 0 1 .586-1.414l-.707-.707-.707-.707A4 4 0 0 0 8 5h1Zm.879-2.121.707.707A2 2 0 0 1 12 3V1a4 4 0 0 0-2.828 1.172l.707.707ZM12 2v1a2 2 0 0 1 1.414.586l.707-.707.707-.707A4 4 0 0 0 12 1v1Zm2.121.879-.707.707A2 2 0 0 1 14 5h2a4 4 0 0 0-1.172-2.828l-.707.707ZM15 5h-1v6h2V5h-1Zm0 6h-1a2 2 0 0 1-.586 1.414l.707.707.707.707A4 4 0 0 0 16 11h-1Zm-.879 2.121-.707-.707A2 2 0 0 1 12 13v2a4 4 0 0 0 2.828-1.172l-.707-.707ZM12 14v-1a2 2 0 0 1-1.414-.586l-.707.707-.707.707A4 4 0 0 0 12 15v-1Zm-2.121-.879.707-.707A2 2 0 0 1 10 11H8a4 4 0 0 0 1.172 2.828l.707-.707ZM9 11h1V5H8v6h1Zm3 7h-1v4h2v-4h-1Z"/>
</svg>
