<svg xmlns="http://www.w3.org/2000/svg" width="20" height="20" fill="none" viewBox="0 0 20 20">
  <path stroke="#000" stroke-linecap="round" stroke-linejoin="round" stroke-width="2" d="M9 15c-.53 0-1.027-.137-1.459-.378C5.715 13.604 7 11.091 7 9c0-1.235-1-3-1-3m3 9c.53 0 1.027-.137 1.459-.378C12.285 13.604 13 11.091 13 9c0-2.09-.715-4.604-2.541-5.622A2.987 2.987 0 0 0 9 3m0 12v2M9 3a3 3 0 0 0-3 3m3-3V1M6 6H4m8.784 1H15M5 2l1.879 1.879M13.414 3l-1.62 1.62m-.176 8.998 1.796 1.796M12.784 11H15M5 10h1.923M5 15l1.869-1M1 5V4m17 12v-1m0-5h1m-7 9h1M2 12h1m16-9.5a1.5 1.5 0 1 1-3 0 1.5 1.5 0 0 1 3 0ZM3 18a1 1 0 1 1-2 0 1 1 0 0 1 2 0Z"/>
</svg>
