<svg xmlns="http://www.w3.org/2000/svg" width="20" height="20" fill="none" viewBox="0 0 20 20">
  <path stroke="#000" stroke-linecap="round" stroke-linejoin="round" stroke-width="2" d="M17 2h2m-1 1V1M1 2h2M2 3V1M1 14.018c.499-.076 1.001.097 1.5.481.833.643 1.667.643 2.5 0 .833-.642 1.667-.642 2.5 0 .833.643 1.667.643 2.5 0 .833-.642 1.667-.642 2.5 0 .833.643 1.667.643 2.5 0 .833-.642 1.667-.642 2.5 0 .502.387.998.561 1.5.482M1 18.017c.499-.075 1.001.098 1.5.483.833.642 1.667.642 2.5 0 .833-.643 1.667-.643 2.5 0 .833.642 1.667.642 2.5 0 .833-.643 1.667-.643 2.5 0 .833.642 1.667.642 2.5 0 .833-.643 1.667-.643 2.5 0 .502.386.998.56 1.5.481M6.111 11C4.393 11 3 9.657 3 8s1.393-3 3.111-3h.078c.36-1.71 1.93-3 3.811-3 2.148 0 3.889 1.679 3.889 3.75v.027c.127-.018.257-.027.389-.027C15.78 5.75 17 6.925 17 8.375c0 1.322-1.014 2.416-2.333 2.598V11H6.11Z"/>
</svg>
