<svg xmlns="http://www.w3.org/2000/svg" width="14" height="20" fill="none" viewBox="0 0 14 20">
  <path stroke="#000" stroke-linecap="round" stroke-linejoin="round" stroke-width="2" d="M5 6H3.667C2.747 6 2 6.746 2 7.667V11a5.001 5.001 0 0 0 3.04 4.601M5 6a2 2 0 1 0 4 0M5 6a2 2 0 0 1 2-2m2 2h1.333C11.253 6 12 6.746 12 7.667V11a5.001 5.001 0 0 1-3.04 4.601M9 6a2 2 0 0 0-2-2M5.04 15.601A2.01 2.01 0 0 0 5 16v1a2 2 0 1 0 4 0v-1c0-.137-.014-.27-.04-.399m-3.92 0A4.983 4.983 0 0 0 7 16c.696 0 1.358-.142 1.96-.399M1 2l1.789-.894A1 1 0 0 1 3.236 1h7.528a1 1 0 0 1 .447.106L13 2m-5 9H6M7 1v3"/>
</svg>
