<svg xmlns="http://www.w3.org/2000/svg" width="24" height="24" fill="none" viewBox="0 0 24 24">
  <path fill="#000" d="M12 7a1 1 0 1 0 0 2V7Zm.02 2a1 1 0 1 0 0-2v2ZM12 15a1 1 0 1 0 0 2v-2Zm.02 2a1 1 0 1 0 0-2v2ZM16 11a1 1 0 1 0 0 2v-2Zm.02 2a1 1 0 1 0 0-2v2ZM8 11a1 1 0 1 0 0 2v-2Zm.02 2a1 1 0 1 0 0-2v2Zm11.18 4.4a1 1 0 0 0 1.6 1.202L19.2 17.4ZM21 23a1 1 0 1 0 0-2v2ZM12 8v1h.02V7H12v1Zm1 0h-1v2a2 2 0 0 0 2-2h-1Zm-1 1V8h-2a2 2 0 0 0 2 2V9Zm-1-1h1V6a2 2 0 0 0-2 2h1Zm1-1v1h2a2 2 0 0 0-2-2v1Zm0 9v1h.02v-2H12v1Zm1 0h-1v2a2 2 0 0 0 2-2h-1Zm-1 1v-1h-2a2 2 0 0 0 2 2v-1Zm-1-1h1v-2a2 2 0 0 0-2 2h1Zm1-1v1h2a2 2 0 0 0-2-2v1Zm4-3v1h.02v-2H16v1Zm1 0h-1v2a2 2 0 0 0 2-2h-1Zm-1 1v-1h-2a2 2 0 0 0 2 2v-1Zm-1-1h1v-2a2 2 0 0 0-2 2h1Zm1-1v1h2a2 2 0 0 0-2-2v1Zm-8 1v1h.02v-2H8v1Zm1 0H8v2a2 2 0 0 0 2-2H9Zm-1 1v-1H6a2 2 0 0 0 2 2v-1Zm-1-1h1v-2a2 2 0 0 0-2 2h1Zm1-1v1h2a2 2 0 0 0-2-2v1Zm4 11v-1a9 9 0 0 1-9-9H1c0 6.075 4.925 11 11 11v-1ZM2 12h1a9 9 0 0 1 9-9V1C5.925 1 1 5.925 1 12h1ZM12 2v1a9 9 0 0 1 9 9h2c0-6.075-4.925-11-11-11v1Zm10 10h-1c0 2.028-.67 3.896-1.8 5.4l.8.601.8.6A10.955 10.955 0 0 0 23 12h-1ZM12 22v1h9v-2h-9v1Z"/>
</svg>
