<svg xmlns="http://www.w3.org/2000/svg" width="24" height="24" fill="none" viewBox="0 0 24 24">
  <path fill="#000" d="M19 11a1 1 0 1 0 0 2v-2Zm.01 2a1 1 0 1 0 0-2v2ZM5 11a1 1 0 1 0 0 2v-2Zm.01 2a1 1 0 1 0 0-2v2ZM14 10a1 1 0 1 0 0-2v2Zm-4 4a1 1 0 1 0 0 2v-2Zm3-6a1 1 0 1 0-2 0h2Zm-2 8a1 1 0 1 0 2 0h-2ZM4 5v1h16V4H4v1Zm18 2h-1v10h2V7h-1Zm-2 12v-1H4v2h16v-1ZM2 17h1V7H1v10h1Zm2 2v-1a1 1 0 0 1-1-1H1a3 3 0 0 0 3 3v-1Zm18-2h-1a1 1 0 0 1-1 1v2a3 3 0 0 0 3-3h-1ZM20 5v1a1 1 0 0 1 1 1h2a3 3 0 0 0-3-3v1ZM4 5V4a3 3 0 0 0-3 3h2a1 1 0 0 1 1-1V5Zm15 7v1h.01v-2H19v1ZM5 12v1h.01v-2H5v1Zm9-3V8h-2v2h2V9Zm-2 0V8h-.5v2h.5V9Zm-.5 3v1h1v-2h-1v1Zm1 3v-1H12v2h.5v-1Zm-.5 0v-1h-2v2h2v-1Zm2-1.5h-1a.5.5 0 0 1-.5.5v2a2.5 2.5 0 0 0 2.5-2.5h-1ZM12.5 12v1a.5.5 0 0 1 .5.5h2a2.5 2.5 0 0 0-2.5-2.5v1ZM10 10.5H9a2.5 2.5 0 0 0 2.5 2.5v-2a.5.5 0 0 1-.5-.5h-1ZM11.5 9V8A2.5 2.5 0 0 0 9 10.5h2a.5.5 0 0 1 .5-.5V9Zm.5-1h-1v1h2V8h-1Zm0 7h-1v1h2v-1h-1Z"/>
</svg>
