<svg xmlns="http://www.w3.org/2000/svg" width="24" height="24" fill="none" viewBox="0 0 24 24">
  <path fill="#000" d="M6.772 4.667a1 1 0 1 0-1.886.666l1.886-.666Zm-4.439 3.22a1 1 0 0 0-.666 1.885l.666-1.886Zm16.78-2.554a1 1 0 1 0-1.885-.666l1.885.666Zm3.22 4.44a1 1 0 1 0-.666-1.887l.666 1.886Zm-5.105 9.56a1 1 0 1 0 1.885-.666l-1.885.666Zm4.439-3.22a1 1 0 1 0 .666-1.885l-.666 1.885Zm-16.78 2.554a1 1 0 1 0 1.885.666l-1.886-.666Zm-3.22-4.44a1 1 0 1 0 .666 1.886l-.666-1.885ZM14 10a1 1 0 1 0 0-2v2Zm-4 4a1 1 0 1 0 0 2v-2Zm3-6a1 1 0 1 0-2 0h2Zm-2 8a1 1 0 1 0 2 0h-2ZM4 5v1h16V4H4v1Zm18 2h-1v10h2V7h-1Zm-2 12v-1H4v2h16v-1ZM2 17h1V7H1v10h1Zm2 2v-1a1 1 0 0 1-1-1H1a3 3 0 0 0 3 3v-1Zm18-2h-1a1 1 0 0 1-1 1v2a3 3 0 0 0 3-3h-1ZM20 5v1a1 1 0 0 1 1 1h2a3 3 0 0 0-3-3v1ZM4 5V4a3 3 0 0 0-3 3h2a1 1 0 0 1 1-1V5Zm2 1H5a2 2 0 0 1-2 2v2a4 4 0 0 0 4-4H6Zm-.17-1-.944.333C4.96 5.54 5 5.764 5 6h2c0-.466-.08-.915-.228-1.333L5.83 5ZM3 9V8c-.236 0-.46-.04-.667-.114L2 8.83l-.333.943C2.085 9.92 2.534 10 3 10V9Zm15-3h-1a4 4 0 0 0 4 4V8a2 2 0 0 1-2-2h-1Zm.17-1-.942-.333A3.994 3.994 0 0 0 17 6h2a2 2 0 0 1 .113-.667L18.171 5ZM21 9v1c.466 0 .915-.08 1.333-.228L22 8.83l-.333-.943A1.996 1.996 0 0 1 21 8v1Zm-3 9h1a2 2 0 0 1 2-2v-2a4 4 0 0 0-4 4h1Zm.17 1 .943-.333A1.997 1.997 0 0 1 19 18h-2c0 .466.08.915.228 1.333L18.17 19ZM21 15v1c.235 0 .46.04.667.113l.333-.942.333-.943A3.994 3.994 0 0 0 21 14v1ZM6 18h1a4 4 0 0 0-4-4v2a2 2 0 0 1 2 2h1Zm-.17 1 .942.333C6.92 18.915 7 18.466 7 18H5c0 .235-.04.46-.114.667L5.83 19ZM3 15v-1c-.466 0-.915.08-1.333.228L2 15.17l.333.942C2.54 16.04 2.764 16 3 16v-1Zm11-6V8h-2v2h2V9Zm-2 0V8h-.5v2h.5V9Zm-.5 3v1h1v-2h-1v1Zm1 3v-1H12v2h.5v-1Zm-.5 0v-1h-2v2h2v-1Zm2-1.5h-1a.5.5 0 0 1-.5.5v2a2.5 2.5 0 0 0 2.5-2.5h-1ZM12.5 12v1a.5.5 0 0 1 .5.5h2a2.5 2.5 0 0 0-2.5-2.5v1ZM10 10.5H9a2.5 2.5 0 0 0 2.5 2.5v-2a.5.5 0 0 1-.5-.5h-1ZM11.5 9V8A2.5 2.5 0 0 0 9 10.5h2a.5.5 0 0 1 .5-.5V9Zm.5-1h-1v1h2V8h-1Zm0 7h-1v1h2v-1h-1Z"/>
</svg>
