<svg xmlns="http://www.w3.org/2000/svg" width="20" height="20" fill="none" viewBox="0 0 20 20">
  <path stroke="#000" stroke-linecap="round" stroke-linejoin="round" stroke-width="2" d="M10 16s-2.71-.801-4.5-.994c-1.747-.189-4.5 0-4.5 0V1.084s2.753-.189 4.5 0c1.79.193 4.5.994 4.5.994M10 16V2.078M10 16s2.71-.801 4.5-.994c1.747-.189 4.5 0 4.5 0V1.084s-2.753-.189-4.5 0c-1.79.193-4.5.994-4.5.994m-9 16s2.753-.175 4.5 0C7.29 18.257 10 19 10 19s2.71-.743 4.5-.922c1.747-.175 4.5 0 4.5 0M4 5.003c.524.007 1.046.03 1.5.075.46.046.98.129 1.5.227m9-.302c-.524.007-1.046.03-1.5.075-.46.046-.98.129-1.5.227M4 8c.524.007 1.046.03 1.5.075.46.046.98.129 1.5.227M16 8c-.524.007-1.046.03-1.5.075-.46.046-.98.129-1.5.227m-9 2.695c.524.008 1.046.03 1.5.075.46.046.98.129 1.5.227m9-.302c-.524.008-1.046.03-1.5.075-.46.046-.98.129-1.5.227"/>
</svg>
