<svg xmlns="http://www.w3.org/2000/svg" width="20" height="18" fill="none" viewBox="0 0 20 18">
  <path stroke="#000" stroke-linecap="round" stroke-linejoin="round" stroke-width="2" d="M4 14.014V17h8v-2.986m-8 0-2.567-2.836a1.526 1.526 0 0 1-.008-2.121 1.423 1.423 0 0 1 2.054 0l.75.771V9c0-2.21 1.739-4 3.885-4S12 6.79 12 9v1.014m-8 4h8m0 0V13m0 0v-2.986M12 13h4v-2.986m-4 0h4M8 5c0-2.21 1.74-4 3.886-4s3.886 1.79 3.886 4v.828l.75-.771a1.423 1.423 0 0 1 2.053 0c.57.586.566 1.539-.008 2.121L16 10.014"/>
</svg>
