<svg xmlns="http://www.w3.org/2000/svg" width="20" height="20" fill="none" viewBox="0 0 20 20">
  <path stroke="#000" stroke-linecap="round" stroke-linejoin="round" stroke-width="2" d="M15 13c0 1.657-3.134 3-7 3s-7-1.343-7-3m14 0c0-.621-.44-1.198-1.194-1.677M15 13v3c0 1.657-3.134 3-7 3s-7-1.343-7-3v-3m0 0c0-1.657 3.134-3 7-3 .66 0 1.298.04 1.904.112m0 0 6.69-3.862a1.5 1.5 0 1 1 1.5 2.598l-4.288 2.475m-3.902-1.21c1.611.194 2.987.63 3.902 1.21M6 1c0 1.235-1 1.765-1 3s1 2 1 3M3 1c0 1.235-1 1.765-1 3s1 2 1 3m6-6c0 1.235-1 1.765-1 3s1 2 1 3"/>
</svg>
