<svg xmlns="http://www.w3.org/2000/svg" width="24" height="24" fill="none" viewBox="0 0 24 24">
  <path stroke="#000" stroke-linecap="round" stroke-linejoin="round" stroke-width="2" d="M18.084 6.693c1.899 1.117 2.793 3.128 2.793 5.363 0 2.793-2.793 5.028-5.587 5.028h-2.905l-.67 4.022a1.118 1.118 0 0 1-1.117.894H7.58a.558.558 0 0 1-.559-.67l.224-1.565m2.458-6.592h2.793c2.793 0 5.587-2.793 5.587-5.586C18.084 4.235 15.96 2 12.497 2H6.352c-.559 0-1.117.559-1.117 1.117L3 18.76c0 .558.559 1.117 1.117 1.117h3.129l1.34-5.587c.112-.67.447-1.117 1.118-1.117Z"/>
</svg>
