<svg xmlns="http://www.w3.org/2000/svg" width="24" height="24" fill="none" viewBox="0 0 24 24">
  <path stroke="#000" stroke-linecap="round" stroke-linejoin="round" stroke-width="2" d="m2 2 14.807 3.574 1.531 7.659-5.105 5.105-7.659-1.531L2 2Zm0 0 6.637 6.637m7.36 13.064 5.704-5.704a1.021 1.021 0 0 0 0-1.444l-1.62-1.62a1.021 1.021 0 0 0-1.444 0l-5.704 5.704a1.021 1.021 0 0 0 0 1.445l1.62 1.619a1.021 1.021 0 0 0 1.444 0Zm-3.786-11.532a2.042 2.042 0 1 1-4.084 0 2.042 2.042 0 0 1 4.084 0Z"/>
</svg>
