<svg xmlns="http://www.w3.org/2000/svg" width="24" height="24" fill="none" viewBox="0 0 24 24">
  <path stroke="#000" stroke-linecap="round" stroke-linejoin="round" stroke-width="2" d="M16.346 3.799A2.727 2.727 0 0 1 20.2 7.654L6.868 21H3v-3.868L16.346 3.8Z"/>
  <path stroke="#000" stroke-linejoin="round" stroke-width="2" d="m18 15 .14.379a4.2 4.2 0 0 0 2.482 2.48L21 18l-.378.14a4.2 4.2 0 0 0-2.482 2.482L18 21l-.14-.378a4.2 4.2 0 0 0-2.481-2.482L15 18l.379-.14a4.2 4.2 0 0 0 2.48-2.481L18 15ZM16.346 3.799A2.727 2.727 0 0 1 20.2 7.654L6.868 21H3v-3.868L16.346 3.8Z"/>
  <path stroke="#000" stroke-linejoin="round" stroke-width="2" d="m18 15 .14.379a4.2 4.2 0 0 0 2.482 2.48L21 18l-.378.14a4.2 4.2 0 0 0-2.482 2.482L18 21l-.14-.378a4.2 4.2 0 0 0-2.481-2.482L15 18l.379-.14a4.2 4.2 0 0 0 2.48-2.481L18 15Z"/>
</svg>
