<svg xmlns="http://www.w3.org/2000/svg" width="24" height="24" fill="none" viewBox="0 0 24 24">
  <path stroke="#000" stroke-linecap="round" stroke-linejoin="round" stroke-width="2" d="m16 8 5-5m-5 5V4m0 4h4M4.118 4h2.88a2 2 0 0 1 1.858 1.257l1.064 2.66c.317.794.012 1.7-.721 2.14-.777.466-1.078 1.46-.57 2.21a11.647 11.647 0 0 0 3.104 3.103c.75.51 1.743.208 2.21-.569a1.742 1.742 0 0 1 2.14-.72l2.66 1.063A2 2 0 0 1 20 17.001v2.881A2.118 2.118 0 0 1 17.882 22 16.941 16.941 0 0 1 2 6.118 2.118 2.118 0 0 1 4.118 4Z"/>
</svg>
