<svg xmlns="http://www.w3.org/2000/svg" width="24" height="24" fill="none" viewBox="0 0 24 24">
  <path fill="#000" d="M4.118 4V3v1Zm13.764 18-.06.998.06.002v-1ZM2 6.118H1c0 .02 0 .04.002.06L2 6.118Zm16.743 9.026-.372.929.372-.929Zm-4.8-.343-.858-.514.858.514Zm2.14-.72.371-.93-.371.93Zm-4.35 1.29.56-.828-.56.827Zm-2.534-5.314.514.858-.514-.858Zm-.57 2.21-.827.562.828-.562Zm1.29-4.35.93-.371-.93.371Zm-1.063-2.66.928-.371-.928.371Zm5.335-.238a1 1 0 0 0-.383 1.962l.383-1.962Zm2.387 2.353-.707.707.707-.707Zm.39 2.77a1 1 0 1 0 1.963-.383l-1.963.383Zm-2.857-9.136a1 1 0 0 0-.222 1.988l.222-1.988Zm5.289 3.59-.707.708.707-.708Zm1.606 5.515a1 1 0 1 0 1.988-.223l-1.988.223ZM4.118 4v1h2.88V3h-2.88v1Zm4.738 1.257-.929.372 1.064 2.66.929-.372.928-.371-1.064-2.66-.928.371Zm-.226 7.01-.828.562c.9 1.326 2.043 2.47 3.37 3.37l.56-.829.562-.827a10.648 10.648 0 0 1-2.837-2.837l-.827.562Zm7.453 1.813-.371.929 2.66 1.064.37-.929.372-.928-2.66-1.064-.371.928ZM20 17.001h-1v2.881h2v-2.88h-1Zm0 2.881h-1c0 .297-.118.581-.327.79l.707.708.707.707A3.118 3.118 0 0 0 21 19.882h-1Zm-.62 1.498-.707-.707c-.21.21-.494.327-.79.327v2c.826 0 1.62-.328 2.204-.913l-.707-.707Zm-1.498.62.061-.998a15.94 15.94 0 0 1-10.305-4.64l-.707.707-.707.707a17.942 17.942 0 0 0 11.598 5.222l.06-.998ZM6.931 17.07l.707-.708a15.94 15.94 0 0 1-4.64-10.305L2 6.117l-.998.061a17.94 17.94 0 0 0 5.222 11.598l.707-.707ZM2 6.117h1c0-.297.118-.581.327-.79L2.62 4.62l-.707-.707A3.118 3.118 0 0 0 1 6.118h1Zm.62-1.498.707.707c.21-.21.494-.327.79-.327V3c-.826 0-1.62.328-2.204.913l.707.707Zm16.123 10.524-.372.929A1 1 0 0 1 19 17h2a3 3 0 0 0-1.886-2.785l-.371.928Zm-4.8-.343.857.515a.741.741 0 0 1 .911-.307l.372-.929.371-.928a2.741 2.741 0 0 0-3.369 1.135l.858.514Zm-2.21.57-.562.827c1.3.882 2.917.306 3.63-.882l-.858-.515-.858-.514c-.22.366-.591.391-.791.256l-.562.827Zm-2.534-5.314L8.684 9.2c-1.188.713-1.764 2.328-.882 3.629l.828-.562.827-.56c-.135-.2-.11-.573.256-.792l-.514-.858Zm.72-2.14-.928.371a.741.741 0 0 1-.307.912l.515.857.514.858a2.741 2.741 0 0 0 1.135-3.37l-.928.372ZM7 4v1a1 1 0 0 1 .928.629l.929-.372.928-.371A3 3 0 0 0 7 3v1Zm7 2-.191.981A4 4 0 0 1 15.87 8.08l.707-.707.707-.707A6 6 0 0 0 14.19 5.02L14 6Zm2.578 1.372-.707.707a4 4 0 0 1 1.097 2.063l.982-.192.982-.191a6 6 0 0 0-1.647-3.094l-.707.707ZM14 2l-.11.994a8.052 8.052 0 0 1 4.803 2.31l.707-.708.707-.707a10.052 10.052 0 0 0-5.996-2.883L14 2Zm5.4 2.596-.707.708a8.072 8.072 0 0 1 2.313 4.807L22 10l.994-.112a10.073 10.073 0 0 0-2.887-5.999l-.707.707Z"/>
</svg>
