<svg xmlns="http://www.w3.org/2000/svg" width="24" height="24" fill="none" viewBox="0 0 24 24">
  <path stroke="#000" stroke-linecap="round" stroke-linejoin="round" stroke-width="2" d="M4.998 14.759A16.884 16.884 0 0 1 2 6.118 2.118 2.118 0 0 1 4.118 4h2.204a3 3 0 0 1 2.785 1.886l.812 2.03a1.743 1.743 0 0 1-.721 2.142l-.71.426c-.376.225-.52.703-.3 1.081m1.855 2.411c.517.515 1.082.982 1.69 1.394.75.509 1.744.208 2.21-.569a1.741 1.741 0 0 1 2.14-.72l2.031.812A3 3 0 0 1 20 17.678v2.204A2.118 2.118 0 0 1 17.882 22 16.902 16.902 0 0 1 6.93 17.07M3 21 21 3"/>
</svg>
