<svg xmlns="http://www.w3.org/2000/svg" width="20" height="20" fill="none" viewBox="0 0 20 20">
  <path stroke="#000" stroke-linejoin="round" stroke-width="2" d="M2.446 5 1.182 3.242c-.426-.592-.067-1.388.69-1.505C3.796 1.44 7.136 1 10 1s6.205.44 8.128.737c.757.117 1.116.913.69 1.505L17.554 5M2.446 5l1.511 2.8M2.447 5S6.762 4 10 4s7.554 1 7.554 1m0 0L15.1 9.546m0 0A3.4 3.4 0 0 0 13.237 9C11.45 9 10 10.343 10 12c0 1.333.939 2.463 2.237 2.854M15.1 9.546l-2.864 5.308m0 0L10 19l-4.316-8m0 0c1.192 0 2.158-.895 2.158-2s-.966-2-2.158-2c-.706 0-1.333.314-1.727.8M5.684 11 3.957 7.8"/>
</svg>
