<svg xmlns="http://www.w3.org/2000/svg" width="24" height="24" fill="none" viewBox="0 0 24 24">
  <path fill="#000" d="M13.994 13a1 1 0 1 0 0 2v-2Zm1.998 4a1 1 0 1 0 2 0h-2Zm1 5a1 1 0 1 0 0-2v2Zm-1.998-4a1 1 0 1 0-2 0h2Zm6.996 0a1 1 0 1 0-2 0h2Zm-2 3a1 1 0 1 0 2 0h-2Zm1-8a1 1 0 1 0 0 2v-2Zm.01 2a1 1 0 1 0 0-2v2ZM4 3v1h4.997V2H3.999v1Zm5.996 1h-1v5h2V4h-1Zm-1 6V9H4v2h4.998v-1ZM3 9h1V4H2v5h1Zm1 1V9H2a2 2 0 0 0 2 2v-1Zm5.996-1h-1v2a2 2 0 0 0 2-2h-1Zm-1-6v1h2a2 2 0 0 0-2-2v1ZM4 3V2a2 2 0 0 0-2 2h2V3Zm0 11v1h4.998v-2H3.999v1Zm5.997 1h-1v5h2v-5h-1Zm-1 6v-1H4v2h4.998v-1ZM3 20h1v-5H2v5h1Zm1 1v-1H2a2 2 0 0 0 2 2v-1Zm5.996-1h-1v2a2 2 0 0 0 2-2h-1Zm-1-6v1h2a2 2 0 0 0-2-2v1ZM4 14v-1a2 2 0 0 0-2 2h2v-1ZM14.993 3v1h4.998V2h-4.998v1Zm5.997 1h-1v5h2V4h-1Zm-1 6V9h-4.997v2h4.998v-1Zm-5.996-1h1V4h-2v5h1Zm1 1V9h-2a2 2 0 0 0 2 2v-1Zm5.996-1h-1v2a2 2 0 0 0 2-2h-1Zm-1-6v1h2a2 2 0 0 0-2-2v1Zm-4.997 0V2a2 2 0 0 0-2 2h2V3Zm1 11v-1h-2v2h2v-1Zm1 3h1v-2h-2v2h1Zm-1-3v1h2a2 2 0 0 0-2-2v1Zm-1 7v1h2v-2h-2v1Zm-1-3h-1v2h2v-2h-1Zm1 3v-1h-2a2 2 0 0 0 2 2v-1Zm5.997-3h-1v3h2v-3h-1Zm0-4v1H21v-2h-.01v1Z"/>
</svg>
