<svg xmlns="http://www.w3.org/2000/svg" width="24" height="24" fill="none" viewBox="0 0 24 24">
  <path fill="#000" d="M1 6a1 1 0 0 0 2 0H1Zm1-4V1a1 1 0 0 0-1 1h1Zm4 1a1 1 0 0 0 0-2v2ZM3 18a1 1 0 1 0-2 0h2Zm-1 4H1a1 1 0 0 0 1 1v-1Zm4 1a1 1 0 1 0 0-2v2ZM21 6a1 1 0 1 0 2 0h-2Zm1-4h1a1 1 0 0 0-1-1v1Zm-4-1a1 1 0 1 0 0 2V1Zm5 17a1 1 0 1 0-2 0h2Zm-1 4v1a1 1 0 0 0 1-1h-1Zm-4-1a1 1 0 1 0 0 2v-2Zm-1-6a1 1 0 1 0 2 0h-2Zm2-1a1 1 0 1 0-2 0h2Zm-1 5a1 1 0 1 0 0-2v2Zm-4-2a1 1 0 1 0 0 2v-2Zm0-4a1 1 0 1 0 0 2v-2Zm1 2a1 1 0 1 0 0-2v2ZM2 6h1V2H1v4h1Zm0-4v1h4V1H2v1Zm0 16H1v4h2v-4H2Zm0 4v1h4v-2H2v1ZM22 6h1V2h-2v4h1Zm0-4V1h-4v2h4V2Zm0 16h-1v4h2v-4h-1Zm0 4v-1h-4v2h4v-1ZM7 6v1h2V5H7v1Zm3 1H9v2h2V7h-1Zm-1 3V9H7v2h2v-1ZM6 9h1V7H5v2h1Zm1 1V9H5a2 2 0 0 0 2 2v-1Zm3-1H9v2a2 2 0 0 0 2-2h-1ZM9 6v1h2a2 2 0 0 0-2-2v1ZM7 6V5a2 2 0 0 0-2 2h2V6Zm0 8v1h2v-2H7v1Zm3 1H9v2h2v-2h-1Zm-1 3v-1H7v2h2v-1Zm-3-1h1v-2H5v2h1Zm1 1v-1H5a2 2 0 0 0 2 2v-1Zm3-1H9v2a2 2 0 0 0 2-2h-1Zm-1-3v1h2a2 2 0 0 0-2-2v1Zm-2 0v-1a2 2 0 0 0-2 2h2v-1Zm8-8v1h2V5h-2v1Zm3 1h-1v2h2V7h-1Zm-1 3V9h-2v2h2v-1Zm-3-1h1V7h-2v2h1Zm1 1V9h-2a2 2 0 0 0 2 2v-1Zm3-1h-1v2a2 2 0 0 0 2-2h-1Zm-1-3v1h2a2 2 0 0 0-2-2v1Zm-2 0V5a2 2 0 0 0-2 2h2V6Zm3 9h1v-1h-2v1h1Zm0 3v-1h-4v2h4v-1Zm-4-4v1h1v-2h-1v1Z"/>
</svg>
