<svg xmlns="http://www.w3.org/2000/svg" width="16" height="20" fill="none" viewBox="0 0 16 20">
  <path stroke="#000" stroke-linecap="round" stroke-linejoin="round" stroke-width="2" d="M1 4a6 6 0 0 1 6 6v.125M1 4V1a9 9 0 0 1 9 9v.533M1 4v3a3 3 0 0 1 3 3v3m3-2.875c-1.418.363-2.517 1.478-2.811 2.876L4.11 13C2.393 13 1 14.343 1 16s1.393 3 3.111 3h8.556v-.027C13.986 18.792 15 17.697 15 16.375c0-1.45-1.219-2.625-2.722-2.625-.132 0-.262.01-.39.027v-.027c0-1.366-.756-2.561-1.888-3.217m-3-.408a4.032 4.032 0 0 1 3 .408"/>
</svg>
