<svg xmlns="http://www.w3.org/2000/svg" width="24" height="24" fill="none" viewBox="0 0 24 24">
  <path fill="#000" d="M4 22H3a1 1 0 0 0 1.544.84L4 22ZM6.286 2V1v1Zm11.428 0V1v1ZM20 22l-.544.84A1 1 0 0 0 21 22h-1Zm-3.429-2.222.544-.84a1 1 0 0 0-1.24.123l.696.717ZM14.286 22l-.697.717a1 1 0 0 0 1.394 0L14.286 22ZM12 19.778l.697-.717a1 1 0 0 0-1.394 0l.697.717ZM9.714 22l-.697.717a1 1 0 0 0 1.394 0L9.714 22ZM7.43 19.778l.697-.717a1 1 0 0 0-1.241-.122l.544.839Zm2.278-9.485a1 1 0 1 0-1.414 1.414l1.414-1.414ZM11 13l-.707.707a1 1 0 0 0 1.414 0L11 13Zm4.707-3.293a1 1 0 0 0-1.414-1.414l1.414 1.414ZM4 22h1V4.222H3V22h1ZM4 4.222h1c0-.315.128-.623.367-.854l-.698-.717-.697-.717A3.191 3.191 0 0 0 3 4.222h1Zm.67-1.571.697.717c.239-.233.569-.368.919-.368V1a3.32 3.32 0 0 0-2.314.934l.697.717ZM6.285 2v1h11.428V1H6.286v1Zm11.428 0v1c.35 0 .68.135.92.368l.697-.717.697-.717A3.32 3.32 0 0 0 17.714 1v1Zm1.617.65-.697.718c.238.231.366.54.366.854h2a3.19 3.19 0 0 0-.972-2.288l-.697.717ZM20 4.223h-1V22h2V4.222h-1ZM20 22l.544-.84-3.429-2.221-.544.839-.544.839 3.43 2.222L20 22Zm-3.429-2.222-.697-.717-2.285 2.222.697.717.697.717 2.285-2.222-.697-.717ZM14.286 22l.697-.717-2.286-2.222-.697.717-.697.717 2.286 2.222.697-.717ZM12 19.778l-.697-.717-2.286 2.222.697.717.697.717 2.286-2.222-.697-.717ZM9.714 22l.697-.717-2.285-2.222-.697.717-.698.717 2.286 2.222.697-.717ZM7.43 19.778l-.544-.84-3.429 2.223L4 22l.544.84 3.428-2.223-.543-.84ZM9 11l-.707.707 2 2L11 13l.707-.707-2-2L9 11Zm2 2 .707.707 4-4L15 9l-.707-.707-4 4L11 13Z"/>
</svg>
