<svg xmlns="http://www.w3.org/2000/svg" width="18" height="19" fill="none" viewBox="0 0 18 19">
  <path stroke="#000" stroke-linecap="round" stroke-linejoin="round" stroke-width="2" d="M6 15.995H1.966c-.738 0-1.202-.825-.84-1.493L4.071 9.06M11 15.995h5.034c.738 0 1.203-.825.84-1.493l-1.361-2.516M6.829 3.967l1.33-2.456a.947.947 0 0 1 1.682 0l3.074 5.678M4.072 9.06l1.551.921-.482-3.007-2.895 1.003L4.072 9.06Zm8.843-1.871L10.93 8.478l2.894.5.965-3.006-1.874 1.217ZM9.07 15.995 11 13.991V18l-1.93-2.005Z"/>
</svg>
