<svg xmlns="http://www.w3.org/2000/svg" width="24" height="24" fill="none" viewBox="0 0 24 24">
  <path fill="#000" d="M22.882 2a1 1 0 1 0-2 0h2Zm-1 6v1a1 1 0 0 0 1-1h-1ZM1 22a1 1 0 1 0 2 0H1Zm1-6v-1a1 1 0 0 0-1 1h1Zm1.228.5-.91.415.008.017.008.017.894-.449Zm19.767-3.402a1 1 0 0 0-1.99-.196l1.99.196ZM20.772 7.5l.91-.415-.008-.017-.008-.016-.894.448ZM1.005 10.902a1 1 0 0 0 1.99.196l-1.99-.196ZM15.918 7a1 1 0 1 0 0 2V7ZM7.965 17a1 1 0 1 0 0-2v2ZM21.882 2h-1v6h2V2h-1ZM2 22h1v-6H1v6h1Zm1.228-5.5-.894.448C4.134 20.534 7.832 23 12.108 23v-2c-3.486 0-6.511-2.009-7.986-4.948l-.894.448Zm8.88 5.5v1c5.679 0 10.339-4.347 10.887-9.902L22 13l-.995-.098C20.555 17.453 16.739 21 12.108 21v1Zm8.664-14.5.894-.448C19.866 3.466 16.168 1 11.892 1v2c3.486 0 6.511 2.009 7.986 4.948l.894-.448ZM11.892 2V1C6.213 1 1.553 5.347 1.005 10.902L2 11l.995.098C3.445 6.547 7.261 3 11.892 3V2Zm9.99 6V7H21v2h.882V8ZM21 8V7h-5.082v2H21V8Zm-.228-.5-.91.415.228.5L21 8l.91-.415-.228-.5-.91.415ZM2 16v1h1v-2H2v1Zm1 0v1h4.965v-2H3v1Zm.228.5.91-.415-.228-.5L3 16l-.91.415.228.5.91-.415Z"/>
</svg>
