<svg xmlns="http://www.w3.org/2000/svg" width="24" height="24" fill="none" viewBox="0 0 24 24">
  <path fill="#000" d="M3.118 2a1 1 0 1 0-2 0h2Zm-1 6h-1a1 1 0 0 0 1 1V8ZM21 22a1 1 0 1 0 2 0h-2Zm1-6h1a1 1 0 0 0-1-1v1Zm-1.228.5.894.448.008-.016.008-.017-.91-.415ZM2.995 12.902a1 1 0 0 0-1.99.196l1.99-.196ZM3.228 7.5l-.894-.448-.008.016-.008.017.91.415Zm17.777 3.598a1 1 0 0 0 1.99-.196l-1.99.196ZM8.082 9a1 1 0 1 0 0-2v2Zm7.953 6a1 1 0 0 0 0 2v-2ZM2.118 2h-1v6h2V2h-1ZM22 22h1v-6h-2v6h1Zm-1.228-5.5-.894-.448c-1.475 2.94-4.5 4.948-7.986 4.948v2c4.276 0 7.975-2.466 9.774-6.052l-.894-.448Zm-8.88 5.5v-1c-4.63 0-8.448-3.547-8.897-8.098L2 13l-.995.098C1.553 18.653 6.213 23 11.892 23v-1ZM3.228 7.5l.894.448C5.597 5.008 8.622 3 12.108 3V1C7.832 1 4.133 3.466 2.334 7.052l.894.448Zm8.88-5.5v1c4.63 0 8.448 3.547 8.897 8.098L22 11l.995-.098C22.447 5.347 17.787 1 12.108 1v1Zm-9.99 6v1H3V7h-.882v1ZM3 8v1h5.082V7H3v1Zm.228-.5-.91-.415-.228.5L3 8l.91.415.228-.5-.91-.415ZM22 16v-1h-1v2h1v-1Zm-1 0v-1h-4.965v2H21v-1Zm-.228.5.91.415.228-.5L21 16l-.91-.415-.228.5.91.415Z"/>
</svg>
