<svg xmlns="http://www.w3.org/2000/svg" width="24" height="24" fill="none" viewBox="0 0 24 24">
  <path stroke="#000" stroke-linecap="round" stroke-linejoin="round" stroke-miterlimit="10" stroke-width="2" d="M12.89 14.372H4.542A2.539 2.539 0 0 1 2 11.836v-6.3A2.539 2.539 0 0 1 4.542 3h9.789a2.539 2.539 0 0 1 2.542 2.535v2.45m-10.17 9.767h6.187m-3.39-.418V14.63M16.619 18h1.652m3.729.465c0 1.4-1.138 2.535-2.542 2.535h-4.026a2.539 2.539 0 0 1-2.542-2.535V10.52c0-1.4 1.138-2.535 2.542-2.535h4.026A2.539 2.539 0 0 1 22 10.52v7.944Z"/>
</svg>
