<svg xmlns="http://www.w3.org/2000/svg" width="20" height="20" fill="none" viewBox="0 0 20 20">
  <path stroke="#000" stroke-linecap="round" stroke-linejoin="round" stroke-width="2" d="m14.228 12.631.707 3.536-2.121 2.121-2.829-2.828m-2.828-9.9L3.62 4.853 1.5 6.975l2.828 2.828M12.082 2C7.918 3.094 4.304 9.778 4.304 9.778l5.706 5.707s6.685-3.615 7.778-7.779M12.082 2c2.141-.562 5.681.025 5.681.025s.588 3.54.025 5.681M12.082 2l5.706 5.706m-4.962 2.11a2.009 2.009 0 0 1-2.84-.013 2.009 2.009 0 0 1-.013-2.84 2.009 2.009 0 0 1 2.84.012c.789.787.794 2.06.013 2.84ZM4.328 15.46s.004.71-1.057 1.77c.713.714 2.835.732 3.904-.337 1.172-1.172 1.164-3.08-.018-4.262-1.182-1.181-3.09-1.19-4.261-.018-.496.496-.883 1.239-1.058 1.77.892.892 2.49 1.077 2.49 1.077Z"/>
</svg>
