<svg xmlns="http://www.w3.org/2000/svg" width="20" height="18" fill="none" viewBox="0 0 20 18">
  <path stroke="#000" stroke-linecap="round" stroke-linejoin="round" stroke-width="2" d="M8 13.834A11.7 11.7 0 0 0 10 14c.711 0 1.387-.06 2-.166M6.458 4.412C4.39 4.933 3 5.897 3 7c0 1.657 3.134 3 7 3s7-1.343 7-3c0-1.103-1.389-2.067-3.458-2.588m-7.63 5.024C2.996 10.097 1 11.446 1 13c0 2.21 4.03 4 9 4s9-1.79 9-4c0-1.555-1.996-2.903-4.912-3.564M15 3c0 1.105-2.239 2-5 2s-5-.895-5-2 2.239-2 5-2 5 .895 5 2Z"/>
</svg>
