<svg xmlns="http://www.w3.org/2000/svg" width="24" height="24" fill="none" viewBox="0 0 24 24">
  <path fill="#000" d="M23 2a1 1 0 1 0-2 0h2Zm-1 6v1a1 1 0 0 0 1-1h-1Zm-.074 8.398a1 1 0 1 0-1.835-.796l1.835.796ZM20.776 7.5l.905-.423-.006-.012-.006-.013-.894.448ZM16.05 7a1 1 0 1 0 0 2V7ZM22 2h-1v6h2V2h-1ZM2 12H1c0 6.067 4.88 11 10.917 11v-2C7 21 3 16.979 3 12H2Zm9.917-10V1C5.88 1 1 5.933 1 12h2c0-4.978 4-9 8.917-9V2Zm0 20v1c4.483 0 8.327-2.721 10.009-6.602L21.008 16l-.917-.398C18.71 18.785 15.567 21 11.917 21v1Zm8.858-14.5.894-.448C19.875 3.467 16.185 1 11.917 1v2c3.475 0 6.492 2.007 7.964 4.948l.894-.448ZM22 8V7h-.992v2H22V8Zm-.992 0V7H16.05v2h4.958V8Zm-.233-.5-.906.423.233.5.906-.423.907-.423-.234-.5-.906.423Z"/>
</svg>
