<svg xmlns="http://www.w3.org/2000/svg" width="24" height="24" fill="none" viewBox="0 0 24 24">
  <path fill="#000" d="M3 2a1 1 0 0 0-2 0h2ZM2 8H1a1 1 0 0 0 1 1V8Zm1.91 7.602a1 1 0 0 0-1.836.796l1.835-.796ZM3.224 7.5l-.894-.448-.01.019-.008.019.912.41ZM7.95 9a1 1 0 0 0 0-2v2ZM2 2H1v6h2V2H2Zm20 10h-1c0 4.979-4 9-8.917 9v2C18.12 23 23 18.067 23 12h-1ZM12.083 2v1C17 3 21 7.022 21 12h2c0-6.067-4.88-11-10.917-11v1Zm0 20v-1c-3.65 0-6.795-2.215-8.174-5.398L2.992 16l-.918.398C3.756 20.278 7.6 23 12.084 23v-1ZM3.225 7.5l.894.448C5.591 5.008 8.608 3 12.083 3V1C7.815 1 4.125 3.467 2.331 7.052l.894.448ZM2 8v1h1V7H2v1Zm1 0v1h4.95V7H3v1Zm.225-.5-.912-.41-.225.5L3 8l.912.41.225-.5-.912-.41Z"/>
</svg>
