<svg xmlns="http://www.w3.org/2000/svg" width="24" height="24" fill="none" viewBox="0 0 24 24">
  <path fill="#000" d="m3.067 7.5-.892-.45-.01.018-.009.02.911.412Zm17.304 7.813a1 1 0 0 0 1.86.736l-1.86-.736ZM3 2a1 1 0 0 0-2 0h2ZM2 8H1a1 1 0 0 0 1 1V8Zm.01 6a1 1 0 1 0 0-2v2ZM2 12a1 1 0 1 0 0 2v-2Zm2.01 7a1 1 0 1 0 0-2v2ZM4 17a1 1 0 1 0 0 2v-2Zm4.01 5a1 1 0 1 0 0-2v2ZM8 20a1 1 0 1 0 0 2v-2Zm5.01 3a1 1 0 1 0 0-2v2ZM13 21a1 1 0 1 0 0 2v-2Zm5.01 0a1 1 0 1 0 0-2v2ZM18 19a1 1 0 1 0 0 2v-2ZM8 9a1 1 0 0 0 0-2v2Zm4-7v1a9 9 0 0 1 9 9h2c0-6.075-4.925-11-11-11v1ZM3.067 7.5l.893.45A9 9 0 0 1 12 3V1a11 11 0 0 0-9.825 6.05l.892.45ZM22 12h-1a8.973 8.973 0 0 1-.629 3.313l.93.368.93.368A11.01 11.01 0 0 0 23 12h-1ZM2 2H1v6h2V2H2Zm.01 11v-1H2v2h.01v-1Zm2 5v-1H4v2h.01v-1Zm4 3v-1H8v2h.01v-1Zm5 1v-1H13v2h.01v-1Zm5-2v-1H18v2h.01v-1ZM2 8v1h.84V7H2v1Zm.84 0v1H8V7H2.84v1Zm.227-.5-.91-.413-.227.5.91.413.912.413.226-.5-.91-.413Z"/>
</svg>
