<svg xmlns="http://www.w3.org/2000/svg" width="24" height="24" fill="none" viewBox="0 0 24 24">
  <path fill="#000" d="m20.933 7.5.914-.405-.01-.023-.012-.023-.892.451ZM1.77 16.05a1 1 0 0 0 1.859-.737l-1.86.736ZM23 2a1 1 0 1 0-2 0h2Zm-1 6v1a1 1 0 0 0 1-1h-1Zm-.01 4a1 1 0 1 0 0 2v-2Zm.01 2a1 1 0 0 0 0-2v2Zm-2.01 3a1 1 0 1 0 0 2v-2Zm.01 2a1 1 0 0 0 0-2v2Zm-4.01 1a1 1 0 1 0 0 2v-2Zm.01 2a1 1 0 0 0 0-2v2Zm-5.01-1a1 1 0 1 0 0 2v-2Zm.01 2a1 1 0 0 0 0-2v2Zm-5.01-4a1 1 0 1 0 0 2v-2ZM6 21a1 1 0 1 0 0-2v2ZM16 7a1 1 0 1 0 0 2V7Zm-4-5V1C5.925 1 1 5.925 1 12h2a9 9 0 0 1 9-9V2Zm8.933 5.5.892-.45A11 11 0 0 0 12 1v2a9 9 0 0 1 8.04 4.95l.893-.45ZM2 12H1c0 1.428.273 2.795.77 4.05l.93-.369.929-.368A8.973 8.973 0 0 1 3 12H2ZM22 2h-1v6h2V2h-1Zm-.01 11v1H22v-2h-.01v1Zm-2 5v1H20v-2h-.01v1Zm-4 3v1H16v-2h-.01v1Zm-5 1v1H11v-2h-.01v1Zm-5-2v1H6v-2h-.01v1ZM22 8V7h-.846v2H22V8Zm-.846 0V7H16v2h5.154V8Zm-.221-.5-.915.405.221.5.915-.405.914-.405-.22-.5-.915.405Z"/>
</svg>
