<svg xmlns="http://www.w3.org/2000/svg" width="24" height="24" fill="none" viewBox="0 0 24 24">
  <path stroke="#000" stroke-linecap="round" stroke-linejoin="round" stroke-miterlimit="10" stroke-width="2" d="M7.085 20.305a1.695 1.695 0 1 1-3.39 0 1.695 1.695 0 0 1 3.39 0Zm0 0h5.932a2.542 2.542 0 1 0 0-5.085H4.542a2.542 2.542 0 1 1 0-5.084h5.933m0 0a1.695 1.695 0 1 0 3.39 0 1.695 1.695 0 0 0-3.39 0Zm8.983-4.746a.847.847 0 1 1-1.695 0 .847.847 0 0 1 1.695 0ZM18.61 2a3.394 3.394 0 0 0-3.39 3.39c0 .615.165 1.191.452 1.69l2.938 5.09 2.938-5.09A3.369 3.369 0 0 0 22 5.39C22 3.52 20.479 2 18.61 2Z"/>
</svg>
