<svg xmlns="http://www.w3.org/2000/svg" width="20" height="20" fill="none" viewBox="0 0 20 20">
  <path fill="#000" d="M15 9a1 1 0 1 0-2 0h2ZM7 9a1 1 0 0 0-2 0h2Zm3-8V0v1Zm7.09 1.554.404-.915-.403.915Zm-1.656 3.353-.314.95.314-.95Zm-10.868 0-.315-.95.315.95ZM2.909 2.554l.404.915-.404-.915ZM2 4l.894.447A1 1 0 0 0 2 3v1ZM1 3a1 1 0 0 0 0 2V3ZM.106 5.553a1 1 0 1 0 1.788.894L.106 5.553ZM18 4V3a1 1 0 0 0-.894 1.447L18 4Zm1 1a1 1 0 1 0 0-2v2Zm-.894 1.447a1 1 0 1 0 1.788-.894l-1.788.894ZM9 19a1 1 0 1 0 2 0H9Zm2-9a1 1 0 1 0-2 0h2Zm-2 4v1h2v-2H9v1Zm5-3h1V9h-2v2h1ZM6 9H5v2h2V9H6Zm5 5v1a4 4 0 0 0 4-4h-2a2 2 0 0 1-2 2v1Zm-2 0v-1a2 2 0 0 1-2-2H5a4 4 0 0 0 4 4v-1ZM4.566 5.907l.314.95c1.355-.449 3.152-.868 5.12-.868v-2c-2.242 0-4.257.475-5.749.969l.315.95ZM10 4.99v1c1.968 0 3.765.419 5.12.868l.314-.95.315-.95C14.256 4.465 12.242 3.99 10 3.99v1Zm7.09-2.435.404-.915C16.097 1.023 13.289 0 10 0v2c2.9 0 5.42.91 6.687 1.47l.404-.916ZM10 1V0C6.711 0 3.903 1.023 2.506 1.64l.403.914.404.915C4.58 2.91 7.099 2 10 2V1Zm8 3.056h1c0-.983-.517-1.98-1.506-2.417l-.403.915-.404.915c.15.066.313.263.313.587h1Zm0 0h-1c0 .619-.676 1.092-1.252.902l-.314.95-.314.949c1.818.601 3.88-.764 3.88-2.801h-1Zm-16 0H1c0 2.037 2.062 3.402 3.88 2.8l-.314-.949-.315-.95C3.676 5.149 3 4.676 3 4.057H2Zm0 0h1c0-.324.164-.521.313-.587l-.404-.915-.403-.915C1.516 2.075 1 3.073 1 4.056h1ZM2 4V3H1v2h1V4Zm0 0-.894-.447-1 2L1 6l.894.447 1-2L2 4Zm16 0v1h1V3h-1v1Zm0 0-.894.447 1 2L19 6l.894-.447-1-2L18 4Zm-8 15h1v-9H9v9h1Z"/>
</svg>
