<svg xmlns="http://www.w3.org/2000/svg" width="20" height="20" fill="none" viewBox="0 0 20 20">
  <path stroke="#000" stroke-linecap="round" stroke-linejoin="round" stroke-width="2" d="M4 18v-4H1v4h3Zm0 0v-3l3.467-2.6a2 2 0 0 1 1.2-.4h2.53c1.127 0 2.178.563 2.803 1.5M4 18l5.763.823a4 4 0 0 0 2.355-.382l5.594-2.797a1.66 1.66 0 0 0-1.325-3.04L14 13.5m1-7A5.5 5.5 0 0 1 9.5 12M15 6.5A5.5 5.5 0 0 0 9.5 1M15 6.5H4M9.5 12A5.5 5.5 0 0 1 4 6.5M9.5 12S7 8.785 7 6.5 9.5 1 9.5 1m0 11S12 8.785 12 6.5 9.5 1 9.5 1M4 6.5A5.5 5.5 0 0 1 9.5 1M9 15h2l3-1.5"/>
</svg>
