<svg xmlns="http://www.w3.org/2000/svg" width="24" height="24" fill="none" viewBox="0 0 24 24">
  <path stroke="#000" stroke-linecap="round" stroke-linejoin="round" stroke-width="2" d="m9.873 12.797-2.415 3.137a3.376 3.376 0 0 0-4.746.595 3.395 3.395 0 0 0 .594 4.757 3.376 3.376 0 0 0 4.745-.595l3.964-5.133m2.142-2.76 4.668-6.041A3.396 3.396 0 0 0 18.232 2l-6.217 8.036m-6.656 8.586h.01m13.252 0h.01M5.762 2l10.78 13.934a3.376 3.376 0 0 1 4.746.595 3.395 3.395 0 0 1-.594 4.757 3.376 3.376 0 0 1-4.745-.595L5.169 6.757A3.395 3.395 0 0 1 5.762 2Z"/>
</svg>
