<svg xmlns="http://www.w3.org/2000/svg" width="24" height="24" fill="none" viewBox="0 0 24 24">
  <path fill="#000" d="M19.93 12.124a1 1 0 1 0-1.984-.248l1.984.248Zm-9.806-8.07a1 1 0 1 0-.248-1.984l.248 1.984ZM16 3l.938-.347a1 1 0 0 0-1.876 0L16 3Zm3 3 .347.938a1 1 0 0 0 0-1.876L19 6Zm-3 3-.938.347a1 1 0 0 0 1.876 0L16 9Zm-3-3-.347-.938a1 1 0 0 0 0 1.876L13 6Zm.379-.14.347.938-.348-.938Zm2.48-2.481.939.347-.938-.347Zm0 5.242-.937.348.938-.348Zm-2.48-2.48.347-.939-.348.938Zm5.243 0 .346.937-.346-.938ZM16.14 8.62l.938.348-.938-.348Zm0-5.242-.938.347.938-.347Zm2.482 2.48.346-.937-.346.938ZM11 19v-1a7 7 0 0 1-7-7H2a9 9 0 0 0 9 9v-1Zm10 2 .707-.707-4.343-4.343-.707.707-.707.707 4.343 4.343L21 21Zm-4.343-4.343.707-.707-.006-.007-.708.707-.707.708.007.006.707-.707ZM18.938 12l-.992-.124a6.976 6.976 0 0 1-1.996 4.074l.707.707.707.707a8.977 8.977 0 0 0 2.566-5.24L18.938 12Zm-2.281 4.657-.707-.707A6.975 6.975 0 0 1 11 18v2a8.975 8.975 0 0 0 6.364-2.636l-.707-.707ZM3 11h1a7.001 7.001 0 0 1 6.124-6.946L10 3.062l-.124-.992A9.001 9.001 0 0 0 2 11h1Zm13-8-.938.347.14.379.938-.347.938-.348-.14-.378L16 3Zm2.622 2.86-.348.938.379.14L19 6l.347-.938-.379-.14-.346.938ZM19 6l-.347-.938-.378.14.347.938.346.938.379-.14L19 6Zm-2.86 2.621-.938-.347-.14.379L16 9l.938.347.14-.378-.938-.348ZM16 9l.938-.347-.14-.379-.938.347-.938.348.14.378L16 9Zm-2.621-2.86.347-.938-.379-.14L13 6l-.347.938.378.14.348-.938ZM13 6l.347.938.379-.14-.348-.938-.347-.938-.378.14L13 6Zm2.86-2.621.938.347.14-.379L16 3l-.938-.347-.14.378.938.348Zm-2.481 2.48.347.939a5.2 5.2 0 0 0 3.072-3.072l-.938-.347-.938-.348a3.2 3.2 0 0 1-1.89 1.891l.347.938Zm2.48 2.762.939-.347a5.2 5.2 0 0 0-3.072-3.072l-.348.938-.347.938a3.2 3.2 0 0 1 1.891 1.89l.938-.347Zm2.763-2.48-.348-.939a5.2 5.2 0 0 0-3.072 3.072l.938.347.938.348a3.2 3.2 0 0 1 1.89-1.891l-.346-.938ZM16.14 3.378l-.938.347a5.2 5.2 0 0 0 3.072 3.072l.348-.938.346-.938a3.2 3.2 0 0 1-1.89-1.89l-.938.347Z"/>
</svg>
