<svg xmlns="http://www.w3.org/2000/svg" width="24" height="24" fill="none" viewBox="0 0 24 24">
  <path fill="#000" d="m7.7 4.368.092-.996-.092.996Zm1.944-.805-.77-.639.77.639Zm-5.366 3.17-.996.092.996-.093Zm2.454-2.455-.092.996.092-.996Zm-3.17 5.366-.638-.77.639.77ZM4.369 7.7l.996-.093-.996.093Zm-1.553 6.035-.639.77.64-.77Zm0-3.47.639.769-.639-.77ZM4.368 16.3l-.996-.092.996.092Zm-.805-1.944.638-.77-.638.77Zm3.17 5.366-.093-.996.092.996Zm-2.455-2.455.996.093-.996-.093Zm5.366 3.17.77-.638-.77.638ZM7.7 19.632l.092.996-.092-.996Zm6.035 1.553.77.639-.77-.64Zm-3.47 0-.77.639.77-.64Zm6.035-1.553-.092.996.092-.996Zm-1.944.805-.77-.638.77.638Zm5.366-3.17-.996.093.996-.093Zm-2.455 2.455.093-.996-.093.996Zm3.17-5.366-.638-.77.638.77Zm-.805 1.944.996-.092-.996.092Zm1.553-6.036.639-.77-.64.77Zm0 3.472.639.77-.64-.77ZM19.632 7.7l.996.092-.996-.092Zm.805 1.944-.638.77.638-.77Zm-3.17-5.366-.092-.996.092.996Zm2.455 2.454-.996-.092.996.092Zm-5.366-3.17.77-.638-.77.639Zm1.944.806.093.996-.093-.996Zm-2.565-1.553-.769.639.77-.639Zm-3.47 0 .769.639-.77-.639Zm3.47 0-.769.639.62.747.77-.638.77-.639-.62-.748-.77.64ZM16.3 4.368l.093.996.967-.09-.093-.996-.092-.996-.967.09.092.996Zm3.422 2.364-.996-.092-.09.967.996.093.996.092.09-.967-.996-.093Zm.715 2.912-.638.77.747.62.639-.77.639-.77-.748-.62-.639.77Zm.748 4.091-.639-.769-.747.62.638.77.639.77.747-.62-.638-.77ZM19.632 16.3l-.996.093.09.967.996-.093.996-.092-.09-.967-.996.092Zm-2.365 3.422.093-.996-.967-.09-.093.996-.092.996.967.09.092-.996Zm-2.911.715-.77-.638-.62.747.77.639.77.639.62-.748-.77-.639Zm-4.091.748.769-.639-.62-.747-.77.638-.77.639.62.747.77-.638ZM7.7 19.632l-.093-.996-.967.09.092.996.093.996.967-.09-.092-.996Zm-3.422-2.365.996.093.09-.967-.996-.093-.996-.092-.09.967.996.092Zm-.715-2.911.638-.77-.747-.62-.639.77-.639.77.748.62.639-.77Zm-.748-4.091.639.769.747-.62-.638-.77-.639-.77-.748.62.64.77ZM4.368 7.7l.996-.093-.09-.967-.996.092-.996.093.09.967.996-.092Zm2.364-3.422-.092.996.967.09.093-.996.092-.996-.967-.09-.093.996Zm2.912-.715.77.638.62-.747-.77-.639-.77-.639-.62.748.77.639ZM7.7 4.368l-.093.996c1.07.1 2.12-.336 2.807-1.163l-.77-.638-.77-.639a1.252 1.252 0 0 1-1.082.448l-.092.996ZM4.278 6.732l.996-.092A1.255 1.255 0 0 1 6.64 5.274l.092-.996.093-.996a3.255 3.255 0 0 0-3.543 3.543l.996-.093Zm-.715 2.912.638.77a3.255 3.255 0 0 0 1.163-2.807l-.996.093-.996.092c.039.413-.129.818-.448 1.083l.639.77Zm-.748 4.091.639-.769a1.255 1.255 0 0 1 0-1.932l-.639-.77-.639-.77a3.255 3.255 0 0 0 0 5.011l.64-.77ZM4.368 16.3l.996.093c.1-1.07-.336-2.12-1.163-2.807l-.638.77-.639.77c.319.264.487.669.448 1.082l.996.092Zm2.364 3.422-.092-.996a1.255 1.255 0 0 1-1.366-1.366l-.996-.093-.996-.092a3.255 3.255 0 0 0 3.543 3.543l-.093-.996Zm2.912.715.77-.638a3.255 3.255 0 0 0-2.807-1.163l.093.996.092.996c.413-.039.818.13 1.083.448l.77-.639Zm4.091.748-.769-.639a1.255 1.255 0 0 1-1.932 0l-.77.639-.77.639a3.255 3.255 0 0 0 5.011 0l-.77-.64Zm2.565-1.553.093-.996c-1.07-.1-2.12.336-2.807 1.163l.77.638.77.639a1.252 1.252 0 0 1 1.082-.448l.092-.996Zm3.422-2.365-.996.093a1.255 1.255 0 0 1-1.366 1.366l-.093.996-.092.996a3.255 3.255 0 0 0 3.543-3.543l-.996.092Zm.715-2.911-.638-.77a3.255 3.255 0 0 0-1.163 2.807l.996-.093.996-.092c-.039-.413.13-.818.448-1.083l-.639-.77Zm.748-4.091-.639.769c.605.502.605 1.43 0 1.932l.639.77.639.77a3.255 3.255 0 0 0 0-5.011l-.64.77ZM19.632 7.7l-.996-.093c-.1 1.07.336 2.12 1.163 2.807l.638-.77.639-.77a1.255 1.255 0 0 1-.448-1.082l-.996-.092Zm-2.365-3.422.093.996a1.255 1.255 0 0 1 1.366 1.366l.996.092.996.093a3.255 3.255 0 0 0-3.543-3.543l.092.996Zm-2.911-.715-.77.638a3.255 3.255 0 0 0 2.807 1.163l-.093-.996-.092-.996a1.255 1.255 0 0 1-1.083-.448l-.77.639Zm-.62-.748.77-.639a3.255 3.255 0 0 0-5.011 0l.77.64.769.638a1.255 1.255 0 0 1 1.932 0l.77-.639ZM15 12h-1a2 2 0 0 1-2 2v2a4 4 0 0 0 4-4h-1Zm-3 3v-1a2 2 0 0 1-2-2H8a4 4 0 0 0 4 4v-1Zm-3-3h1a2 2 0 0 1 2-2V8a4 4 0 0 0-4 4h1Zm3-3v1a2 2 0 0 1 2 2h2a4 4 0 0 0-4-4v1Z"/>
</svg>
