<svg xmlns="http://www.w3.org/2000/svg" width="24" height="24" fill="none" viewBox="0 0 24 24">
  <path stroke="#000" stroke-linecap="round" stroke-linejoin="round" stroke-width="2" d="M10.246 2.93a2.12 2.12 0 0 1 3.508 0l.46.679a2.12 2.12 0 0 0 2.153.892l.806-.155a2.12 2.12 0 0 1 2.48 2.48l-.154.806a2.12 2.12 0 0 0 .892 2.153l.68.461a2.12 2.12 0 0 1 0 3.508l-.68.46a2.12 2.12 0 0 0-.892 2.153l.155.806a2.12 2.12 0 0 1-2.48 2.48l-.806-.154a2.12 2.12 0 0 0-2.153.892l-.461.68a2.12 2.12 0 0 1-3.508 0l-.46-.68a2.12 2.12 0 0 0-2.154-.892l-.805.155a2.12 2.12 0 0 1-2.48-2.48l.154-.806a2.12 2.12 0 0 0-.892-2.153l-.68-.461a2.12 2.12 0 0 1 0-3.508l.68-.46A2.12 2.12 0 0 0 4.5 7.631l-.155-.805a2.12 2.12 0 0 1 2.48-2.48l.806.154a2.12 2.12 0 0 0 2.153-.892l.461-.68Z"/>
  <path stroke="#000" stroke-linecap="round" stroke-linejoin="round" stroke-width="2" d="m10 8 6 4-6 4V8Z"/>
</svg>
