<svg xmlns="http://www.w3.org/2000/svg" width="20" height="20" fill="none" viewBox="0 0 20 20">
  <path stroke="#000" stroke-linejoin="round" stroke-width="2" d="M8 1h4v2.29c.466.138.91.324 1.33.551l1.62-1.62 2.828 2.83-1.62 1.619c.228.42.414.864.552 1.33H19v4h-2.29c-.138.466-.324.91-.551 1.33l1.62 1.62-2.83 2.828-1.619-1.62c-.42.228-.864.414-1.33.552V19H8v-2.29a6.951 6.951 0 0 1-1.33-.551l-1.62 1.62-2.828-2.83 1.62-1.619A6.958 6.958 0 0 1 3.29 12H1V8h2.29c.138-.466.324-.91.551-1.33l-1.62-1.62 2.83-2.828 1.619 1.62c.42-.228.864-.414 1.33-.552V1Z"/>
  <path stroke="#000" stroke-linejoin="round" stroke-width="2" d="M13 10a3 3 0 1 1-6 0 3 3 0 0 1 6 0Z"/>
</svg>
