<svg xmlns="http://www.w3.org/2000/svg" width="24" height="24" fill="none" viewBox="0 0 24 24">
  <path fill="#000" d="m7.7 4.368.092-.996-.092.996Zm1.944-.805-.77-.639.77.639Zm-5.366 3.17-.996.092.996-.093Zm2.454-2.455-.092.996.092-.996Zm-3.17 5.366-.638-.77.639.77ZM4.369 7.7l.996-.093-.996.093Zm-1.553 6.035-.639.77.64-.77Zm0-3.47.639.769-.639-.77ZM4.368 16.3l-.996-.092.996.092Zm-.805-1.944.638-.77-.638.77Zm3.17 5.366-.093-.996.092.996Zm-2.455-2.455.996.093-.996-.093Zm5.366 3.17.77-.638-.77.638ZM7.7 19.632l.092.996-.092-.996Zm2.564 1.553-.77.639.77-.64Zm10.92-10.92.64-.77-.64.77ZM19.633 7.7l.996.092-.996-.092Zm.805 1.944-.638.77.638-.77Zm-3.17-5.366-.092-.996.092.996Zm2.455 2.454-.996-.092.996.092Zm-5.366-3.17.77-.638-.77.639Zm1.944.806.093.996-.093-.996Zm-2.565-1.553-.769.639.77-.639Zm-3.47 0 .769.639-.77-.639Zm10.606 9.742a1 1 0 1 0 1.793.886l-1.793-.886Zm-7.428 10.107a1 1 0 1 0-.886-1.793l.886 1.793ZM19 16l.938-.347a1 1 0 0 0-1.876 0L19 16Zm3 3 .347.938a1 1 0 0 0 0-1.876L22 19Zm-3 3-.938.347a1 1 0 0 0 1.876 0L19 22Zm-3-3-.347-.938a1 1 0 0 0 0 1.876L16 19Zm.378-.14-.346-.938.346.938Zm2.482-2.482.938.348-.938-.348Zm0 5.244.938-.348-.938.348Zm-2.482-2.482.348-.938-.348.938Zm5.244 0-.348-.938.348.938Zm-2.482 2.482-.938-.348.938.348Zm0-5.244.938-.346-.938.346Zm2.482 2.482-.348.938.348-.938ZM13.736 2.815l-.77.639.62.747.77-.638.77-.639-.62-.748-.77.64ZM16.3 4.368l.093.996.967-.09-.093-.996-.092-.996-.967.09.092.996Zm3.422 2.364-.996-.092-.09.967.996.093.996.092.09-.967-.996-.093Zm.715 2.912-.638.77.747.62.639-.77.639-.77-.748-.62-.639.77Zm-10.173 11.54.77-.638-.62-.747-.77.638-.77.639.62.747.77-.638ZM7.7 19.633l-.093-.996-.967.09.092.996.093.996.967-.09-.092-.996Zm-3.422-2.365.996.093.09-.967-.996-.093-.996-.092-.09.967.996.092Zm-.715-2.911.638-.77-.747-.62-.639.77-.639.77.748.62.639-.77Zm-.748-4.091.639.769.747-.62-.638-.77-.639-.77-.748.62.64.77ZM4.368 7.7l.996-.093-.09-.967-.996.092-.996.093.09.967.996-.092Zm2.364-3.422-.092.996.967.09.093-.996.092-.996-.967-.09-.093.996Zm2.912-.715.77.638.62-.747-.77-.639-.77-.639-.62.748.77.639ZM7.7 4.368l-.093.996c1.07.1 2.12-.336 2.807-1.163l-.77-.638-.77-.639a1.252 1.252 0 0 1-1.082.448l-.092.996ZM4.278 6.732l.996-.092A1.255 1.255 0 0 1 6.64 5.274l.092-.996.093-.996a3.255 3.255 0 0 0-3.543 3.543l.996-.093Zm-.715 2.912.638.77a3.255 3.255 0 0 0 1.163-2.807l-.996.093-.996.092c.039.413-.129.818-.448 1.083l.639.77Zm-.748 4.091.639-.769a1.255 1.255 0 0 1 0-1.932l-.639-.77-.639-.77a3.255 3.255 0 0 0 0 5.011l.64-.77ZM4.368 16.3l.996.093c.1-1.07-.336-2.12-1.163-2.807l-.638.77-.639.77c.319.264.487.669.448 1.082l.996.092Zm2.364 3.422-.092-.996a1.255 1.255 0 0 1-1.366-1.366l-.996-.093-.996-.092a3.255 3.255 0 0 0 3.543 3.543l-.093-.996Zm2.912.715.77-.638a3.255 3.255 0 0 0-2.807-1.163l.093.996.092.996c.413-.039.818.13 1.083.448l.77-.639ZM19.632 7.7l-.996-.093c-.1 1.07.336 2.12 1.163 2.807l.638-.77.639-.77a1.255 1.255 0 0 1-.448-1.082l-.996-.092Zm-2.365-3.422.093.996a1.255 1.255 0 0 1 1.366 1.366l.996.092.996.093a3.255 3.255 0 0 0-3.543-3.543l.092.996Zm-2.911-.715-.77.638a3.255 3.255 0 0 0 2.807 1.163l-.093-.996-.092-.996a1.255 1.255 0 0 1-1.083-.448l-.77.639Zm-.62-.748.77-.639a3.255 3.255 0 0 0-5.011 0l.77.64.769.638a1.255 1.255 0 0 1 1.932 0l.77-.639ZM15 12h-1a2 2 0 0 1-2 2v2a4 4 0 0 0 4-4h-1Zm-3 3v-1a2 2 0 0 1-2-2H8a4 4 0 0 0 4 4v-1Zm-3-3h1a2 2 0 0 1 2-2V8a4 4 0 0 0-4 4h1Zm3-3v1a2 2 0 0 1 2 2h2a4 4 0 0 0-4-4v1Zm9.185 1.264-.639.77c.462.383.574 1.018.325 1.523l.896.443.897.443a3.257 3.257 0 0 0-.84-3.948l-.64.77ZM13 21.767l-.443-.896c-.505.25-1.14.137-1.523-.325l-.77.639-.77.639a3.257 3.257 0 0 0 3.949.84L13 21.767ZM19 16l-.938.347.14.378.938-.347.938-.346-.14-.379L19 16Zm2.622 2.86-.348.938.379.14L22 19l.347-.938-.379-.14-.346.938ZM22 19l-.347-.938-.378.14.347.938.346.938.379-.14L22 19Zm-2.86 2.622-.938-.348-.14.379L19 22l.938.347.14-.379-.938-.346ZM19 22l.938-.347-.14-.378-.938.347-.938.346.14.379L19 22Zm-2.622-2.86.348-.938-.379-.14L16 19l-.347.938.379.14.346-.938ZM16 19l.347.938.378-.14-.347-.938-.346-.938-.379.14L16 19Zm2.86-2.622.938.348.14-.379L19 16l-.938-.347-.14.379.938.346Zm-2.482 2.482.348.938a5.2 5.2 0 0 0 3.072-3.072l-.938-.348-.938-.346a3.2 3.2 0 0 1-1.89 1.89l.346.938Zm2.482 2.762.938-.348a5.2 5.2 0 0 0-3.072-3.072l-.348.938-.346.938a3.2 3.2 0 0 1 1.89 1.89l.938-.346Zm2.762-2.482-.348-.938a5.2 5.2 0 0 0-3.072 3.072l.938.348.938.346a3.2 3.2 0 0 1 1.89-1.89l-.346-.938Zm-2.482-2.762-.938.348a5.2 5.2 0 0 0 3.072 3.072l.348-.938.346-.938a3.2 3.2 0 0 1-1.89-1.89l-.938.346Z"/>
</svg>
