<svg xmlns="http://www.w3.org/2000/svg" width="24" height="24" fill="none" viewBox="0 0 24 24">
  <path stroke="#000" stroke-linecap="round" stroke-linejoin="round" stroke-width="2" d="M17.678 18.297C16.133 20.094 14.167 21.377 12 22a11.576 11.576 0 0 1-4.299-2.328 13.03 13.03 0 0 1-3.139-4.005 14.372 14.372 0 0 1-1.483-5.046 14.735 14.735 0 0 1 .409-5.288C3.995 5.36 4.5 5.35 5 5.305l.264-.041m3.717-1.097A11.957 11.957 0 0 0 12 2c2.34 2.296 5.392 3.492 8.512 3.333.459 1.73.596 3.546.404 5.336A14.44 14.44 0 0 1 19.756 15M2 2l3.264 3.264M22 22 5.264 5.264"/>
</svg>
