<svg xmlns="http://www.w3.org/2000/svg" width="24" height="24" fill="none" viewBox="0 0 24 24">
  <path stroke="#000" stroke-linecap="round" stroke-linejoin="round" stroke-width="2" d="M12 2c2.34 2.296 5.392 3.492 8.512 3.333.454 1.715.593 3.513.409 5.288a14.371 14.371 0 0 1-1.483 5.046 13.028 13.028 0 0 1-3.14 4.005A11.576 11.576 0 0 1 12 22a11.576 11.576 0 0 1-4.299-2.328 13.03 13.03 0 0 1-3.139-4.005 14.372 14.372 0 0 1-1.483-5.046 14.736 14.736 0 0 1 .409-5.288C6.608 5.492 9.66 4.296 12 2Z"/>
</svg>
