<svg xmlns="http://www.w3.org/2000/svg" width="24" height="24" fill="none" viewBox="0 0 24 24">
  <path fill="#000" d="m4.552 18.229-.987.16.987-.16Zm14.896 0-.987-.16.987.16ZM22 9.625a1 1 0 1 0 0-2v2Zm-20-2a1 1 0 0 0 0 2v-2Zm13.247-5.29a1 1 0 1 0-1.494 1.33l1.494-1.33Zm3.506 6.954a1 1 0 1 0 1.494-1.328l-1.494 1.328Zm-8.506-5.625a1 1 0 0 0-1.494-1.328l1.494 1.328ZM3.753 7.961a1 1 0 1 0 1.494 1.328L3.753 7.961ZM16.496 21v-1H7.504v2h8.992v-1ZM4.552 18.229l.987-.16-1.552-9.604-.987.16-.987.16 1.552 9.603.987-.16Zm14.896 0 .987.16 1.552-9.604-.987-.16-.987-.16-1.552 9.604.987.16ZM7.504 21v-1c-.877 0-1.77-.724-1.965-1.93l-.987.159-.987.16C3.889 20.39 5.48 22 7.504 22v-1Zm8.992 0v1c2.024 0 3.615-1.609 3.94-3.612l-.988-.16-.987-.159C18.266 19.276 17.373 20 16.496 20v1ZM3 8.625v1h19v-2H3v1Zm0 0v-1H2v2h1v-1ZM14.5 3l-.747.664 5 5.625.747-.664.747-.664-5-5.625L14.5 3Zm-5 0-.747-.664-5 5.625.747.664.747.664 5-5.625L9.5 3Z"/>
</svg>
