<svg xmlns="http://www.w3.org/2000/svg" width="24" height="24" fill="none" viewBox="0 0 24 24">
  <path fill="#000" d="M8.5 20.5a1 1 0 1 0 0 2v-2Zm.01 2a1 1 0 1 0 0-2v2Zm7.99-2a1 1 0 1 0 0 2v-2Zm.01 2a1 1 0 1 0 0-2v2Zm6.476-17.336a1 1 0 1 0-1.972-.328l1.972.328ZM20.78 12.33l.986.164-.986-.164ZM6 13a1 1 0 1 0 0 2v-2ZM2 1a1 1 0 0 0 0 2V1Zm2.585 1.907.996-.094-.996.094Zm1.245 13.28-.996.093.996-.093ZM19 19a1 1 0 1 0 0-2v2ZM16 7a1 1 0 1 0 0-2v2Zm-6-2a1 1 0 0 0 0 2V5ZM8.5 21.5v1h.01v-2H8.5v1Zm.5 0H8a.5.5 0 0 1 .5-.5v2a1.5 1.5 0 0 0 1.5-1.5H9Zm-.5.5v-1a.5.5 0 0 1 .5.5H7A1.5 1.5 0 0 0 8.5 23v-1Zm-.5-.5h1a.5.5 0 0 1-.5.5v-2A1.5 1.5 0 0 0 7 21.5h1Zm.5-.5v1a.5.5 0 0 1-.5-.5h2A1.5 1.5 0 0 0 8.5 20v1Zm8 .5v1h.01v-2h-.01v1Zm.5 0h-1a.5.5 0 0 1 .5-.5v2a1.5 1.5 0 0 0 1.5-1.5h-1Zm-.5.5v-1a.5.5 0 0 1 .5.5h-2a1.5 1.5 0 0 0 1.5 1.5v-1Zm-.5-.5h1a.5.5 0 0 1-.5.5v-2a1.5 1.5 0 0 0-1.5 1.5h1Zm.5-.5v1a.5.5 0 0 1-.5-.5h2a1.5 1.5 0 0 0-1.5-1.5v1ZM22 5l-.986-.164-1.222 7.328.986.165.987.164 1.221-7.329L22 5Zm-3.194 9v-1H6v2h12.806v-1Zm1.973-1.671-.987-.165a1 1 0 0 1-.986.836v2a3 3 0 0 0 2.959-2.507l-.986-.164ZM2 2v1h1.59V1H2v1Zm2.585.907L3.589 3l1.245 13.28.996-.093.996-.094L5.58 2.813l-.996.094ZM7.821 18v1H19v-2H7.821v1ZM5.83 16.187l-.996.093A3 3 0 0 0 7.821 19v-2a1 1 0 0 1-.995-.907l-.996.094ZM3.59 2v1l.995-.093.996-.094A2 2 0 0 0 3.589 1v1ZM16 6V5h-3v2h3V6Zm-3 0V5h-3v2h3V6Z"/>
</svg>
