<svg xmlns="http://www.w3.org/2000/svg" width="24" height="24" fill="none" viewBox="0 0 24 24">
  <path fill="#000" d="M19.994 5a1 1 0 1 0 0 2V5Zm1.95 3.443.976.222-.975-.222Zm-1.59 7 .975.222-.975-.222ZM8.5 20.5a1 1 0 1 0 0 2v-2Zm.01 2a1 1 0 1 0 0-2v2Zm7.99-2a1 1 0 1 0 0 2v-2Zm.01 2a1 1 0 1 0 0-2v2ZM2 1a1 1 0 0 0 0 2V1Zm14 12a1 1 0 1 0 0-2v2ZM4.022 2.096l.427-.904-.427.904Zm.622 1.345-.995.1.995-.1Zm-.192-.956.857-.515-.857.515Zm3 14.483-.179.984.18-.984Zm-1.676-2.21-.995.1.995-.1Zm.112.794.96-.276-.96.276ZM20 7a1 1 0 1 0 0-2v2ZM5 5a1 1 0 0 0 0 2V5Zm16.945 3.443-.975-.221-1.591 7 .975.221.975.222 1.59-7-.974-.222ZM8.253 17v1h10.15v-2H8.254v1ZM19.994 6v1a1 1 0 0 1 .976 1.222l.975.221.975.222A3 3 0 0 0 19.994 5v1Zm.36 9.443-.975-.221a1 1 0 0 1-.976.778v2a3 3 0 0 0 2.926-2.335l-.975-.222ZM8.5 21.5v1h.01v-2H8.5v1Zm.5 0H8a.5.5 0 0 1 .5-.5v2a1.5 1.5 0 0 0 1.5-1.5H9Zm-.5.5v-1a.5.5 0 0 1 .5.5H7A1.5 1.5 0 0 0 8.5 23v-1Zm-.5-.5h1a.5.5 0 0 1-.5.5v-2A1.5 1.5 0 0 0 7 21.5h1Zm.5-.5v1a.5.5 0 0 1-.5-.5h2A1.5 1.5 0 0 0 8.5 20v1Zm8 .5v1h.01v-2h-.01v1Zm.5 0h-1a.5.5 0 0 1 .5-.5v2a1.5 1.5 0 0 0 1.5-1.5h-1Zm-.5.5v-1a.5.5 0 0 1 .5.5h-2a1.5 1.5 0 0 0 1.5 1.5v-1Zm-.5-.5h1a.5.5 0 0 1-.5.5v-2a1.5 1.5 0 0 0-1.5 1.5h1Zm.5-.5v1a.5.5 0 0 1-.5-.5h2a1.5 1.5 0 0 0-1.5-1.5v1ZM3.052 2V1H2v2h1.052V2Zm2.724 12.759.995-.1-.276-2.759-.995.1-.995.1.276 2.758.995-.1ZM5.5 12l.995-.1-.856-8.559-.995.1-.995.1.856 8.559.995-.1Zm0 0v1H16v-2H5.5v1ZM3.052 2v1c.271 0 .418 0 .523.009.093.007.073.016.02-.009l.427-.904.427-.904a2.014 2.014 0 0 0-.718-.177C3.53.999 3.292 1 3.052 1v1Zm1.592 1.44.995-.099c-.024-.239-.047-.475-.082-.674a2.014 2.014 0 0 0-.248-.697l-.857.515L3.595 3c-.03-.05-.023-.07-.007.02.019.105.034.25.061.52l.995-.1Zm-.622-1.344L3.595 3l.857-.515.857-.515a2 2 0 0 0-.86-.778l-.427.904ZM8.252 17v-1c-.457 0-.554-.004-.62-.016l-.18.984-.179.984c.288.052.607.048.98.048v-1Zm-2.476-2.241-.995.1c.037.37.065.687.145.969l.962-.276.96-.276c-.018-.065-.032-.161-.077-.617l-.995.1Zm1.676 2.209.18-.984a1 1 0 0 1-.783-.708l-.961.276-.962.276a3 3 0 0 0 2.347 2.124l.18-.984ZM20 6V5H5v2h15V6Z"/>
</svg>
