<svg xmlns="http://www.w3.org/2000/svg" width="24" height="24" fill="none" viewBox="0 0 24 24">
  <path fill="#000" d="M8.52 20.5a1 1 0 1 0 0 2v-2Zm.01 2a1 1 0 1 0 0-2v2Zm8.014-2a1 1 0 0 0 0 2v-2Zm.01 2a1 1 0 1 0 0-2v2ZM5.01 5a1 1 0 0 0 0 2V5Zm16.93 3.485.97.243-.97-.243Zm-1.003 4-.97-.243.97.243ZM6.012 13a1 1 0 1 0 0 2v-2ZM2 1a1 1 0 0 0 0 2V1Zm2.593 1.907.995-.094-.995.094Zm1.249 13.28-.996.093.996-.093ZM19.052 19a1 1 0 1 0 0-2v2ZM8.52 21.5v1h.01v-2h-.01v1Zm.501 0h-1a.5.5 0 0 1 .499-.5v2a1.5 1.5 0 0 0 1.501-1.5h-1Zm-.501.5v-1a.5.5 0 0 1 .498.5h-2A1.5 1.5 0 0 0 8.52 23v-1Zm-.502-.5h1a.5.5 0 0 1-.498.5v-2a1.5 1.5 0 0 0-1.502 1.5h1Zm.502-.5v1a.5.5 0 0 1-.499-.5h2A1.5 1.5 0 0 0 8.52 20v1Zm8.024.5v1h.01v-2h-.01v1Zm.502 0h-1a.5.5 0 0 1 .498-.5v2a1.5 1.5 0 0 0 1.502-1.5h-1Zm-.502.5v-1a.5.5 0 0 1 .498.5h-2a1.5 1.5 0 0 0 1.502 1.5v-1Zm-.502-.5h1a.5.5 0 0 1-.498.5v-2a1.5 1.5 0 0 0-1.502 1.5h1Zm.502-.5v1a.5.5 0 0 1-.498-.5h2a1.5 1.5 0 0 0-1.502-1.5v1ZM5.009 6v1h14.984V5H5.009v1Zm16.93 2.485-.97-.243-1.003 4 .97.243.97.243 1.003-4-.97-.243ZM18.99 14v-1H6.013v2H18.99v-1Zm1.947-1.515-.97-.243a1.005 1.005 0 0 1-.976.758v2c1.377 0 2.58-.935 2.916-2.272l-.97-.243ZM19.993 6v1c.658 0 1.133.615.976 1.242l.97.243.97.243C23.385 6.831 21.945 5 19.993 5v1ZM2 2v1h1.594V1H2v1Zm2.593.907L3.597 3l1.249 13.28.996-.093.995-.094-1.249-13.28-.995.094ZM7.839 18v1h11.213v-2H7.839v1Zm-1.997-1.813-.996.093A3.004 3.004 0 0 0 7.839 19v-2c-.522 0-.954-.395-1.002-.907l-.995.094ZM3.594 2v1h.002l.001.001c.001 0 .001.001 0 0 0 0 0-.002 0 0l.996-.094.995-.094A2.002 2.002 0 0 0 3.594 1v1Z"/>
</svg>
