<svg xmlns="http://www.w3.org/2000/svg" width="20" height="20" fill="none" viewBox="0 0 20 20">
  <path stroke="#000" stroke-linecap="round" stroke-linejoin="round" stroke-width="2" d="M17.071 8.586a4 4 0 0 0-5.657-5.657m5.657 5.657-.707-.707a1 1 0 0 0-1.414 0l-1.414 1.414a1 1 0 0 0 0 1.414l.707.707m2.828-2.828a1 1 0 0 1 0 1.414l-1.414 1.414a1 1 0 0 1-1.414 0M11.414 2.93l.707.707a1 1 0 0 1 0 1.414l-1.414 1.414a1 1 0 0 1-1.414 0l-.707-.707m2.828-2.828a1 1 0 0 0-1.414 0L8.586 4.343a1 1 0 0 0 0 1.414M5.05 9.293l3.536-3.536M5.05 9.293l.708.707a1 1 0 0 1 0 1.414L4.343 12.83a1 1 0 0 1-1.414 0l-.707-.708a1 1 0 0 1 0-1.414l1.414-1.414a1 1 0 0 1 1.414 0Zm9.193 2.121-3.536 3.536m0 0L10 14.243a1 1 0 0 0-1.414 0l-1.414 1.414a1 1 0 0 0 0 1.414l.707.707a1 1 0 0 0 1.414 0l1.414-1.414a1 1 0 0 0 0-1.414Zm-8.396-2.74a4.002 4.002 0 0 0 5.479 5.48m3.624-11.932 2.829 2.829M5.05 12.12l2.83 2.83"/>
</svg>
