<svg xmlns="http://www.w3.org/2000/svg" width="24" height="24" fill="none" viewBox="0 0 24 24">
  <path stroke="#000" stroke-linecap="round" stroke-linejoin="round" stroke-width="2" d="M6.75 18.22 7.625 22h8.75l.875-3.78m0-12.44L16.375 2h-8.75L6.75 5.78m8.75 12.887h-7c-1.933 0-3.5-1.493-3.5-3.334V8.667c0-1.841 1.567-3.334 3.5-3.334h7c1.933 0 3.5 1.493 3.5 3.334v6.666c0 1.841-1.567 3.334-3.5 3.334ZM12 15l2.512-2.346c.154-.142.277-.313.36-.5a1.469 1.469 0 0 0 .002-1.191 1.528 1.528 0 0 0-.358-.502 1.726 1.726 0 0 0-1.172-.457c-.439 0-.86.161-1.175.452l-.168.157-.167-.157A1.726 1.726 0 0 0 10.662 10c-.438 0-.86.161-1.174.452a1.53 1.53 0 0 0-.36.5 1.469 1.469 0 0 0-.003 1.191c.083.189.205.36.359.503L12 15Z"/>
</svg>
