<svg xmlns="http://www.w3.org/2000/svg" width="24" height="24" fill="none" viewBox="0 0 24 24">
  <path stroke="#000" stroke-linecap="round" stroke-linejoin="round" stroke-miterlimit="10" stroke-width="2" d="m21.711 16.76-3.777-3.904v0l2.078-.861a1.464 1.464 0 0 0-1.12-2.706l-.958.396V7.934a5.934 5.934 0 0 0-11.868 0v1.751L5.11 9.29a1.464 1.464 0 1 0-1.12 2.706l2.077.86v0L2.29 16.76c-.7.723-.585 1.39.257 1.48.84.09 1.455.843 1.363 1.673-.091.83.561 1.122 1.45.65l.215-.115c.89-.473 2.319-.43 3.177.096l1.687 1.034c.425.26.99.402 1.561.422.57-.02 1.136-.162 1.561-.422l1.687-1.034c.858-.526 2.288-.57 3.177-.096l.215.114c.89.473 1.542.18 1.45-.65a1.527 1.527 0 0 1 1.364-1.672c.841-.09.957-.756.257-1.48Z"/>
</svg>
