<svg xmlns="http://www.w3.org/2000/svg" width="24" height="24" fill="none" viewBox="0 0 24 24">
  <path stroke="#000" stroke-linecap="round" stroke-linejoin="round" stroke-miterlimit="10" stroke-width="2" d="m9 10.305 3-1.695m-3 1.695v3.39m0-3.39-6-3.39m9 1.695 3 1.695M12 8.61V2m3 8.305v3.39m0-3.39 6-3.39m-6 6.78-3 1.695m3-1.695 6 3.39m-9-1.695-3-1.695m3 1.695V22m-3-8.305-6 3.39m6.402-13.56L12 5.22l2.598-1.695m0 16.95L12 18.78l-2.598 1.695M18.2 5.56 18 8.61l2.8 1.353m-17.6 0L6 8.61l-.201-3.05m0 12.88L6 15.39l-2.799-1.354m17.598 0L18 15.39l.201 3.05"/>
</svg>
