<svg xmlns="http://www.w3.org/2000/svg" width="18" height="20" fill="none" viewBox="0 0 18 20">
  <path stroke="#000" stroke-linecap="round" stroke-linejoin="round" stroke-width="2" d="M9 19a5 5 0 0 0 2.8-9.143M9 19a5 5 0 0 1-2.8-9.143M9 19v-1m6-11h-4m2 12H5M6 4H4m2 0 1-3h4l1 3M6 4h.354M14 4h-2m0 0h-.354m1.938 8L17 9m-8 6v-1m-4.584-2L1 9m5.354-5A3.99 3.99 0 0 0 5 7c0 1.12.46 2.13 1.2 2.857M6.354 4h5.292m0 0A3.99 3.99 0 0 1 13 7c0 1.12-.46 2.13-1.2 2.857m-5.6 0A3.987 3.987 0 0 0 9 11a3.99 3.99 0 0 0 2.8-1.143"/>
</svg>
