<svg xmlns="http://www.w3.org/2000/svg" width="17" height="20" fill="none" viewBox="0 0 17 20">
  <path stroke="#000" stroke-linecap="round" stroke-linejoin="round" stroke-width="2" d="M1.001 10.287c.309-.112.64-.172.986-.172 1.635 0 2.96 1.36 2.96 3.038 0 .901-.382 1.71-.99 2.267m-2.956-5.133A6.29 6.29 0 0 1 1 10.16V1h8v7.753a2 2 0 0 0 1.12 1.796l3.903 1.915c1.734.79 2.473 2.906 1.625 4.648-.788 1.617-2.668 2.324-4.287 1.611l-6.773-2.979a5.869 5.869 0 0 1-.63-.324M1 10.287c.044 2.137 1.177 4.078 2.957 5.133M1 4h8"/>
</svg>
