<svg xmlns="http://www.w3.org/2000/svg" width="14" height="20" fill="none" viewBox="0 0 14 20">
  <path stroke="#000" stroke-linecap="round" stroke-linejoin="round" stroke-width="2" d="M7 13v3m0 0v3m0-3-5 3m5-3 5 3M4.952 4.808A2.99 2.99 0 0 1 7 4a2.99 2.99 0 0 1 2.048.808m-4.096 0L4 1h6l-.952 3.808m-4.096 0c-.05.046-.098.094-.144.144m0 0A2.99 2.99 0 0 0 4 7c0 .792.307 1.512.808 2.048m0-4.096L1 4v6l3.808-.952m0 0c.046.05.094.098.144.144m0 0A2.99 2.99 0 0 0 7 10a2.99 2.99 0 0 0 2.048-.808m-4.096 0L4 13h6l-.952-3.808m0 0c.05-.046.098-.094.144-.144m0 0A2.99 2.99 0 0 0 10 7a2.99 2.99 0 0 0-.808-2.048m0 4.096L13 10V4l-3.808.952m-.144-.144c.05.046.098.094.144.144"/>
</svg>
