<svg xmlns="http://www.w3.org/2000/svg" width="18" height="20" fill="none" viewBox="0 0 18 20">
  <path stroke="#000" stroke-linecap="round" stroke-linejoin="round" stroke-width="2" d="m12 19-1.219-.813a4 4 0 0 1-1.78-3.328V7.567M5.583 4.493a2.085 2.085 0 0 1 0-2.894 1.957 1.957 0 0 1 2.818 0L9 2.213l.598-.614a1.957 1.957 0 0 1 2.818 0 2.085 2.085 0 0 1 0 2.894l-2.7 2.772a1 1 0 0 1-1.432 0l-2.7-2.772Zm8.162 2.302a2.085 2.085 0 0 1 2.505 1.447 1.956 1.956 0 0 1-1.409 2.44l-.83.211.232.825a1.957 1.957 0 0 1-1.409 2.44 2.085 2.085 0 0 1-2.506-1.446L9.28 8.988a1 1 0 0 1 .716-1.24l3.75-.953Zm-9.491 0a2.085 2.085 0 0 0-2.506 1.447 1.957 1.957 0 0 0 1.409 2.44l.83.211-.232.825a1.957 1.957 0 0 0 1.409 2.44 2.085 2.085 0 0 0 2.506-1.446l1.05-3.724a1 1 0 0 0-.716-1.24l-3.75-.953Z"/>
</svg>
