<svg xmlns="http://www.w3.org/2000/svg" width="18" height="20" fill="none" viewBox="0 0 18 20">
  <path fill="#fff" d="M1 14a2 2 0 0 1 2-2h12a2 2 0 1 1 0 4H3a2 2 0 0 1-2-2Zm1-4a2 2 0 0 1 2-2h10a2 2 0 1 1 0 4H4a2 2 0 0 1-2-2Zm1-4a2 2 0 0 1 2-2h8a2 2 0 1 1 0 4H5a2 2 0 0 1-2-2Z"/>
  <path stroke="#000" stroke-linecap="round" stroke-linejoin="round" stroke-width="2" d="M9 4V1m0 17v-2m8 3H1m2-3h12a2 2 0 1 0 0-4H3a2 2 0 1 0 0 4Zm1-4h10a2 2 0 1 0 0-4H4a2 2 0 1 0 0 4Zm1-4h8a2 2 0 1 0 0-4H5a2 2 0 1 0 0 4Z"/>
</svg>
