<svg xmlns="http://www.w3.org/2000/svg" width="24" height="24" fill="none" viewBox="0 0 24 24">
  <path stroke="#000" stroke-linecap="round" stroke-linejoin="round" stroke-miterlimit="10" stroke-width="2" d="M9.09 8.485a3.39 3.39 0 0 0-4.567.206l-2.114 2.114a5.695 5.695 0 0 1 5.012 1.488m4.286 4.287a5.694 5.694 0 0 1 1.488 5.011l2.114-2.113a3.39 3.39 0 0 0 .207-4.568m5.609-6.396-5.639-5.639m-7.543 14.03a1.684 1.684 0 0 0 1.77.396c2.657-.972 6.287-2.11 8.592-4.415 4.634-4.634 3.596-10.787 3.596-10.787s-6.153-1.038-10.787 3.596C8.81 8 7.671 11.63 6.7 14.286a1.684 1.684 0 0 0 .396 1.771l.848.848Zm-2.347 1.5a1.695 1.695 0 0 1 0 2.396C4.934 21.463 2 22 2 22s.537-2.934 1.199-3.596a1.695 1.695 0 0 1 2.397 0Zm10.21-8.515a1.695 1.695 0 1 1-3.39 0 1.695 1.695 0 0 1 3.39 0Z"/>
</svg>
