<svg xmlns="http://www.w3.org/2000/svg" width="24" height="24" fill="none" viewBox="0 0 24 24">
  <path stroke="#000" stroke-miterlimit="10" stroke-width="2" d="M14.178 16.314c1.55-1.057 3.136-2.25 4.132-3.246 1.402-1.402 2.337-3.173 2.902-5.067C21.778 6.083 22 4.017 22 2c-4.034 0-8.252.873-11.068 3.69-.996.995-2.19 2.582-3.247 4.131m6.493 6.493a85.615 85.615 0 0 1-4.476 2.902m4.476-2.902c1.316 1.317 1.071 3.513-.493 4.521a86.06 86.06 0 0 1-1.45.915l-2.533-2.534m0 0-4.92-4.919m0 0s1.317-2.2 2.903-4.476m-2.902 4.476-2.534-2.533c.232-.377.545-.877.914-1.45C4.172 8.75 6.37 8.505 7.685 9.821m7.868-6.889L21.07 8.45M3.553 17.987a1.731 1.731 0 0 0-.45.778L1.999 22l3.235-1.104a1.74 1.74 0 1 0-1.681-2.91Zm11.577-7.379a1.74 1.74 0 1 1-3.478 0 1.74 1.74 0 0 1 3.478 0Z"/>
</svg>
