<svg xmlns="http://www.w3.org/2000/svg" width="20" height="16" fill="none" viewBox="0 0 20 16">
  <path fill="#000" d="m6.143 4.166-.286.958a1 1 0 0 0 1.122-.41l-.836-.548ZM19 8h-1c0 1.665-.641 3.145-1.803 4.214C15.034 13.286 13.29 14 11 14v2c2.711 0 4.966-.853 6.553-2.315C19.14 12.222 20 10.201 20 8h-1Zm-7-7v1a6 6 0 0 1 6 6h2a8 8 0 0 0-8-8v1ZM6.143 4.166l.836.548A5.994 5.994 0 0 1 12 2V0a7.994 7.994 0 0 0-6.694 3.617l.837.549ZM5 4v1a3 3 0 0 1 .857.124l.286-.958.285-.959A5 5 0 0 0 5 3v1ZM1 8h1a3 3 0 0 1 3-3V3a5 5 0 0 0-5 5h1Zm0 0H0c0 1.592.26 3.675 1.918 5.332C3.564 14.978 6.382 16 11 16v-2c-4.382 0-6.564-.978-7.668-2.082C2.24 10.825 2 9.408 2 8H1Zm18 0h-1c0 .488-.396 1.221-1.515 1.893C15.41 10.538 13.842 11 12 11v2c2.158 0 4.09-.538 5.515-1.393C18.895 10.78 20 9.512 20 8h-1ZM1 8H0c0 .677.173 1.383.634 2.042.455.65 1.144 1.188 2.072 1.616C4.532 12.501 7.46 13 12 13v-2c-4.46 0-7.032-.501-8.456-1.158-.697-.322-1.07-.659-1.272-.947A1.5 1.5 0 0 1 2 8H1Zm14-1.5h-1c0-.075.046.028-.247.203-.272.164-.713.297-1.253.297v2c.84 0 1.65-.202 2.282-.582C15.395 8.051 16 7.403 16 6.5h-1ZM12.5 8V7c-.54 0-.981-.133-1.253-.297C10.954 6.528 11 6.425 11 6.5H9c0 .903.605 1.55 1.218 1.918.632.38 1.442.582 2.282.582V8ZM10 6.5h1c0 .075-.046-.028.247-.203C11.519 6.133 11.96 6 12.5 6V4c-.84 0-1.65.202-2.282.582C9.605 4.949 9 5.597 9 6.5h1ZM12.5 5v1c.54 0 .981.133 1.253.297.293.175.247.278.247.203h2c0-.903-.605-1.55-1.218-1.918C14.15 4.202 13.34 4 12.5 4v1Z"/>
</svg>
