<svg xmlns="http://www.w3.org/2000/svg" width="20" height="20" fill="none" viewBox="0 0 20 20">
  <path stroke="#000" stroke-linecap="round" stroke-linejoin="round" stroke-width="2" d="M5.43 14.601a2 2 0 1 0-2.86 2.797 2 2 0 0 0 2.86-2.796Zm0 0L8 12.236M16 9.5a1.5 1.5 0 1 0 3 0 1.5 1.5 0 0 0-3 0Zm0 0h-3.041m-.254-5.728a1.5 1.5 0 1 0 1.59-2.544 1.5 1.5 0 0 0-1.59 2.544Zm0 0L11 7.171m0 0a2.997 2.997 0 0 0-3.5 1.17m3.5-1.17A3.004 3.004 0 0 1 12.959 9.5M7.5 8.341A2.986 2.986 0 0 0 7 10a2.99 2.99 0 0 0 1 2.236m-.5-3.895-3-2.018m0 0a2 2 0 1 0-3-2.646 2 2 0 0 0 3 2.646ZM8 12.236A2.99 2.99 0 0 0 10 13c.691 0 1.328-.234 1.835-.627m0 0A2.995 2.995 0 0 0 12.958 9.5m-1.123 2.873L14 15.268m0 0A1.99 1.99 0 0 0 13 17a2 2 0 1 0 1-1.732Z"/>
</svg>
