<svg xmlns="http://www.w3.org/2000/svg" width="24" height="24" fill="none" viewBox="0 0 24 24">
  <path fill="#000" d="m21.728 13.969-.94.341.94-.341ZM19.04 19.74l.342.94-.342-.94Zm-3.076-8.462-.973.233a1 1 0 0 0 1.315.706l-.343-.94Zm2.049 8.705.002 1c.037 0 .075-.002.113-.006l-.115-.994ZM8.996 20v1h.001l-.001-1Zm9.003-16.205-.5.866.5-.866Zm3.729 10.174-.94.341a3.504 3.504 0 0 1-2.09 4.49l.342.94.342.94a5.504 5.504 0 0 0 3.285-7.053l-.94.342Zm-5.765-2.691.343.94a3.496 3.496 0 0 1 4.482 2.092l.94-.341.94-.342a5.496 5.496 0 0 0-7.047-3.289l.342.94Zm3.077 8.462-.343-.94a3.507 3.507 0 0 1-.799.19l.115.993.115.994a5.56 5.56 0 0 0 1.254-.297l-.342-.94ZM8.996 20v-1A6 6 0 0 1 3 12.996H1C1 17.416 4.579 21 8.996 21v-1ZM2 12.996h1a6 6 0 0 1 5.996-6.004v-2C4.579 4.992 1 8.576 1 12.996h1ZM8.996 20l.001 1 9.018-.017-.002-1-.002-1L8.994 19l.002 1Zm0-14.008v1c2.868 0 5.371 1.926 5.995 4.52l.973-.234.972-.234c-.855-3.555-4.213-6.052-7.94-6.052v1Zm.79.042.865.5c1.387-2.403 4.466-3.25 6.848-1.873l.5-.866.5-.866c-3.357-1.94-7.652-.736-9.58 2.605l.866.5Zm8.213-2.239-.5.866c2.407 1.39 3.244 4.394 1.871 6.773l.866.5.866.5c1.942-3.365.73-7.58-2.602-9.505l-.5.866Z"/>
</svg>
