<svg xmlns="http://www.w3.org/2000/svg" width="20" height="20" fill="none" viewBox="0 0 20 20">
  <path stroke="#000" stroke-linecap="round" stroke-linejoin="round" stroke-width="2" d="M3 12.665c-1.184-.541-2-1.68-2-2.998 0-1.841 1.592-3.334 3.556-3.334l.088.001C5.056 4.432 6.85 3 9 3c.825 0 1.598.21 2.26.578m0 0a4.001 4.001 0 1 1 5.347 5.086M11.26 3.578c1.308.726 2.184 2.061 2.184 3.589v.03c.145-.02.294-.03.445-.03 1.168 0 2.187.604 2.718 1.497m0 0c.25.42.393.904.393 1.42 0 1.243-.83 2.305-2 2.725M9 11l-1 8m4-8-.889 7M6 11l-.778 6"/>
</svg>
