<svg xmlns="http://www.w3.org/2000/svg" width="20" height="20" fill="none" viewBox="0 0 20 20">
  <path stroke="#000" stroke-linecap="round" stroke-linejoin="round" stroke-width="2" d="M6 3h8M6 3v3m0-3V1m8 2v3m0-3V1M6 6h8M6 6v3m8-3v3M6 9h8M6 9v2m8-2v2m5.001 3.98c-.5.08-1-.08-1.501-.48-.833-.667-1.667-.667-2.5 0s-1.667.667-2.5 0-1.667-.667-2.5 0-1.667.667-2.5 0-1.667-.667-2.5 0-1.667.667-2.5 0c-.5-.4-.999-.56-1.498-.48M19 18.98c-.5.08-1-.08-1.501-.48-.833-.667-1.667-.667-2.5 0s-1.667.667-2.5 0-1.667-.667-2.5 0-1.667.667-2.5 0-1.667-.667-2.5 0-1.667.667-2.5 0c-.5-.4-.999-.56-1.498-.48"/>
</svg>
