<svg xmlns="http://www.w3.org/2000/svg" width="20" height="18" fill="none" viewBox="0 0 20 18">
  <path fill="#000" d="M7 13a1 1 0 1 0-2 0h2Zm-2 1a1 1 0 1 0 2 0H5Zm6-3a1 1 0 1 0-2 0h2Zm-2 1a1 1 0 1 0 2 0H9Zm6 1a1 1 0 1 0-2 0h2Zm-2 1a1 1 0 1 0 2 0h-2Zm6 3v1a1 1 0 0 0 1-1h-1ZM1 17H0a1 1 0 0 0 1 1v-1Zm9-16 .717-.697a1 1 0 0 0-1.434 0L10 1Zm1.656 1.704-.717.697a1 1 0 0 0 1.004.262l-.287-.959Zm2.344-.7.974-.226a1 1 0 0 0-1.26-.731l.286.958Zm.525 2.253-.973.228a1 1 0 0 0 .773.752l.2-.98Zm2.403.493.947.322a1 1 0 0 0-.746-1.302l-.2.98Zm-.746 2.197-.947-.322a1 1 0 0 0 .297 1.082l.65-.76ZM18 8.5l.879.477a1 1 0 0 0-.23-1.237L18 8.5Zm-16 0-.65-.76a1 1 0 0 0-.229 1.237L2 8.5Zm1.818-1.553.65.76a1 1 0 0 0 .297-1.082l-.947.322ZM3.072 4.75l-.201-.98a1 1 0 0 0-.746 1.302l.947-.322Zm2.403-.493.2.98a1 1 0 0 0 .773-.752l-.973-.228ZM6 2.005l.286-.958a1 1 0 0 0-1.26.73L6 2.006Zm2.344.7-.287.958A1 1 0 0 0 9.061 3.4l-.717-.697ZM6 13H5v1h2v-1H6Zm4-2H9v1h2v-1h-1Zm4 2h-1v1h2v-1h-1Zm5 3h-1v1h2v-1h-1Zm0 1v-1H1v2h18v-1ZM1 17h1v-1H0v1h1Zm9-10v1a8 8 0 0 1 8 8h2c0-5.523-4.477-10-10-10v1Zm0 0V6C4.477 6 0 10.477 0 16h2a8 8 0 0 1 8-8V7Zm0-6-.717.697L10.939 3.4l.717-.697.718-.696L10.717.303 10 1Zm1.656 1.704.287.959 2.343-.7L14 2.005l-.286-.958-2.344.7.286.957Zm2.344-.7-.974.228.526 2.253.973-.228.974-.227-.525-2.252-.974.227Zm.525 2.253-.2.98 2.402.493.201-.98.201-.98-2.403-.492-.2.98Zm2.403.493-.947-.322-.746 2.197.947.322.947.322.746-2.197-.947-.322Zm-.746 2.197-.65.76 1.819 1.553L18 8.5l.65-.76-1.819-1.553-.65.76ZM18 8.5l-.879-.477-1 1.843.879.477.879.477 1-1.843L18 8.5ZM3 10.343l.879-.477-1-1.843L2 8.5l-.879.477 1 1.843.879-.477ZM2 8.5l.65.76 1.818-1.553-.65-.76-.65-.76L1.352 7.74 2 8.5Zm1.818-1.553.947-.322-.746-2.197-.947.322-.947.322.746 2.197.947-.322ZM3.072 4.75l.2.98 2.403-.493-.2-.98-.201-.98-2.403.493.2.98Zm2.403-.493.973.228.526-2.253L6 2.005l-.974-.227-.525 2.252.974.227ZM6 2.005l-.286.958 2.343.7.287-.959.286-.958-2.344-.7-.286.96Zm2.344.7.717.696 1.656-1.704L10 1 9.283.303 7.626 2.008l.718.696Z"/>
</svg>
