<svg xmlns="http://www.w3.org/2000/svg" width="24" height="24" fill="none" viewBox="0 0 24 24">
  <path fill="#000" d="M12 11a1 1 0 1 0 0 2v-2Zm.01 2a1 1 0 1 0 0-2v2ZM22 12h-1a9 9 0 0 1-9 9v2c6.075 0 11-4.925 11-11h-1ZM12 22v-1a9 9 0 0 1-9-9H1c0 6.075 4.925 11 11 11v-1ZM2 12h1a9 9 0 0 1 9-9V1C5.925 1 1 5.925 1 12h1ZM12 2v1a9 9 0 0 1 9 9h2c0-6.075-4.925-11-11-11v1Zm5 10h-1a4 4 0 0 1-4 4v2a6 6 0 0 0 6-6h-1Zm-5 5v-1a4 4 0 0 1-4-4H6a6 6 0 0 0 6 6v-1Zm-5-5h1a4 4 0 0 1 4-4V6a6 6 0 0 0-6 6h1Zm5-5v1a4 4 0 0 1 4 4h2a6 6 0 0 0-6-6v1Zm0 5v1h.01v-2H12v1Z"/>
</svg>
