<svg xmlns="http://www.w3.org/2000/svg" width="20" height="19" fill="none" viewBox="0 0 20 19">
  <path stroke="#000" stroke-linecap="round" stroke-linejoin="round" stroke-width="2" d="M7.975 2.326A4 4 0 1 0 2.49 8.114m5.485-5.788A6.513 6.513 0 0 1 10 2c4.418 0 8 4.582 8 9s-2 7-8 7-8-2.582-8-7c0-.97.173-1.95.49-2.886m5.485-5.788c-2.54.828-4.589 3.138-5.485 5.788M12 2.326A4 4 0 0 1 18.975 5c0 1.258-.566 2.35-1.475 3.084M10 12a1.5 1.5 0 0 1-1.5 1.5M10 12a1.5 1.5 0 0 0 1.5 1.5M10 12v-1m-4-1V9m8 1V9m-4.5 2h1"/>
</svg>
