<svg xmlns="http://www.w3.org/2000/svg" width="20" height="20" fill="none" viewBox="0 0 20 20">
  <path stroke="#000" stroke-linecap="round" stroke-linejoin="round" stroke-width="2" d="M1.014 9.5a8.978 8.978 0 0 1 6.865 2.621 8.978 8.978 0 0 1 2.622 6.865M1.014 9.5a8.978 8.978 0 0 0 2.622 6.865 8.977 8.977 0 0 0 6.865 2.622M1.014 9.5a8.966 8.966 0 0 1 2.622-5.863 8.966 8.966 0 0 1 5.863-2.622m1.002 17.972a8.967 8.967 0 0 0 5.863-2.622 8.967 8.967 0 0 0 2.622-5.863m0 0a8.978 8.978 0 0 1-6.865-2.622A8.978 8.978 0 0 1 9.5 1.014m9.487 9.487a8.978 8.978 0 0 0-2.622-6.865A8.978 8.978 0 0 0 9.5 1.014"/>
</svg>
