<svg xmlns="http://www.w3.org/2000/svg" width="20" height="18" fill="none" viewBox="0 0 20 18">
  <path stroke="#000" stroke-linecap="round" stroke-linejoin="round" stroke-width="2" d="m14 5 2-2m-2 2c-.38-.38-1.182-.542-2.055-.399m2.055.4c.399.398.558 1.261.375 2.184M16 3h2m-2 0V1m-4.055 3.601a4.034 4.034 0 0 0-2.188 1.106C8.391 7.074 7.99 8.89 9.05 9.95c1.06 1.06 2.876.66 4.243-.707a4.022 4.022 0 0 0 1.082-2.058M11.945 4.6A6 6 0 1 0 7 14h8.5a3.5 3.5 0 1 0-1.125-6.815M19 14H1a3 3 0 0 0 3 3h12a3 3 0 0 0 3-3Z"/>
</svg>
