<svg xmlns="http://www.w3.org/2000/svg" width="24" height="24" fill="none" viewBox="0 0 24 24">
  <path stroke="#000" stroke-linecap="round" stroke-linejoin="round" stroke-width="2" d="m7.08 11 4.065-9c.809 0 1.584.316 2.156.879.571.562.893 1.325.893 2.121v4h5.75a2.06 2.06 0 0 1 .856.175c.269.119.508.294.701.512a1.99 1.99 0 0 1 .476 1.613l-1.402 9c-.074.477-.32.912-.693 1.224a2.052 2.052 0 0 1-1.34.476H7.082m0-11v11m0-11h-3.05a2.05 2.05 0 0 0-1.437.586A1.984 1.984 0 0 0 2 13v7c0 .53.214 1.039.595 1.414S3.493 22 4.032 22h3.049"/>
</svg>
