<svg xmlns="http://www.w3.org/2000/svg" width="24" height="24" fill="none" viewBox="0 0 24 24">
  <path stroke="#000" stroke-linecap="round" stroke-linejoin="round" stroke-width="2" d="m16.92 13-4.065 9a3.073 3.073 0 0 1-2.156-.879 2.976 2.976 0 0 1-.892-2.12v-4H4.055a2.06 2.06 0 0 1-1.556-.688 1.99 1.99 0 0 1-.476-1.613l1.402-9c.074-.477.32-.911.693-1.224A2.052 2.052 0 0 1 5.458 2h11.461m0 11V2m0 11h2.713a2.371 2.371 0 0 0 1.57-.557A2.3 2.3 0 0 0 22 11V4a2.3 2.3 0 0 0-.797-1.443A2.37 2.37 0 0 0 19.633 2h-2.714"/>
</svg>
