<svg xmlns="http://www.w3.org/2000/svg" width="20" height="20" fill="none" viewBox="0 0 20 20">
  <path stroke="#000" stroke-linecap="round" stroke-linejoin="round" stroke-width="2" d="M13 10a3 3 0 0 1-3 3m3-3a3 3 0 0 0-3-3m3 3a9 9 0 0 0-9-9m6 12a3 3 0 0 1-3-3m3 3a9 9 0 0 0 9-9M7 10a3 3 0 0 1 3-3m-3 3a9 9 0 0 0 9 9M10 7a9 9 0 0 0-9 9m0-9.4a9.003 9.003 0 0 1 11.121 1.28M6.601 19A9.004 9.004 0 0 1 7.878 7.879M13.399 1a9.004 9.004 0 0 1-1.278 11.121M19 13.4c-3.473 2.166-8.103 1.74-11.121-1.279"/>
</svg>
