<svg xmlns="http://www.w3.org/2000/svg" width="24" height="24" fill="none" viewBox="0 0 24 24">
  <path fill="#000" d="M11 16a1 1 0 1 0 0-2v2Zm-6.828.172.707.707-.707-.707ZM2 21a1 1 0 1 0 2 0H2Zm13.817-2.442.745-.667-.008-.01-.01-.01-.727.687Zm4.366 0-.727-.686-.01.01-.009.01.746.666ZM18 21l-.746.666a1 1 0 0 0 1.492 0L18 21Zm-7-6v-1H7v2h4v-1Zm-4 0v-1a5 5 0 0 0-3.536 1.464l.708.708.707.707A3 3 0 0 1 7 16v-1Zm-2.828 1.172-.708-.708A5 5 0 0 0 2 19h2a3 3 0 0 1 .879-2.121l-.707-.707ZM3 19H2v2h2v-2H3ZM15 7h-1a3 3 0 0 1-3 3v2a5 5 0 0 0 5-5h-1Zm-4 4v-1a3 3 0 0 1-3-3H6a5 5 0 0 0 5 5v-1ZM7 7h1a3 3 0 0 1 3-3V2a5 5 0 0 0-5 5h1Zm4-4v1a3 3 0 0 1 3 3h2a5 5 0 0 0-5-5v1Zm4 13.5h1a2 2 0 0 1 2-2v-2a4 4 0 0 0-4 4h1Zm3-3v1a2 2 0 0 1 2 2h2a4 4 0 0 0-4-4v1Zm-2.183 5.058.727-.686A1.99 1.99 0 0 1 16 16.5h-2a3.99 3.99 0 0 0 1.09 2.744l.727-.686ZM21 16.5h-1a1.99 1.99 0 0 1-.544 1.372l.727.686.728.686A3.99 3.99 0 0 0 22 16.5h-1ZM18 21l.746.666 2.183-2.442-.746-.666-.745-.667-2.184 2.443L18 21Zm0 0 .746-.666-2.183-2.443-.746.667-.746.666 2.183 2.442L18 21Z"/>
</svg>
