<svg xmlns="http://www.w3.org/2000/svg" width="24" height="24" fill="none" viewBox="0 0 24 24">
  <path fill="#000" d="M3.034 20.743a1 1 0 0 0 1.932.514l-1.932-.514Zm16 .514a1 1 0 0 0 1.933-.514l-1.933.514ZM4 21l.966.257C5.765 18.253 8.596 16 12 16v-2c-4.294 0-7.93 2.846-8.966 6.743L4 21Zm8-6v1c3.404 0 6.235 2.253 7.034 5.257L20 21l.966-.257C19.931 16.847 16.294 14 12 14v1Zm4-8h-1a3 3 0 0 1-3 3v2a5 5 0 0 0 5-5h-1Zm-4 4v-1a3 3 0 0 1-3-3H7a5 5 0 0 0 5 5v-1ZM8 7h1a3 3 0 0 1 3-3V2a5 5 0 0 0-5 5h1Zm4-4v1a3 3 0 0 1 3 3h2a5 5 0 0 0-5-5v1Z"/>
</svg>
