<svg xmlns="http://www.w3.org/2000/svg" width="20" height="20" fill="none" viewBox="0 0 20 20">
  <path stroke="#000" stroke-linecap="round" stroke-linejoin="round" stroke-width="2" d="M7.727 13H9c1.519 0 3 .911 3 2.47v2.118c0 .78-.616 1.412-1.375 1.412h-8.25C1.615 19 1 18.368 1 17.588v-2.117C1 13.91 2.481 13 4 13h1.273m3.977-2.656c0 1.846-1.528 3.009-2.75 3.009s-2.75-1.163-2.75-3.01C3.75 8.498 4.812 7 6.5 7s2.75 1.497 2.75 3.344ZM12 1h6c.68 0 1 .337 1 1v4c0 .663-.32 1-1 1h-2l-3 3V7h-1c-.68 0-1-.337-1-1V2c0-.663.32-1 1-1Z"/>
</svg>
