<svg xmlns="http://www.w3.org/2000/svg" width="24" height="24" fill="none" viewBox="0 0 24 24">
  <path stroke="#000" stroke-linecap="round" stroke-linejoin="round" stroke-width="2" d="M10 15H7a4 4 0 0 0-4 4v2M15 7a4 4 0 1 1-8 0 4 4 0 0 1 8 0Zm2.5 12.965-1.81.995a.313.313 0 0 1-.341-.026.34.34 0 0 1-.111-.147.36.36 0 0 1-.02-.185l.345-2.11L14.099 17a.356.356 0 0 1 .017-.506.317.317 0 0 1 .164-.076l2.023-.308.905-1.919a.338.338 0 0 1 .12-.139.316.316 0 0 1 .345 0 .337.337 0 0 1 .12.14l.905 1.918 2.023.308c.06.009.117.035.163.076a.357.357 0 0 1 .018.505l-1.464 1.494.345 2.109a.357.357 0 0 1-.02.186.34.34 0 0 1-.11.148.317.317 0 0 1-.342.025l-1.81-.995Z"/>
</svg>
