<svg xmlns="http://www.w3.org/2000/svg" width="24" height="24" fill="none" viewBox="0 0 24 24">
  <path fill="#000" d="M2 18H1h1Zm9-13v1-1Zm-1 3a1 1 0 1 0 0-2v2ZM3 6a1 1 0 0 0 0 2V6Zm18 2a1 1 0 1 0 0-2v2Zm-7-2a1 1 0 1 0 0 2V6ZM2 7H1h1Zm2 0h1-1Zm-2 9h1l-.707-.707-.707-.707A2 2 0 0 0 1 16h1Zm.293-.707L3 16v-2a2 2 0 0 0-1.414.586l.707.707ZM3 15v1h2v-2H3v1Zm2 0v1l.707-.707.707-.707A2 2 0 0 0 5 14v1Zm.707.293L5 16h2a2 2 0 0 0-.586-1.414l-.707.707ZM6 16H5v2h2v-2H6Zm0 2H5l.707.707.707.707A2 2 0 0 0 7 18H6Zm-.293.707L5 18v2a2 2 0 0 0 1.414-.586l-.707-.707ZM5 19v-1H3v2h2v-1Zm-2 0v-1l-.707.707-.707.707A2 2 0 0 0 3 20v-1Zm-.707-.293L3 18H1a2 2 0 0 0 .586 1.414l.707-.707ZM2 18h1v-2H1v2h1Zm16-2h1l-.707-.707-.707-.707A2 2 0 0 0 17 16h1Zm.293-.707L19 16v-2a2 2 0 0 0-1.414.586l.707.707ZM19 15v1h2v-2h-2v1Zm2 0v1l.707-.707.707-.707A2 2 0 0 0 21 14v1Zm.707.293L21 16h2a2 2 0 0 0-.586-1.414l-.707.707ZM22 16h-1v2h2v-2h-1Zm0 2h-1l.707.707.707.707A2 2 0 0 0 23 18h-1Zm-.293.707L21 18v2a2 2 0 0 0 1.414-.586l-.707-.707ZM21 19v-1h-2v2h2v-1Zm-2 0v-1l-.707.707-.707.707A2 2 0 0 0 19 20v-1Zm-.707-.293L19 18h-2a2 2 0 0 0 .586 1.414l.707-.707ZM18 18h1v-2h-2v2h1ZM10 6h1l-.707-.707-.707-.707A2 2 0 0 0 9 6h1Zm.293-.707L11 6V4a2 2 0 0 0-1.414.586l.707.707ZM11 5v1h2V4h-2v1Zm2 0v1l.707-.707.707-.707A2 2 0 0 0 13 4v1Zm.707.293L13 6h2a2 2 0 0 0-.586-1.414l-.707.707ZM14 6h-1v2h2V6h-1Zm0 2h-1l.707.707.707.707A2 2 0 0 0 15 8h-1Zm-.293.707L13 8v2a2 2 0 0 0 1.414-.586l-.707-.707ZM13 9V8h-2v2h2V9Zm-2 0V8l-.707.707-.707.707A2 2 0 0 0 11 10V9Zm-.707-.293L11 8H9a2 2 0 0 0 .586 1.414l.707-.707ZM10 8h1V6H9v2h1Zm0-1V6H3v2h7V7Zm11 0V6h-7v2h7V7ZM4 15h1c0-3.26 2.23-6.002 5.25-6.78L10 7.252l-.25-.968C5.87 7.283 3 10.804 3 15h1Zm10-7.748-.25.968A7.003 7.003 0 0 1 19 15h2c0-4.195-2.87-7.717-6.75-8.716l-.25.968ZM2 7H1a2 2 0 0 0 .586 1.414l.707-.707L3 7H2Zm.293.707-.707.707A2 2 0 0 0 3 9V7l-.707.707ZM3 8v1a2 2 0 0 0 1.414-.586l-.707-.707L3 7v1Zm.707-.293.707.707A2 2 0 0 0 5 7H3l.707.707ZM4 7h1a2 2 0 0 0-.586-1.414l-.707.707L3 7h1Zm-.293-.707.707-.707A2 2 0 0 0 3 5v2l.707-.707ZM3 6V5a2 2 0 0 0-1.414.586l.707.707L3 7V6Zm-.707.293-.707-.707A2 2 0 0 0 1 7h2l-.707-.707ZM20 7h-1a2 2 0 0 0 .586 1.414l.707-.707L21 7h-1Zm.293.707-.707.707A2 2 0 0 0 21 9V7l-.707.707ZM21 8v1a2 2 0 0 0 1.414-.586l-.707-.707L21 7v1Zm.707-.293.707.707A2 2 0 0 0 23 7h-2l.707.707ZM22 7h1a2 2 0 0 0-.586-1.414l-.707.707L21 7h1Zm-.293-.707.707-.707A2 2 0 0 0 21 5v2l.707-.707ZM21 6V5a2 2 0 0 0-1.414.586l.707.707L21 7V6Zm-.707.293-.707-.707A2 2 0 0 0 19 7h2l-.707-.707Z"/>
</svg>
