<svg xmlns="http://www.w3.org/2000/svg" width="20" height="20" fill="none" viewBox="0 0 20 20">
  <path stroke="#000" stroke-linecap="round" stroke-linejoin="round" stroke-width="2" d="M3.636 3.636a9 9 0 0 0 .594 13.272M3.636 3.636 7.21 7.21M3.636 3.636a8.98 8.98 0 0 1 2.663-1.842M9.999 10 7.21 7.21M10 10l3.88-1.04M10 10l-2.33 8.695m0 0a8.997 8.997 0 0 0 8.694-2.331 8.965 8.965 0 0 0 2.613-5.725M7.67 18.695a8.945 8.945 0 0 1-3.439-1.787m14.465-9.239A9.004 9.004 0 0 0 6.299 1.793M18.695 7.67 13.88 8.96m4.815-1.29c.258.97.353 1.974.282 2.97M7.21 7.21a8.999 8.999 0 0 0-2.98 9.698M6.3 1.794a8.96 8.96 0 0 1 5.115 2.55A8.958 8.958 0 0 1 13.88 8.96m5.097 1.68a9.03 9.03 0 0 1-1.199 1.481c-2.413 2.414-5.894 3.162-8.953 2.26"/>
</svg>
