<svg xmlns="http://www.w3.org/2000/svg" width="24" height="24" fill="none" viewBox="0 0 24 24">
  <path fill="#000" d="m4.368 6.724-.313-.95.313.95Zm11-3.621.312.95-.313-.95Zm1.132 9.984a1 1 0 1 0 0 2v-2Zm.01 2a1 1 0 0 0 0-2v2ZM19 21v-1H5v2h14v-1ZM3 19.025h1v-6.913H2v6.913h1Zm0-6.913h1V9.149H2v2.963h1ZM5 21v-1c-.564 0-1-.448-1-.975H2C2 20.68 3.355 22 5 22v-1ZM5 7.174v-1c-1.645 0-3 1.32-3 2.975h2a.988.988 0 0 1 1-.975v-1ZM19 21v1c1.645 0 3-1.32 3-2.975h-2A.988.988 0 0 1 19 20v1Zm2-11.85h1c0-1.656-1.355-2.976-3-2.976v2c.564 0 1 .448 1 .975h1Zm-3-4.173h-1V6.77h2V4.977h-1ZM3 12.112h1V8.598H2v3.514h1Zm1.368-5.388.312.95 11-3.621-.313-.95-.312-.95-11 3.621.313.95ZM3 8.598h1c0-.412.267-.788.68-.924l-.312-.95-.313-.95A2.977 2.977 0 0 0 2 8.598h1Zm15-3.621h1c0-2.047-2.02-3.458-3.945-2.824l.313.95.312.95c.665-.22 1.32.274 1.32.924h1Zm-1.5 9.11v1h.01v-2h-.01v1Zm.5 0h-1c0-.291.236-.506.5-.506v2c.817 0 1.5-.657 1.5-1.494h-1Zm-.5.494v-1c.264 0 .5.215.5.506h-2c0 .837.683 1.494 1.5 1.494v-1Zm-.5-.494h1a.503.503 0 0 1-.5.506v-2c-.817 0-1.5.657-1.5 1.494h1Zm.5-.494v1a.503.503 0 0 1-.5-.506h2c0-.837-.683-1.494-1.5-1.494v1Zm4.5 5.432h1V9.149h-2v9.876h1Zm-2-11.85v-1H5v2h14v-1Z"/>
</svg>
