<svg xmlns="http://www.w3.org/2000/svg" width="24" height="24" fill="none" viewBox="0 0 24 24">
  <path stroke="#000" stroke-linecap="round" stroke-linejoin="round" stroke-miterlimit="10" stroke-width="2" d="M2 12.536a4.572 4.572 0 0 0 4.915-.108 4.572 4.572 0 0 0 5.085 0 4.572 4.572 0 0 0 5.085 0 4.572 4.572 0 0 0 4.915.108m-20 3.4a4.572 4.572 0 0 0 4.915-.108 4.572 4.572 0 0 0 5.085 0 4.572 4.572 0 0 0 5.085 0 4.572 4.572 0 0 0 4.915.108M22 9.8h-1.695a3.395 3.395 0 0 1-3.39-3.4c0-.939.76-1.7 1.695-1.7.936 0 1.695.761 1.695 1.7 0-1.878-1.518-3.4-3.39-3.4a3.395 3.395 0 0 0-3.39 3.4v.85a2.546 2.546 0 0 1-2.542 2.55h-.508a3.395 3.395 0 0 1-3.39-3.4c0-.939.759-1.7 1.695-1.7s1.695.761 1.695 1.7c0-1.878-1.518-3.4-3.39-3.4a3.395 3.395 0 0 0-3.39 3.4v.85A2.55 2.55 0 0 1 2 9.655V20h20V9.8Z"/>
</svg>
