<svg xmlns="http://www.w3.org/2000/svg" width="20" height="20" fill="none" viewBox="0 0 20 20">
  <path stroke="#000" stroke-linecap="round" stroke-linejoin="round" stroke-width="2" d="M7.879 12.121 12.12 7.88m4.243-4.243.707-.707M2.929 17.07l.707-.707m13.789-5.303a1.5 1.5 0 0 1-2.122 0L8.94 4.697a1.5 1.5 0 0 1 2.122-2.122l6.364 6.364a1.5 1.5 0 0 1 0 2.122Zm-6.364 6.364a1.5 1.5 0 0 0 0-2.122L4.697 8.94a1.5 1.5 0 0 0-2.122 2.122l6.364 6.364a1.5 1.5 0 0 0 2.122 0Zm7.07-9.9a1.5 1.5 0 0 1-2.12 0L12.474 3.99a1.5 1.5 0 1 1 2.121-2.122l3.536 3.536a1.5 1.5 0 0 1 0 2.121ZM7.526 18.132a1.5 1.5 0 0 0 0-2.122L3.99 12.475a1.5 1.5 0 1 0-2.122 2.121l3.536 3.536a1.5 1.5 0 0 0 2.121 0Z"/>
</svg>
