<svg xmlns="http://www.w3.org/2000/svg" width="20" height="20" fill="none" viewBox="0 0 20 20">
  <path stroke="#000" stroke-linecap="round" stroke-linejoin="round" stroke-width="2" d="M9.015 10.985c1.952 1.953 6.532.539 8.485-1.414a5 5 0 0 0 0-7.071m-8.485 8.485C7.062 9.033 8.476 4.453 10.429 2.5a5 5 0 0 1 7.071 0m-8.485 8.485s1.414-4.242 3.535-6.364C13.964 3.207 17.5 2.5 17.5 2.5m-8.485 8.485s4.242-1.414 6.364-3.535C16.793 6.036 17.5 2.5 17.5 2.5m-8.485 8.485-2.122 2.122M2.651 14.52l2.828 2.828m2.829-2.828-3.536 3.535a2 2 0 1 1-2.828-2.828l3.535-3.536 2.829 2.829Z"/>
</svg>
